<mxfile host="app.diagrams.net" modified="2024-04-05T13:30:07.337Z" agent="Mozilla/5.0 (Windows NT 10.0; Win64; x64) AppleWebKit/537.36 (KHTML, like Gecko) Chrome/123.0.0.0 Safari/537.36" etag="LvKj1XYOGAytSrwJWCrj" version="24.0.8" type="device">
  <diagram name="PÃ¡gina-1" id="eNEq4JO9vwfXdZe2OcRJ">
    <mxGraphModel dx="1434" dy="746" grid="1" gridSize="10" guides="1" tooltips="1" connect="1" arrows="1" fold="1" page="1" pageScale="1" pageWidth="827" pageHeight="1169" math="0" shadow="0">
      <root>
        <mxCell id="0" />
        <mxCell id="1" parent="0" />
        <mxCell id="5tD0YtcjlEIWfmQ_gaHL-1" value="" style="shape=image;verticalLabelPosition=bottom;labelBackgroundColor=default;verticalAlign=top;aspect=fixed;imageAspect=0;image=data:image/png,iVBORw0KGgoAAAANSUhEUgAAAvgAAAFjCAYAAABIa3/+AAAgAElEQVR4Aey9CVRVVRv/b6k55DygcnMWMnmdQE0lNSun0tK3xEIzpyzLQGW0CJDXISwtTXIs00xLm8z0daUWzpn9yjFeFybKSlF/KPxRfnC7967Pf507njucAzhTD2uxOPfcPTz7s5/97O/ZZ59DBeRHCAgBISAEhIAQEAJCQAgIgb8NgQp/m5ZIQ4SAEBACQkAICAEhIASEgBDgxgj8Kwd5f1QvOj84jJQdF28RVgvnNr/B4C6d6TN2GYeLSlmt5Ryb3xhMl859GLvsMKXNVsrSJZkQEAJCQAgIASEgBISAELitBHQEvpnML2YwNTKSSI3fafO3ccECxVsncl/FClSocBfVh66+RQ26yNIBVbirQgUqVGpD5C5j6eq9uJQBVe6iQoUKVGoTSWmzlVS4ueAMhw9lcbWkhPK9EBACQkAICAEhIASEgBC4iQR0Bf7p/85n8iMGKioiukIFKjZ7nNjUucydM4mH6t1N5U6J/GYC8nbyn0EP0LRNb6ZuPHsTzVUXbSbr80n0aNWMoCfnsv+K+judY3MWn0/qQatmQTw5dz+lzeZdoomMr2YyZfQQHgoyULPyXVRqF8dPpbzO8C5PzggBISAEhIAQEAJCQAgIgesnoCPwlcLNZKb2pLJd4FfuNovfzcrpk8wNrUylwGnscRO0Fgqvem96MV29yNmzuVxV8vr6sRgxKhcKQHFBPkUWj0TmQnJzcsgr9vzCns54hStudtjOmwtzycnJQzvbFbyzWSguLELLVJdlxaTPCefZvq2ofJftAki54Dlkb4crnRwJASEgBISAEBACQkAICIFbR6BEgf/H26Eugd99DifMUHjhD37ds4P0/Znkma5yet8GFsS/QP8OjanZOdFuvYULuxcwvncr6tQ20KJRFSrXa8/wd/ZwSdHphX/y81eLeH3sADo2qU3vubv5/OWO1KlYkTrdkthXZOHywRVMGdKJxlXvplrjZjSqY6DHhI84UgiFZw+ycUkiE596kJa172XwR/m2ei2XObhiCkM6Nabq3dVo3KwRdQw9mPDREQop5OzBjSxJnMhTD7ak9r2DcWa7sIf3X3qMtg2qU6d+XarXbEa3sES+Plms2xuFn/6bex0CPySFYyLwdXnJl0JACAgBISAEhIAQEAI3l0ApBP5DLoHf4y1OmAtY8++6hCQdRtGy5tOfMD6oLnc7VvlDZlgtzv8hho733kWFu+6hx5z/cXXnFAIqVaBCRQMjN+SQtXo8wf5VbXvoK1SiZZcutKpbm0qKWK4cSspnr9O11t3Wff33dkvkp0t7iAqsRIW7KtMudiubonvSvIbyfQUq3FWVoZ8UAgXsTuhKrbuVc/fSLfEnLu2JIrBSBe6q3I7YrV8R3bM5NZTvK1TgrqpDsWbL/5HYzvdabal0/zR2Xz3Fe32rc1eFu6jUdARrTmuv54vAv7kOKqULASEgBISAEBACQkAIlI1AmQT+XRXvoVr16txTqTLBdoGvVFf42XBqOlaxH5wF5t+Z090u3isaePG/xZiOpRBS2fYgbq1hnwBGDsS1o5Jjf3/jp1md+RsfTwlndNKHJPdWBLYi1Gsw5EPlzTyX+GKUPxXvuhu/kV+A+QRzule2C/waPL22EPPJ+fSpbnuA9q4aQ7Bl+4JR/hW5624/Rn6Rj/nEHLpb7ajAXTWeZm2hmRPv9KKa1f67qRf+BYWY+Hn6v+wXNhVp9dqPaK3ji8Avm8NJaiEgBISAEBACQkAICIGbS6BMAr9yl0T2/3mSD56o4ybwi754jjr2VfHKD86GvJUMqWYT2spKessHH6VX23q21fkKFbin9zzAxK9vdrSL6LtpMv471ysrr6xhWA17/ooteGWHXV4Xn+O3nT9xSnky1nyKdx5yF/hX1gyjhv1Co2KLV3Bl+42dP52yPlBrPvUOD7kJ/Ct8Msy2el+hQkWav7KdYs9nD7rOtD174KMvROD7gCKnhIAQEAJCQAgIASEgBG4bgbIJfOsWHQuXT/zEL6ddL4Qs+iKcumqBf3kFj1e1C/S76/J46jZ+/PFH5+/OI+esAv83p8CvROuIna4HXvNXMsSZvyEvbPR+cNcq8Hu5C/z8lUOoahf4dzd8Ad/Z3qGXm8AvYNVT1exbhSrS8tUfrALf7dmDkBkc1dhbLwL/tvmuVCwEhIAQEAJCQAgIASHgg0CJAv/kXNVDtg/O5n/27eh5G6N5tO9IFh014SXwjQeID6pk2z5ToSItJ2zmsqPyK+c5X6A8ZWtCU+AbDxDXzpX/vlFfWN+3by3iqj2/soLvIfCNB+Jop+zzV7b2VLyPUV9cwPHenavnz6NUq6zguwt8E78ldrK/CeduGr6wkSLFNuWcdfvQ3TR+4RvN99uLwHd0rPwVAkJACAgBISAEhIAQuBMIlCDwjRz/Tze70K1A5S4pHLMKfCN7o+6nUuUOJPxiouhLjxV8zPyxbDANHQ+z3l2LtoPG89rk53mkdV26phyxCvxf3mhvL7sizSdtc23RwczJpU8481e4uyaB/ccROWU8g+6vT0jiIeerOm0P2VZn2KeF1nNLn2jofOD37pqB9B8XyZTxg7i/fgiJh0yYT84l1LGCX30Y1mxZK3iyoe2B3crKar3xIh8/Vdu6qn/XvSEk/ux7B77l6p/8lPQQ99jvGlQKGMdn/8srxSs274SuFxuEgBAQAkJACAgBISAE/o4EdAS+kfTINs5989a3zlSqSo1atahVqxbVK9/NXZW7Met3M0Ubx+Dn2KLTfY6Nk+USe+c/S6cGle3bX5Q32TSg8/OL+fUKFP8wjbb33u38Tnk7Tp0uia5/FGW5zE/vP0+I3z3ONHdVrk/H8EUcLDBxZM5D1KlciYoVK1KxUiWqNhnDV0VgufwT7z8fgt899i1CFe6icv2OhC86SIHpCHMeqkPlShWt+SpVqkqTMV8BFi7teYdn2tWh0t21CezegUaV76Z680eJ23ja+rYgz843HZlFjxoq++0PC1e4qzpdZvzmmVw+CwEhIASEgBAQAkJACAiBW0JAR+CXvv7ibZNoVtH2hpwq/Re7Zyy+wP9+3sWPu37mxEXVSrjFjMlkxGh0/ZpMPl5Haczl5MHd/LjzABnnfezFd6/N+cmYe5KDu39k54EMSp+tkHPH9vHDtu3s+vU0+T7McVYgB0JACAgBISAEhIAQEAJC4A4kcM0C33LuvyQ98zC9h73B119Msb5rvsJdVehi3X5zB7ZUTBICQkAICAEhIASEgBAQAv8AAtco8C3kLB1o/w+ud1O/RXNq3V2RBr1T2GP/h7L/AHbSRCEgBISAEBACQkAICAEhcMcRuEaBDxSf5Jvk0Qzq1YOHBowgcv4WTir/TFZ+hIAQEAJCQAgIASEgBISAELhtBK5d4N82k6ViISAEhIAQEAJCQAgIASEgBLQIiMDXIiPnhYAQEAJCQAgIASEgBIRAOSQgAr8cdpqYLASEgBAQAkJACAgBISAEtAiIwNciI+eFgBAQAkJACAgBISAEhEA5JCACvxx2mpgsBISAEBACQkAICAEhIAS0CIjA1yIj54WAEBACQkAICAEhIASEQDkkIAK/HHaamCwEhIAQEAJCQAgIASEgBLQIiMDXIiPnhYAQEAJCQAgIASEgBIRAOSQgAr8cdpqYLASEgBAQAkJACAgBISAEtAiIwNciI+eFgBAQAkJACAgBISAEhEA5JCACvxx2mpgsBISAEBACQkAICAEhIAS0CIjA1yIj54WAEBACQkAICAEhIASEQDkkIAK/HHaamCwEhIAQEAJCQAgIASEgBLQIiMDXIiPnhYAQEAJCQAgIASEgBIRAOSQgAr8cdpqYLASEgBAQAkJACAgBISAEtAiIwNciI+eFgBAQAkJACAgBISAEhEA5JCACvxx2mpgsBISAEBACQkAICAEhIAS0CIjA1yIj54WAEBACQkAICAEhIASEQDkkIAK/HHaamCwEhIAQEAJCQAgIASEgBLQIiMDXIiPnhYAQEAJCQAgIASEgBIRAOSQgAr8cdpqYLASEgBAQAkJACAgBISAEtAiIwNciI+eFgBAQAkJACAgBISAEhEA5JCACvxx2mpgsBISAEBACQkAICAEhIAS0CIjA1yIj54WAEBACQkAICAEhIASEQDkkIAK/HHaamCwEhIAQEAJCQAgIASEgBLQIiMDXIiPnhYAQEAJCQAgIASEgBIRAOSQgAr8cdpqYLASEgBAQAkJACAgBISAEtAiIwNciI+eFgBAQAkJACAgBISAEhEA5JCACvxx2mpgsBISAEBACQkAI3EoCFoouXyD3iulWVip1CYFrJqAv8M1ZmLOWMvyBADqOXs2fFlc9RZsjCOk323Xieo+KNhPRNZyPzqoqud4yb3b+wq+Y2GkMay8B5izS127h+FXflRZ+NZFOY9aiJL0jf8oj/zsSpBh1xxBw82kzWelr2aIxQG/J+NSNEUVsjuhK+Edn7wx8BUf5bm06WeZbbI4xm31b0jmRb8F8ejc7ftcIqLfYrPJRXSFfTezEGOuEdCstvhm+61Hm5e2kvjqP9PwS2qU7xkrIq/N13k8LCO/sR/Vq1alSuQ6BT80mPbdkraLopK7hH+mUrP2VZkwy7iWxTyBt2rTx/g18mKR9Ru1CgYKj37E2PYuSh7ZHH+iW+jf68nbFvpuAsASBn4k58y161mlHh7b/YuquQqcJhZ+HUff+ac7P131Q+Dlh9fswP6vkQXPddd2oAq58zJO1+rP4ggWMe0gdOZ1vlGMfP1c+fpJa/Rej8bWPHLf4VHnkf4sRSXXljICbTxvZkzqS6d9c8NmIWzI+dWNEIZ+H1afP/Cyf9t3qk9a432AE610h/xaYYOb3uY/x4DMvMqxPXwY89Ahxu4tvQb1/lyqu8PGTtei/+AK+Z6Gb1c6b4bvuZRZsGEnb4Ws4X1LDdMfYNba/YDMTWjTikZm7uWAC47md/OfRRhie+7xEexSdVL/P/GuqWDsmFXDmyC8cPHiQg/ve48n6Bp5dtt/2+ZejnLmiV52ZzLd60mDEekoe2u59oFfq3+m72xP7bg7BUgn8HjX6kTRnIM0fX8Jp+wATgQ+oBX4J/aM9WEvIeKu+dhNDt6pSqUcI3EQCZfDp2z8+76zJ9PZMchbyT5/grLJob8zldHZeKVYZb6L/lLui/64C30LOrrVsytBfmb5Z3WXcFUlgkxfYWOSqwZwxmx6NnmJlCVccN0fgu+yg6BtGN2rJKztKeyEsAl9Fz+fh7Yl9Pk257pOlFPiPsuiPH4h4oC2v/Wi7Zeop8E1n97ByVixTY2ew+Ps/cI2FQk5uXUxydCTTEhexKaPAt9H2yXheZjZ7Vs4kdkosb60/guuOnIlz+9fw9htTiYhKJG1LJo6bt8ZflhM9bzsXcn5izVvxRL+5gI3HNOrByC/Lo5n336Okr0ghJiaRBV8e4pJqZaD49A8smxHNlNhZrNqXg3rHnencXlbOjGHa6/P58uc0hjhX8H9hefQ8djgLMnFu70pmxkzj9flf8nPaELcVfG1e3niKs7azODGKmOQ0NmecZuu8+Wyz3h60t2XHJeeKjenIKuJnb8Kx00mvLW41lcTfdI79a97mjakRRCWmsSXTQV8ppZisHUtJjopkWsI7rFr3Pq891Z/Xvy8GzXx227fncGbnh/wnJoo307Zz2mgh//hGFiRMZeqbaWzPUgUu01n2rJxF7NRYZiz+nj9cTgaFJ9m6OJnoyGkkLtqElpvZfGWHq79NR1gVP5tNCjCjrQ+3X8jhpzVvER/9Jgs2HkPTk6x+91+Opq8gJSaGxAVfcsjZ/472XSB7+zxee2khB5T5Sa8NxVnsWJpMVOQ0Et5Zxbr3X+Op/q+zeZ/dv7O3M++1l1hoK6jE8ZBzZicf/ieGKIXjaSOW/ONsXJDA1KlvkrY9CydZzT5y8xDrBxs/rTYr3b2fNW+/wdSIKBLTtuB0EyfbbLbPe42XFh7AikMrvbrq4oMsi5rNdw6nVr67upe0+BX8atSp003gu8aKrWi98VmKWOPWF2pjlWONmGdn4IoR6nweAr8MfaKUYs7Zz+o5cUyNSWF5eraqbzXGjLM/vH3ddHglUaNC8a8WyMAJk4hfcxxnjFW3W89GnfGoFZOcdWjEcU3fUmO0Htv7WifGa5bl5KL2U21/8KpaGeJ6Pm3OYf/qOcRNjSFleTrZzkFoJmf/aubETSUmZTnpri+g+DQ/LJtB9JRYZq3aR477hMTelTOJmfY687/8mbQh6hX8Yk7/sIwZ0VOInbWKfc6MGrHJszF6/euW1sN3KRsv376rLtM1dpVpWtdPPMeYJu/S22j6LZFONUNJzVCDL+ZqoWOTi3ZZbgLf0zZMHFkVz+xNZ+3zt15McgPu+qAp8E2c3bOSWbFTiZ2xmO//UCZLE4dXRjEq1J9qgQOZMCmeNcdNOnO0ug9cVaqPtMayZgxUZ3Yca/aRMl361pVOH3DGoys2XbfdY77VGzs+6vUV+xRuWtrT0QT1Xy2b1Wmsx85Y4x2DHWlLXZYjg8ffUgr8R3j/rInTSx6naf9F/GEGtcA3Z60mrKWBLmGRvB47ll5N/Qid+TNFWMhZNwKDXwjPRSeS8OpQ2jfryzzFqTx/lMm4TlM6PdiJ0BGRxEc9S3CDpoz7VpFXFs58EkYLQxdGTEkkKW4MPf0bMfCDTGspVluahxAa0otnI+OZ+kwH6t43DmtWz3pQnLYONRu04cHhEUyPe5FHW9anc1y6VciZT33M0y0MdB8VTUL0swT7BxG5zXaZYcn+jFGtG9Fp+FTefOMVhna7j1pV7Vt03MSEhezPRtG6USeGT32TN14ZSrf7alHVvkVHm5eXsViyP+XZ5g3pMOxV4uNeZmiPNjSs+RBvK51gbYvttr7j+qTo27EYQpI4bAK9tnjVpMffcoZPwlpg6DKCKYlJxI3piX+jgXyQqdhg5tTKYTRt0o3w6ATixj1M0+rNmbA5H3Tz2fqhWUhvQgeMJXp6BIMD6xDY9zE6/utRRk+JJ2JIIHWCE/lVcRdzFqvDWmLoEkbk67GM7dUUv9CZ/KzELUsO60YY8At5jujEBF4d2p5mfefh281st0ydO8GKvmWsIYQkBZjCoG5zQkJD6PVsJPFTn6FD3fvsPuhFzDoG6tRsQJsHhxMxPY4XH21J/c5xpFuvCGzBsfvo8fTsPJT4JT9yxqjTBvMpVg5rSpNu4UQnxDHu4aZUbz4BBaN1kug+mvE9OzM0fgk/nvmrxPFQp1kIvUMHMDZ6OhGDA6kT2JfHOv6LR0dPIT5iCIF1gklUwOr2UdnabDnzCWEtDHQZMYXEpDjG9PSn0cAPsLqJdXx0Z/T4nnQeGs+SH8/wl156ddWW0yzo24BBS3OcF7KFm8fT+pH3OJVVUp2ObX/qyUpvfJYca+q79YVjkncYrBPz3GKEI73jr8q+MvaJNS61MdB9dCwJ08IIbtyGcV9f0B8zOr5uztzEu3GDaVmjM6NT5rBoyylvH8w6pR0TdMajXkzSi+O6vuVA6Pxriy1aMV63LC8/zeKUztzjrNJ+oFu2JZvPRrXB0H00sQnTCAtuTJtxX3PBYvPHNobujI5NYFpYMI3bjONrZT+n+RQfP90CQ/dRRCdE82ywP0GR22wLX9byWtOo03CmvvkGrwztxn21qtq36Jg59fHTtDB0Z1R0AtHPBuMfFIltKvMRm7zcWC/me7Za5bslzNWeOTV9VzW3ec5zen5ijeGOrb46vPX0hKeNmP/go2EGarQcQNTS7ZwscMy2SspSxAvHFh2v8V/Et2MNhCQdxoReTPKyyHXCp8A3k7U6jJaGLoRFvk7s2F409Qtl5s9Xydz0LnGDW1Kj82hS5ixiy0mdcezWB64qHUfaY1knBjoyO/5q9pESvrR0pa85scC6xdF9vi1p7HiPxXMnPGPfSd251tEMx189mx1pnH91YrCSpkxlOQt1PyiDwLdA4U6mPBDIpG1XVALfyM7IQNpO3uFc6Sw+lEzXxsNZl2dk15S2dIizrdYpVRcVFFhX7tzNULSqIq7a8dqOy/ZJvIhvRvsTknzEuoJuyc/gyCnHkq2F0/P7UOvx5dZirAM+KIIfHKunRV8xqkk3Zh73jFpKciUY1aOLvVzljPnkezziP5gVOUWkRwQSNG23fX+ahbPLB+M/aCnnLEb2Rj1Aq7EbcT5bc3k5gxwr+OrBa9xL1AOtGLsx1ylILi8fZF/B1+PlScXIvpggWo75xlVnwVqebtCrFALfqNMWz3pK4m8hP+MILvynmd+nFo8vv6TAI/UhAyO/yLMXWszuae14YNoejOjks/dDp+kH7HdiLJz/oB81uiZxyHFzIHcpA2oP5qN8MO6MJLDtZHY4ltOLD5HctTHD1+WBcRdT2nYgzrqyrZhRREGB79u5VrHcZz7aAj+IiB8cd0SK+GpUE7rNPO5zq4BSVr0uyRxxXK+aT/LeI/4MXpFj97PaVDUMZclJmx/qtcF8MpWHDCNxYdzNtHYPMG2P0TrWalc1MHTJSacdJY2Hep2mc8DO0XL+A/rV6EqSCyxLB9RmsAJWt4+8/US3zZZ8Mo6cct69s5yeT59aj6O4iXV8166KYegS7DhAL71b1WZOvt0Lv2GrybWeL+bH1+6n5+wMzHplqMekerLSHZ+KWfqxxrMv3ExFJ+a52eOeSy1iytYnRvbHBNHmxS3Ou5156YuYse64/pixxlttX/e8Ta30u3u7dca25njUj0lKHXW14rheP3ui1I3xFn2/U7h4+KmeP3hVrWOncX8MQW1eZIvjtnReOotmrOP4lf3EBLXhRdcXpC+awbrjRozpEQQGTWO3fcO05exyBvsPYuk5C8a9UTzQaiwbXRMSywfZV/CN6UQEBjHNlZHlg/0ZtPQcFisf99jk1Y4yxQW1wNcfP+71aPuu+3hwla9Ia10/UY0xTd7Gsthot9h4hu3vvcLAdvWpWieQ/q8t5Sc7dz3/UGx17sFX2WYrVSXwS4hJ7txUn3wJfONOIgPbMtk1WXIouSuNh69D2fTmvgdfZxyrY6aqStuh3ljWiYEe5Wj3kb5O8o5Hio+4+7Tu2NEai0Zsz52qnj/S61/35ujb7J7Wobm0YnAZy/Iq3HaibAJfuVpd+jj3PfIuRz97lvrKQ7bmk8zt1Yzx3znEt3In6Gemdwwiaq+R4sMLGNyhB88nr2R7xmWnQPGyx8v5i9n2cis6J/zq3CJTkLGZRXHP0y84kABDHar2XWgtxjGInKKteAsTmoWQ5FRe6trcg4X1G3MGs3u0ZtLWY6T2rEnbJycTGRlp/Y0I74Zf04lsLfyDt3sZGKPeiKfeg6+y3/zH2/QyjHHbs+fc4/uXPi+1pcrqzTu9DbygrrNwA8/5lULgF2dqt8V5W1hVm8p+21lP/gVkbF5E3PP9CA4MwFCnKn0X/mldAV7wSFNGfOZ4P9BVtk0KoL3zok4jnyp4ONZD8lY87raNiYKVDKk1gCUXzZyc24tm479zikflttnP0zsSFLUXI8UcXjCYDj2eJ3nldjIu+7qws7XKy1c8V/Adqz/W5MVsmdCMkCTbRaaKlvXQqyzMZMzuQetJ2+wCvy4BEel2m/XbUHRmAY80HYEL4zYmBbS3XrQo9dQNiCBdNcQUA0o9HvJW8LjjQtRqeQErh9RiwJKL9iZp9ZH9a9Uf/TZbjWLzojie7xdMYICBOlX7slB5/ZbiX3UDiPBuhO/0qjqVQ+ue1ybPsV4RR8afiOsQwpu/2a+sCjJ8l+Hm065xrzs+7c6ox9ZXX6jN1Yx5bvaocyjHLvts35SyT+wxwi0uWQvQ9zejly3uvu5L4Hu3W8tGjfFo1o9JXr7lGce1+tkTpYqlI7bgiPHb7MFPqywNP9XyB6+qlRM+y/6LU+/0xjBmoyqG2XKbT71Db4/5wv4Nmak9qdn2SSbb56PIiHC6+TVl4tZC/ni7l0d5rj34f2Wm0rNmW56cbJvHIiMjCO/mR9OJWym28lHHJp+tUBriO+Z7Jff0Xe3Y5JZV03eVVOoyXccOga+IZp/zvdOvtXk7bChTnzoyUUT27g+J7NWY2iGJ7LfHZK2yHD5tze60zeGVLoFfrKcZHMmdNqgOfAh888m59Go2HndJNp2OQVHsNXoKfKUsrX52cVfVaDssYSxrxkC3gsyaY6IkXek9Jyq2qn3arDt2tMaiYp5n7FPOafWve3PKoO2UjF7+oIrBJehqt3p1PpRR4CtG7WJquzaMi3sOQ9tpYDpCcpcAXv1BpRrNx0jp1oqX7cHUUpDJ9g+TGN+vIx2fSGHHRR8e66OxLoFv4cy6F2gX+BhT0jbxW04RV1c/Ra2SBL6y7cLrx+W0TiusgaYFEzb9SkrX2nQKTyAxMdH5mzR7A8eLjjKjayCT1e3UEPimozPoGjgZ96T2t+gYS+blNNnK1qPOUgv8Y9pt8YnF8y1GKoFvOcO6F9oR+NgU0jb9Rk7RVVY/Vcsm8LGQ+98pdDIE8fiYl5nw7xAMzYexQlmm1c3n3Q/aAt/EkeQuBLz6g2tvMWaOpXSj1cvb7OcsFGRu58Ok8fTr2JEnUnbg281K2KLjU+Art1C9fxzB2znRKNuV3ulNiwlb3CYom5+V0AZLLv+d0glD0OOMeXkC/w4x0HzYCutqt3c9ZRwPegJft4/K1mbLmXW80C6Qx6aksem3HIquruapWiqB78ZWcQ+d9J5VW8dCU8Z+exXTkWS6BU1jj7ISp1eGW0xx+Zvu+LSUka2nnfbPPmOemz2eGV326Y8bj3wKF8+4ZE1Sgr952eKYXGy+7jnJeflgiX7jYzz+pR+TvOpwCPzDJv1+9kCiFodeMX5LsX5ZXlz0/cGzam1/NHIkuSuBk9UxzJZb8WfP+cL2jRLjulK7UzgJqvkoMWk2G44XcXSGZ3kqgX8sha61OxGe4JrHEhOTmL3hOCaVeHby8W6ITsz3TKzyXQOv/u8AACAASURBVGURUGeudsup6btKKnWZrmPFXj0/cYkmbd7WbTWltdHNYNWH3HWMaGxg/Jb/p9teh63WnF6+5RL4RXqaQbOTlJvV3g/ZKv7UJeBVN/1hPpZCt1Yvs63YQ+DrjmMXd1XLbYeKxtPSSvbJ0mcMdCtIiVGePmxPYI332rrSwdU197psteHSHzua9XoJ/DL6cwla2K35Xv6gisEltN+tHJ0PZRf4yl6xZYNpFhjIfQ8or8nM5aMhDem/WLn1Z//J30C4f3dmZXiupOazZWIAIYmHHCldf3001inwrVczTRn9jev9T5eWD6LmjRL4V75hTPNezM3M5dNn/AhNPeF2p8FkUtpxiY+HNmKAup0aAp9LHzO00QAWn3MSwbmCbykLr8vWOp9YrnrtmZvAt20hCU3NdNpb9O0Y+x78PJ22uLA7j3T4FysrAk1H48J/ieWDatoF/lUOpD7FoFfeZcn8Wcx891P2nrVtj7GuJGjm8xyQoC3wIfejITTsvxgX0nw2hPvTfVaGs+3OtuRvYWJACImHvGV50VejaBKaatsXrmQo+pYx6j34biJUNeCchbsOvIPMFb4Z05xec5VnQ7zbp9uGqwdIfWoQr7y7hPmzZvLup3uxY/Se0Mo6HnQEvn4fudrqONJu8/+sd1majv4G5yi9tJxBNbUEvm2FWTO9o0LnXxO/JnSm9aStHJ/bm4CXt1FECWW4+bSrP3THp/UOWxlijdM+rQNVzHOzxzO9y76y9cllVg31o1/an674a8wn76pFf8x42eLu62ZlBVh1m9qz38tko3M8/l/dmORZB06BX6zvW54ofYw9nDHeqF+WJ5cSxpp71fr+eHnVUPz6pan+n4yR/LyrWC6vYqhfP9JU/2jGmJ/HVQvkffoMfqGpnFBPpSaTNeZd+ngojQaoY6JL4FvyPuUZv1BS3TNincp88XFvCGXqX1V5tpVX7fHjXo2276rjp/pYmVG1/cT+HJU9hmvyLlOfmvhlVm86vPitcwuctQ3KXcSgOgxfe5S5vbTb67DVmse6dTiUVOtDScqZIr4dY9+Dr6sZ3Km5ffIh8Mn9iCEN+7vpj/wN4fh3n0WG2bay7XhNpn4/u2KSW53WD2XRF6oY6FGQZh+VoCsdXLUFvv7Y0a5XWcFXxb4y+UpZtJ3VkT1eDa+OwWUsy4Or4+M1CHzFL3cT1bYylQIVgW/h/NoR3Bf4HEv2ZJF74RjrX+lEg55zOGrKY0fCYIbFr+Ngdj4Ff+4kpW8TQt/KcNTv+usZWFGvIGfz/qP16DY9nbOXszmweioPG6pwT+951vxene2cGLwFni1Y1KFRn1jWHjhD7vnDfDqxA/4DP+CUGS5vmkBrw2Mkbz5Bbm4Wu5eNI6RLFLuKLFxcH06z1sNJ25fNhdN7WfFiMLWr+BAwlousD29G6+Fp7Mu+wOm9K3gxuDZV+i7kT4seLxcO25GFcx8Pw7/dOD45dJ78C0f5OmkAhmqOh2yVPfrtaDIkjWMXczi2eR6jg+tTNdj2kK12Wzzr8e1sjgssY/b7PFqvG9PTz3I5+wCrpz6Moco99J6XhfIA0sLH/AgYMJGYN1NIfW8Jq7/eyf8um7Ho5VNNCo7LID2Bbzm/lhH3BfLckj1k5V7g2PpX6NSgJ3OOmiBvBwmDhxG/7iDZ+QX8uTOFvk1CecvrAhOM+2Jo12QIaccuknNsM/NGB1O/arDrIdsyCvw6jfoQu/YAZ3LPc/jTiXTwH8gHiiP5aJ9eG8x/LOQxvwAGTIzhzZRU3luymq93/g9lt5GXf1vKOB50BL5+H3n7iWKL7zb/Rfb7j1Kv23TSz14m+8Bqpj5soMo9vZmnRGGv8W3RT+9dNcafYmnf9gUmPNqSMRuVBwxKKMOtTtVkpTc+TWVk62WnTsxzs8czo8u+svWJhYsbRtGs9dMsSD/FxXO/smp8e1o9/wV6/ubdH+rJBSzZ7/FwzT68nWnbg+Dpg7o26oxHvZjkWYdL4BvL6CsKS60YXxafUVxM3x/ce1G/bMvFDYxq1pqnF6Rz6uI5fl01nvatnueL/3uRDaOa0frpBaSfusi5X1cxvn0rnv/ikjIhMaG1gceSN3MiN5es3csYF9KFqF1FWC6uJ7xZa4an7SP7wmn2rniR4NpVrAsvFi6zaUJrDI8ls/lELrlZu1k2LoQuUbso8hGb3NuhNFsn5nsmVpVXVl5avquOn+rjsgh8bd5l6VMoPphEl3pBTPwyy/78oJlzG8cTWK8/aX9klUqbWJEZ9xHTrglD0o5xMecYm+eNJrh+VYKVh2z1YpJjgvTi7nsFH8t51o64j8DnlrAnK5cLx9bzSqcG9Jxz1PYw73sPU7PP2yhDW7+fXTHJV9XaY1knBnoUpNlHl/R1klesUPmgE5fu2NEYi5c8Yl8Zx7+2FvZouPLRaz5Qx2D99nN1P8viZ7De7c1O3nVcm8BXJtYVg2no+EdXlovsTA0j2L8GVe5tyAMDolifaduyU5z5Ja8P7YyhZmUqV29CcPj7HHQu8akM8tFYh8BUZHrentk8EVCbKtUa8MCgeD5bFE7jdjHWArw6u0SBX4+OIyIY1rER1avVp+0TCWzOdiyRXOXwykn0DahP9Sq1ad5zLGkH8myrY5aL7Jo7nE5NalCtfjuGJcczxO9BZv1uVWFuV2OWi7uYO7wTTWpUo367YSTHD8HvwVkoSdHhpSJiOzT/yZbEwbRrcC/V67dlYOR4+tRz7MEH47GlPNe+AdWq1ef+/tNYvXCk8y06oNMWz4p0+eexZ/YTBNSuQrUGDzAo/jMWhTemXcx+5Z8BcGjxSEIfeoZX46cTHfESo4cEYzAM5P3fc3XyuYKHY0DqCXxFzF3cmUpYsD81qtxLwwcGELU+0749p5jML19naGcDNStXpnqTYMLfP+haSVa31XiMpc+1p0G1atS/vz/TVi9k5HWs4NfrOIKIYR1pVL0a9ds+QcLmbPsdBe/26bbhyiEWjwzloWdeJX56NBEvjWZIsAHDwPf5P+s8thWVdTzoCHzQ61s1ONuxMtY025y3h9lPBFC7SjUaPDCI+M8WEd64HTH7jT6CmbUR2um9qwbjbqYGVqdakzCUZ6utP6Wu09UfSj698VmmWGM3Q/1HM+Z5jTF1LrV9ZesTLLnsSn2Gjo2rc0/1RrQf9h92WN/PrTNmvGxRTy7WdxEy91ED1SpWpV3sbu+LTF2/0RuP2jFJN47r9bMao/VYYakT4/XK8uKiP/d4Va1XtrKdcVcqz3RsTPV7qtOo/TD+s+O8dW6x5O4i9ZmONK5+D9UbtWfYf3Y4/4nS1cMrmdQ3gPrVq1C7eU/Gph0gzxo0LVzcNZfhnZpQo1p92g1LJn6IHw/O+t0Wg64eZuWkvgTUr06V2s3pOTaNA9aMLl9zxF6vduj2r2dqV3nKN3rjxzOntu+qy3QdK/bq+olb/2nzLpONmDj5+Ss82KgWje4PoWvH5tSp155xn5ywCn69shy22tpt5NjS52jfoBrV6t9P/2mrWTjS8RYd/Zjkxc1xwtcKvjW+7SQ1LBj/GlW4t+EDDIhaj12SYfxlLo8aqlGxajtid18o1RztqM79r/ZY1oyB7gUolmqOCT2d5OCqt4KvVKU3drTGovK6bHXs0+tf7+Zoa2GvtG6+qnzrEYP1dOLFJQyoZmDCFtXWeK8KQF/g+8hQ/k+5B4ty1x63LTq333pz5lx6tZnIVvUDoJYLLB1Yh0HLHA/e3n47b4YF3kHmWmsxkzm3F20mbnV7AM9yYSkD6wziTsJ449p8rawknxAoiUA5j/ElNU++vz0Eis/z+/4f2bHzF7LyHQuCt8cUqVUIlIaACPzSULqT0txhAp/L3/FSYAPuHzCGyLjXmR4zmdEDHqBxm5F8eubvHQRvpNi9/N1LBDa4nwFjIol7fToxk0cz4IHGtBn5KXcSxhvZ5jtpWIktfycCIvD/Tr0pbRECQuDaCPwDBb6Jw58k8sGuy9dG7HbnMh1hTdIi0h3v/L/d9ig32S4f47sVc0maHkvcGym8u+p7MvK1b/7eASbfEBNMhz8h8YNd3BhPsnD52HesmJvE9Ng43kh5l1XfZ3CnYbyxbb4h3SCFCAEPAuU8xnu0Rj4KASEgBK6FwD9Q4F8LJskjBISAEBACQkAICAEhIATKBwER+OWjn8RKISAEhIAQEAJCQAgIASFQKgIi8EuFSRIJASEgBISAEBACQkAICIHyQUAEfvnoJ7FSCAgBISAEhIAQEAJCQAiUioAI/FJhkkRCQAgIASEgBISAEBACQqB8EBCBXz76SawUAkJACAgBISAEhIAQEAKlIiACv1SYJJEQEAJCQAgIASEgBISAECgfBETgl49+EiuFgBAQAkJACAgBISAEhECpCOgLfHMW5qylDG/bhjZt3H8DH05i3/+3mYiu4Xx09u//T41KRbPgKN+tTSfL/g9czVnprN1yvFRZy1Wiojuw32+4TWay0tey5fjV6+sacxbpa7dwvcUUHP2OtelZ/L3/N/D1oZbcQkAICAEhIASEgI1ACQI/E3PmW/S490Gmf/8zBw8edP7+cvQMVwo/J6x+H+ZnicBXcCqsejYYwfpCG1zjnlRGTv/m7+drd2K/33CbjOxJHcn0by5cX/8Z95A6cjrfXLieMWIm862eNBixHrtrXZ9NklsICAEhIASEgBD4WxMoncCv8Qjv+1qlv+Giqnyz9hT45bs1Otbfif1+J9qkg7BsX4nALxsvSS0EhIAQEAJC4J9N4OYJfOMvLI+ex3+PprMiJYaYxAV8eegSjnVM4y/LiZ63nQvZ25n32kssPGAETJzds5JZsVOJnbGY7/8oUvVOMVk7lpIcFcm0hHdYte59XnuqP69v3metZ/uFbLbPe42XFh7AiIlz+9fw9htTiYhKJG1LJs6NFna7tuecYeeH/yEm6k3Stp/GaMnn+MYFJEydyptp28kqdlStU5YjiWL54ZVEjQrFv1ogAydMIn7NcWxt3OFMVXz6B5bNiGZK7CxW7cvBZP/GySLnJ9a8FU/0mwvYeKzAmQ+KOf3DMmZETyF21ir25ThyqpI4D4vJ2r6YxKgYktM2k3F6K/PmbyPXgtOeS45OMB1hVfxsNjku3opP88OyGURPiWXWqn1oVmMX0/Mys9mzciaxU2J5a/0R8h02mM6xf83bvDE1gqjENLZkOulbU5hz9rN6ThxTY1JYnp6NE7VWOx195tbHjsrsfz0Fvukse1bOInZqLDMWf4+bK3lmPbmVxcnRRE5LZNGmDGzkjfyyPJp5Oy7ZU2v43/cFznQurKuIn70JK1a77Tsc0DUYa/uAicMroxgV6k+1wIFMmBTPmuNK/2v7xJXdC3kt/hOO6bmJBwP5KASEgBAQAkJACPx9CJRO4N/7MO+cuExeXh55efkUFNqVg6eoUnNRvqtTkwZtHmR4xHTiXnyUlvU7E5duk0+Fn4dRv/toxvfszND4Jfx4xkjW6jBaGroQFvk6sWN70dQvlJk/KyLfzKmVw2japBvh0QnEjXuYptWbM2FzPlht6M7o8T3pPDSeJT9mceqTMFoYujBiSiJJcWPo6d+IgR9k2qyz2tWMkN6hDBgbzfSIwQTWCaTvYx3516OjmRIfwZDAOgQn/ooJC2f0ylK115y5iXfjBtOyRmdGp8xh0ZZTWNvYZ741lfnUxzzdwkD3UdEkRD9LsH8QkdtsklhJV7d5CKEhvXg2Mp6pz3Sg7n3j+NaKysypj5+mhaE7o6ITiH42GP+gSOxZVRYohxayP32W5g07MOzVeOJeHkqPNg2p+dDb/GFWUIVRv898nDuqir5lrCGEpMMmMJ/i46dbYOg+iuiEaJ4N9icocptLtKtrsjJsSqcHOxE6IpL4qGcJbtCUcYrBljN8EtYCQ5cRTElMIm5MT/wbDeSDTNvucUv2Z4xqY6D76FgSpoUR3LgN475WtsHotNOrj89470W3prFvFzNnsTqsJYYuYUS+HsvYXk3xC52J1ZXU7VCI5axjhMGPkOeiSUx4laHtm9F33nFMFPJ5WH36zM/S9z9VOofAL/p2LIaQJBSsNv902KXNWNsHzGRuepe4wS2p0Xk0KXMWseWUUdcncj98inptXuF715WTR6vloxAQAkJACAgBIfB3JlA6gV+5EvdUr051628NWr38X9uqq1pUeVJSvqvXheQjjmVEMyffewT/wSvIsdjEZu2qBoYuOWkTa8adRAa2ZfIOx8p1MYeSu9J4+DryzCdJfcjAyC/y7LUUs3taOx6YtgejUk/tqhiGLuGk/QlES34GR045Vv8tnJ7fh1qPL7fltdrViekH7KvKlvN80K8GXZMOOVf5c5cOoPbgj6ziVrcsjzZ7btFxCGowkh4RSNC03fY91BbOLh+M/6ClnLOzqBsUwQ+OVd6irxjVpBszj5vBmE5EYBDTdtt3X1vOsnywP4OWnnPeDXGaYdxHTFBLxnyT6/yuYO3TNOhVssA3pkcQGDQNVzXLGew/iKWKgZ4/CsO67Xhtx2V7PUV8M9qfkOQj1oui/IwjuPCfZn6fWjy+XFkJN7I/Jog2L25xXjjkpS9ixrrj+u300ceeJqmFtHFnJIFtJ+NypUMkd23M8HUO/3HlNu6aQtsOcVhvICmniwooUG4mqYQ7ev6nSucgpSXw9RhbBb6WD+CxRacsPuFqqhwJASEgBISAEBAC/xACpRP417IHXxFlHg/gmjNm06P1JLYV2wR+3YAI0u063HxyLr2ajec7hy5Xtr38PJ2OQVHsLTrDgkeaMuIzx3aJq2ybFED7uAM2gV83gAhHQfaOK8jYzKK45+kXHEiAoQ5V+y60feNlVx4rHq9F/8UXXKJ45RBqDVjCxZLK8nASTYFvziS1Z03aPjmZyMhI629EeDf8mk5kq52F28p68RYmNAsh6YgJc2YqPWu25cnJtnyRkRGEd/Oj6cStqq0tNkPMp96ht+EFNqoYFm54Dr8SBX4xmak9qdn2SSbb7YuMCKebX1MmKgZ6/ngxLGbby63onKDc9VB+CsjYvIi45/sRHBiAoU5V+i7803qX4J3eBsaoDbSXrdtOpT4ffexmltOmvzg5txfNxn+HC4OJn6d3JChqL1btrs5YfJgFgzvQ4/lkVm7P4LLzNTWqFXyLjv+VWuD/pcvYcTHovLui8gHl7ob6IVtdVuq2ybEQEAJCQAgIASHwjyRwawW+IkBbTGCLD1FrOpJMl4BX+UGlJ83HUujW6mW2FVvI/e8UOhmCeHzMy0z4dwiG5sNYoSzZO4WdY/3Uwpl1L9Au8DGmpG3it5wirq5+ilrXJPBLKMvDZbQF/jFSutamU3gCiYmJzt+k2RtQtlNrirvDJhQGXWt3IjzBlS8xMYnZG5RtJO4/VoaBk90YllbgH0vpSu1O4SSo7EtMms0G635v93q8masEvuUM615oR+BjU0jb9Bs5RVdZ/VQtm8A3HSG5ayCT1Z1sL1q3nV597GGP8tGZxsiR5C4EvPqD6gLIzLGUbrR6eZvqnKoMSwGZ2z8kaXw/OnZ8gpQdF7GohLuy9UnT/1TpHB7oewX/L/QY6/mAl8Avg0+oWimHQkAICAEhIASEwD+EwC0V+Fe+GUPzXnNRtmN7CZrcjxjSsD+LVVtC8jeE4999FhnmqxxIfYpBr7zLkvmzmPnup+w9a1+LdQo7u7wyn2Rur6aM/uaKswsvLR9EzWsR+CWV5azBdmBdWVW9JtPRRsjj02f8CE094bZ33GSyLRc70nmt3iqbuPM+5Rm/UFJPOJeWrQ8j27O6W3D5Y4Y2eoLlqlcyqgV+0VejaBKaauVvzVj0LWPse/DzPn0Gv9BU3KsxudnrrMyTOS6BX6zciWk6Ghf+SywfVNMm8LnMqqF+9Ev703m3BGM+eVct+u30qs9pietAlSb3oyE07L/Yuv3JliCfDeH+dJ+V4bs9rlLI3zKRgJBEDplUK/jo+B9FfDWqCaGpmc6yi74d43MPvh5jXR9QVvBTVa/JLItPqNomh0JACAgBISAEhMA/g0ApBX5fFpwpxmg0un5NZiwqUeWFS/muTiP6xK7lwJlczh/+lIkd/Bn4wSmrEPISNJbzrB1xH4HPLWFPVi4Xjq3nlU4N6DnnKCbzHyx8zI+AAROJeTOF1PeWsPrrnfxP2U/haYMlm/cfrUe36emcvZzNgdVTedhQhXt6z7OZ6JkenS06JZXl0WhL9ns8XLMPb2faNoc42qgku7xpAq0Nj5G8+QS5uVnsXjaOkC5R7CrycbHj2J5hfUrzMpsmtMbwWDKbT+SSm7WbZeNC6BK1S7UFxW6I5RwfD/On3bhPOHQ+nwtHvyZpgIFq9odsjftiaNdkCGnHLpJzbDPzRgdTv2qw7SHby5uY0NrAY8mbOZGbS9buZYwL6UKUYqDnjxdDl8A3Zr/Po/W6MT39LJezD7B66sMYqtxD73nKw6oWLm4YRbPWT7Mg/RQXz/3KqvHtafX8Fwoh7XZ61edpkHoF34Ll/FpG3BfIc0v2kJV7gWPrX6FTg57MOep5zwPydiQweFg86w5mk1/wJztT+tIk9C0yzCqBr+d/GNkX044mQ9I4djGHY5vnMTq4PlWDfTxkq8PY4Ss+L/KUh6ffe5iafd7G5lo6rICr+5cRP2M9Gd7N9QFOTgkBISAEhIAQEAJ/NwKlE/iVK1Chgsdv5e7M+W2d1z57JyBFlNXryIiIYXRsVJ1q9dvyRMJmsu0L0V6CRpF/F3eSGhaMf40q3NvwAQZErSfTumXnCocWjyT0oWd4NX460REvMXpIMAbDQN7/P9425O2ZzRMBtalSrQEPDIrns0XhNG4XYzPNSyzqCHxAtyxnY+0Hxl+Y+6iBahWr0i52t/Muhe3bqxxeOYm+AfWpXqU2zXuOJe1AnnUl24uFm8BXFNthVk7qS0D96lSp3ZyeY9M4kOfYEOJuhPnPLSQObkeDe6tTv+1AIsf3oZ59Dz7GYyx9rj0NqlWj/v39mbZ6ISMdb9GxVrOSSX0DqF+9CrWb92Rs2gF8VuPF0CXwTeSxZ/YTBNSuQrUGDzAo/jMWhTemXcx+m6GWXHalPkPHxtW5p3oj2g/7DzvO29ui1U6v+tzbbP3klsbCxZ2phAX7U6PKvTR8YABR6zN9b88pzuTL14fS2VCTypWr0yQ4nPcPKnd/VAIfHf/73Yzx2FKea9+AatXqc3//aaxeONLnCr5i59XDvhmX5APGX+byqKEaFau2I3a3UdcnLi4ZQDWDbSucD1JySggIASEgBISAEPibE9AX+NfTeDfBdT0FKf8hdi692kxkq3ox2XKBpQPrMGiZ48Hb66vj75pbvUXn79rGm90u8b+bTVjKFwJCQAgIASEgBG4kgXIh8Ln8HS8FNuD+AWOIjHud6TGTGT3gARq3GcmnZ9R7028kmr9HWSLwb0A/iv/dAIhShBAQAkJACAgBIXCrCNw8gW86zCeJH7Dr8o1piuXyMb5bMZek6bHEvZHCu6u+JyPf9zaVG1Pj36MU05E1JC1Kx/GK/b9Hq259K8T/bj1zqVEICAEhIASEgBC4NgI3T+Bfmz2SSwgIASEgBISAEBACQkAICIHrICAC/zrgSVYhIASEgBAQAkJACAgBIXCnERCBf6f1iNgjBISAEBACQkAICAEhIASug4AI/OuAJ1mFgBAQAkJACAgBISAEhMCdRkAE/p3WI2KPEBACQkAICAEhIASEgBC4DgIi8K8DnmQVAkJACAgBISAEhIAQEAJ3GgER+Hdaj4g9QkAICAEhIASEgBAQAkLgOgiIwL8OeJJVCAgBISAEhIAQEAJCQAjcaQTuKIF/+Kt3mfLvnnR8+gNO3qx/UGvOYunwtrRp04aAgEDuDwrmoSETmbs1i2KN3jFnpbN2y3GNb8vX6aLNEXQN/8hqdOnaZSYrfS1bjl+15ik4+h1r07O4Wd1zvTTV7bvesq4/fwFHv1tLetatpmUke98W0k/kYzGfZveO37H13vW3yFHCLedsziJ97Rbsbugwo8x/b5z/mslaOpwOz6/mgsf/2ytYP54OTy3kf9fR7TfOzjIjugEZitgc0ZXwj87egLJuRhHuMe1m1HBTyyzaTETXcD466+F4N7VSrcJvV4zTskfj/B3FTMPGO+x04VcT6TRmLZfuMLvEnNITuKME/pwXJxEx7F/U7DaT369jctRtvjmTt3rcy4PTv+fngwf5aff3fDZ3JO3rtWXy93k+sxr3pDJy+jc+vytvJws/D6N+n/lWs0vXLiN7Ukcy/ZsLgJnMt3rSYMR6Cu/Qhqvbd9tNVHytZwNGrL+1tMy/z+WxB5/hxWF96DvgIR6J26158XqtjG45Z+MeUkdO5xtPNV2mBtxI/1XK6kGNR97HU2flrXicGsFJHDaVyThV4htpp6rYW3ZYyOdh9ekzP+uW1Vi2itQxrWw574jUhZ8TVr8P87PuAIF/m2JcmfvhTmJWZuNvT4YrHz9Jrf6LvRYwbo81Uuu1ELijBL7SgML1I2jw4M0W+DV45P2zuMJjMbun3U/94esouBaK5SjP9QmzO194XF/7bnBH3qbJz5J/mhNnlTV7I7mns8m7CRfLdxTnUnfbjfRfEfja2O90ga9tebn45k4Sq7cpxpW5n+4kZmU2/vZkEIF/e7jfyFpF4FtpmjmhrMYNWMJF4y8sj57H9gvZbJ/3Gi8tPMCVX5YTPW+HNaXRerydnDM7+fA/MUS9mcb200Ys+cfZuCCBqVPfJG27ertPMad/WMaM6CnEzlrFvhzHsp6RX5ZHM2/7BbK3z+O1lxZywKhUYeLsnpXMip1K7IzFfP9HkXZ/F55k6+JkoiOnkbhoExmqqxPT2T2snBXL1NgZLP7+DxylqIWZrS22dimVmHP2s3pOHFNjUlienm1f9bXbueMCh1dGMSrUn2qBA5kwKZ41x01gOsf+NW/zxtQIohLT2JLp2gxSdlY6bddpXmYBVAAAIABJREFUqxqQun0Ky3P71/D2G1OJiEokbUum/lYVcw77V88hbmoMKcvTyXbu2dK2y9HGCzk/seateKLfXMDGYwVgOszKqFGE+lcjcOAEJsWv4Xiht28ZdW0s5OTWxSRHRzItcRGb1B2Mhl85/TeHn9a8RXz0myzYeEx14VoWJtpp3Tmre0C5rrC1879H01mREkNM4gK+PHTJdUGt4zPKXaKc/auZEzeVmJTlpDs6wV7mjkv2y/Li0/ywbAbRU2KZtWofrmHlYOzZfpNv/9Xi6NEk74+lF/imc/tZ8/YbTI2IIjFtC6ohQuHJrSxOjiZyWiKLNmVQgIadusw8rSsma/tiEqNiSE7bTMbprcybv41cBZ0nR0wcWRXP7E2OBQ8Nv/KswvpZK62ewHfEE5c/mI6sIn72JuedEG8mpbFb21edYzR7O/Nee4mFB67YYu8Ox+YD7fHt2WxnWZ7j3ZHQdJY9K2cROzWWGYu/RzN8lzBGbPXswOHumI6wKn42m5TbRR5i1Scvqz3aTBzmqv8Wn/6BZTOimRI7i1X7cnDOVPY5r1QxTslU4th0za3WKU9thMfxDePtwQzdca/h1/Y+U2sDxf6SuJVeK+j5od5coILmtNEz/tnT6MYRE+f2rmRmzDRen/8lP6cNUa3gl82XVBbJ4W0kIALfKmy3EtGxDt1nHcVkDQTdGT2+J52HxrPkxzMUqLa1KMKmTrMQeocOYGz0dCIGB1InsC+PdfwXj46eQnzEEALrBJP4qxLpzJz6+GlaGLozKjqB6GeD8Q+KZFu+0uO2SbD76PH07DyU+CU/csZsJmt1GC0NXQiLfJ3Ysb1o6hfKzJ8d8lzlKZYc1o0w4BfyHNGJCbw6tD3N+s5D0dzmrNWEtTTQJSyS12PH0qupH6Ezf7aKfLUwUx9bsj9jVBsD3UfHkjAtjODGbRj3tbItxzFZnyRz07vEDW5Jjc6jSZmziC0nT/FJWAsMXUYwJTGJuDE98W80kA8ybUvGZWWl2XadtqqIWA9dbbJw5pMwWhi6MGJKIklxY+jp34iBH2R6ZrF9tmTz2ag2GLqPJjZhGmHBjWkz7msuWPT7RKmvbvMQQkN68WxkPFOf6UDd+8bxbV4mm96NY3DLGnQencKcRVs4VaDcWlf7VhanNG20kLNuBAa/EJ6LTiTh1aG0b9aXeUoH6/mV4r91mxMSGkKvZyOJn/oMHerex7hvlau/sjDRT+vi7AOnYkOdmjRo8yDDI6YT9+KjtKzfmbj0ArCc0fEZC9mfjaKNoTujYxOYFhZM4zbj+FrZlqOeoM2n+PjpFhi6jyI6IZpng/0JityGbVhptT/P239PGXXGp492uZ2yCfx7H36HE5fzyMtz/Z5JG8C99i06ljOfENbCQJcRU0hMimNMT38aDfwAZYhYctYxwuBHyHPRJCa8ytD2zeg77wgZZRxnbmZhIfvTZ2nesAPDXo0n7uWh9GjTkJoPvc0fyrBUc7RmLOLbsQZCkg5j0vMr90r0fdAZM3xt0XHEkyznBV/Rt2MxhNi2NPlmctwel9XbUtR2l8JXu49mfM/ODI1fwo9nClRbiPTHt2ezNce7MrzMWawOa4mhSxiRr8cytldT/EJn4it8W/tBa4xYu8m2ldK5C6foW8YaQkhS9n2p+lCTV5nGOphPfczTLQx0HxVNQvSzBPsHEWmbqNBss68YZyxhbLrFvzMlPsulWfe18HZua9Kbl3W+s3JXx+8zGEvgVhatoDn/oTcXeHioYqNW/C9F7G3dqBPDp77JG68Mpdt9tahq3aKjP748LJCPdxCBf6jAv4daTYPo2LEjHYLa0KhmHYJGLueIoqOVAVK7KoahS5wP+qrFjHJcr9N0DtgXqi3nP6Bfja4kHXKsXOeydEBtBn+UD8Z0IgKDmLbbvgfbcpblg/0ZtPQcFuskWJuqhqEscTxRbNxJZGBbJu9wLMUXcyi5K42Hr8Pr6QDjLqa07UCcbdkfKKKgQFlPMLIzMpC2k3c4V22LDyXTtfFw1uUpzXPtwXcdG9kfE0SbF7fYRBKQl76IGeuUB4tdE7L3HnwL+RlHOOW4/rCcZn6fWjy+3LYyVjZWOm3XbKv3SHK1CSz5GRxxGcfp+X2o9fhy70wKtf0xBLV5kS1WlWgFwKIZ6zh+Rccu+0RcNyiCHxxLbUVfMapJN2YeN4Pn7WsfvqVto5FdU9rSIe4AjlWuooIC27GeX1kDfBARPzhWSIv4alQTus08bp1MtevzxqKXVs3ZK6diQ70uJB9xrAGaOfneI/gPXkGORcdnjPuJCWrDi65OIH3RDNYdN7qJGmN6BIFB03ANq+UM9h/E0nP2C4G6Wu332KKjx9GrUZ4nbAK/cqV7qF69uvtvlUpUduzBt+STceSU8w6a5fR8+tR6HGWIGHdNoW2HOPudO2UIF2Adwl7Puugw8zTLuI+YoJaM+SbXKaAL1j5Ng16lEPhl4aGbVh0zPA10fefYIqkW+JpMFJ9yCjSlTLXA1x/riq/Wrmpg6JKTdkHpsoGyxNwSxrtxZySBbSfjCt+HSO7amOFK4PX80R0jrjhdksDX5KVczpc6/hlJjwgkaNpu+7NVFs4uH4z/oKXYhlQYpY1xJY5Nj7nVE4vnZ6XvtOouM2+H/+j5rt53Sp+52V8yt9JrBb15Rmcu8AZGmGb804kjxr1EPdCKsRtdcePy8kHOFfzS+5KnQfL5dhL4hwr86nSJ/pZde/awd/8vHD97xTkZWgV+3QAi0h2q1RVslY5yCBtn4M1bweO1+rPY+fBfASuH1GLAkouYM1PpWbMtT06OJDJS+Y0gvJsfTSdupdgqnOsSEJHunPzNJ+fSq9l4vnNVjenn6XQMimKvQ+U5vaWYwwsG06HH8ySv3E7GZftGa/NJ5vZqxnj3QpjeMYiovUan/eq2YD7FO70NjNmoqthZj2oy9BIeSqICMjYvIu75fgQHBmCoU5W+C/+05i4TK922a7TVaaPrwFGn40xBxmYWxT1Pv+BAAgx1qNp3oeMr1V8zp97pjWHMRmdfOL4sqU8c9Tn9oXgLE5qFkKSIW18C38O3lHq0bCw+vIDBHXrwfPJKtmdcdq526fqVlxAqZsuEZoQkHXHecteqz9Fm9V+ttI52q9M6j71sAHPGbHq0nsQ267Yn3z5jPvUOvQ1j8O2GDoH3F5mpPanZ9kkmW8dUJJER4XTza8rErcVuFwI2e9Ttdxf4uhydjdE6sAn8Uj1kW5DB5kVxPN8vmMAAA3Wq9mXhnxYoPsyCwR3o8XwyK7dn4BjC3hfSig2+mXlaZ2P4ghvDwg3P4VcKgV+sG6/ca9Jnp44Z7vnUCwa+BL4mEy+fchf4VkIaY13x1boBEbhCusu+ksa3l/X2BRLv8V7Mybm9aDb+O1UMMfHz9I4ERe11XqQ7y/Nqj/sYcYwvZz0aK/iavOwVaY1fpx3KgTmT1J41afvkZPs8FUlEeDf8mk7ENqQ87iZoxjhzyWPTR/xzs8XjgxcHZ93XzlvPdwv1xoDSZ2r7y8pNTyvozn9KqPA9F3jgKiH+Kal9xxHzH2/TyyP2eu7BL5UveRkkJ24ngX+owPd8yFbVBT4CryPIKKkcx87Aqzdoj6XQtXYnwhMSSUx0/CYxe8NxTKqVccdEZzqSTJeAV/nBufcbzMdS6NbqZbswUtlpPbRQkLmdD5PG069jR55I2cFF4xGSuwTwqnshpHRrxcvbip32q9ui7O9M7hrIZHUeZ1WuydBLeFjOsO6FdgQ+NoW0Tb+RU3SV1U/VuiaBX3LbfbTVAc5pq6t/rNtR1r1Au8DHmJK2id9yiri6+ilq+RT4Jo4kdyVw8g9eb5spyS4vf3BMQMqtdF8C37GKZO+/MyXYaCnIZPuHSYzv15GOT6Sw46LF6hOafuXlvw6Bq2zBsFBSfS6U+mkd7XalVx152aBsAXiH3i0msOX/afuMwrpr4GQ3/3eW6izzL46ldKV2p3ASnGMqkcSk2WxQti850zmcQ91+D4GvOz6dNWsclE7gW86s44V2gTw2JY1Nv+VQdHU1T9WyC3ylZEsBmds/JGl8Pzp2fIKUHRexeF5IlzDO1AZa/dWDYakFfhl4KHFJ0wdVsU1tm+3YFU8cPaRewbem8cXEq1/VAr90vuqM2Sr7ShrfnvY7/N5ZlnO8F3EkuQsBr6pjiJljKd1o9fI2r7ji7aeqMWK9TvUQ1VoCXzHQF6+yjHXzMVK61qZTeIJqnkokafYG65ZP7TZ7xjilvWUZm550vT9r133tvPV8t1jPrz19sKzcdLRCafzQ11zgRczTRlTxTyeOmI7O8Iq9LoGvP768bJATdwwBEfieXeE1QNSi0XXsDPA6g5a8T3nGL5TUE+rXmJgwWT96T3TkfsSQhv1ZrNwXtf/kbwjHv/ssMtRFOL5U/83fwsSAEBIPneejIQ3pv1jZBuQshHD/7szKMPsW+Fxm1VA/+qX96cpjzCfvqlKCy06rwE91vSbTuvrVdDTfXHFUdInlg2pek8AvU9udbXVsAXHU7+ofrHcymjLaZRyXlg+ipk+BD5dXDcWvXxrKwqrtx0h+3lUsJfSJ9gRkm/xS1a/J9PStMtmYz5aJAYQkHkLXrzzrUAf4stRXQlpHux203P562QBXvhlD815z+d+JufTS8pnLqxjq1480VydgzM/D5oaOFXwLeZ8+g19oKu7DStlBbr0C99jKoZrgFOGs8l9djm4N8vWhNALfbF3VbTr6G1xDZDmDaqoEvqro/C0TCQhJ5JDJ3c6SxpmqCLj8MUMbPcFy5x1FcBP41i1koaTan5OxbnUZY9+Drxuv3GrR90G3mOGRD9uWsdDUTOcdqaJvxzj34HumdjK5omx907C7lL7qjNlq+0oY3572OPzeWZZT4JvI/WgIDfsvtm5rseXLZ0O4P91nZTjb6ixPZ4woXVP01SiahKZan9Ww5in6ljE+9uA7y7MfOHkVK3dySxv/8vj0GT9CU0+42WmyTVTOOcNXm22r/65XAZdtbHpa7/35pvDW83O977z6rIzc9LRCmfxQNRd4IvOy0RX/ipW7BFqx95ISNwa4aQ+nwP+rLL7kaZB8vp0E7iiBbzaZyF8XRoNuKRwtMmF2ii24un8Z8TPWk+Gt6crGT1lV7XFrVvDhMpsmtMbwWDKbT+SSm7WbZeNC6BK1iyLVJONspuU8a0fcR+BzS9iTlcuFY+t5pVMDes456txe4Wxs3g4SBg8jft1BsvML+HNnCn2bhPJWxl+cXzuC+wKfY8meLHIvHGP9K51o0HMOR60LnL724Fu4uGEUzVo/zYL0U1w89yurxren1fNfeAh8C9nvPUzNPm+TWQSW7Pd5tF43pqf//+y9C1RV1dr/f36/8zeEvGMg7NRMIYXjDdQKjhppoqUpJ8UkNS9kmQoiVw0BSVH0aHkhr4mSaenpogavo8Dwrtm/UjFe/5ggQ0V4URgIL+yz9x6f/1gb9t5rb9gLUFQ6TMZgsPZea835zM/zzDm/a65nLW5yN/8cKSEvobJ5gmFrqx+uqzU4Kw1wSm232tbaVz2GOtHls3FEJ4YszuTm3XzOpYTwksqGJ4atNSKUb+iKDjC1W0/eWJ/JtaJb/LJ7Nn2fnca//kfZJ4b66pz8dPl8/FJbhq/Jqb5tbzn4KtpYQkb0WPyi9nE+v5SyG8eI93HCe1U2inFlWYdc4CvWJ6chrQoq8zO02+Ks6o+SDR0cGR6xl3PXi7l94XPm9HNm9CfX+LdSzOiKODC1Gz3fWE/mtSJu/bKb2X2fZdq/7pivzN89TGBPFSPjUrlSXEzuiW3M8hxE6PFK8+P01pgmOOkOhjx+FTlS35jTEIGvI3/jCDoNWUzmzbvkn0sh5CUVNk8MY22ujpKMaMb6RbHvfD6lZTc4Fu+Dk/cqsrXmdtbXz8x8oLvFLj9n3GZ9xm+3Sym89A2xvipsDQ/ZSjn6bk6MS8qiqCCL1LXT8bBvjYf+IVul8cqsFuUYlI1tlmdJzwidDnfDaVwSWUUFZKWuZbqHPa1rnlmwyuR/FexuYKwa+6jcPqVxp7bximJXd3svk592ZcqWk+QWF5K1/30GdPZipTTwWv4o9BFpVFOfDsfNaRxJWUUUZKWydroH9q09aj1ka5XXv5X7r6U5dw8H0lM1krjUKxQX53Ji2yw8B4VS3aUs7ibILmqkccJsjGtU39R3MrZFLWO/lYndMM4YfSeru9G8jXdPleJcYV+tsRUaxe1+5z+U5gILT9ay0TT+qesZe/cHdKPnpCRO5xeSd2oH73i0x8ZnAzc09cVSOWe2RbFsf3ZtnWJhnvj4aAk0K4E/t9tf+ctf/lL9+3+dmJ1qygkv2uKLrSqQNFn6yn2heqQCXxrALpA81wcXezts2nfHa2YS50rMV8aNAl/SVUXHSPT3wLmNDU8+1Qff0P3k1NnmKnK+WsKEgSratmqFnZMHARvPV68U6oo4luiPh3MbbJ58ij6+oeyvKcQwYErs5NvoijmeOJH+Xex4ws6Rvn4fknHb3E7pHPXPqxmhsuWvrd2IOFHIyYTXcGlvg23nPoyJ+oJNAV1wCz+jd42hfOPgrDTAKbZdoa0WQWCoU/q65GQCr7m0x8a2M33GRPHFpgC6uIVbnGH4qKP4eCIT+3fB7gk7HPv68WHGbf0dDSWfGOoztlE2AUli5ufVI1DZ/pXWbhGcKDGtQhtqVbKxKucrlkwYiKptK1rZOeERsJHzhqVga3GlMMBLMkOpPoNNhr9KxxrabTjW7K9kQ6f+TA7yo7+jHbb2vXktOpV8/fVYiWLM6IqPkzixP13snsDOsS9+H2ZQHYbm7MovJDPXxwV7Oxvad/diZtI5qruV+XHS6/Cqn0GQUpQs41et0D9BecxpiMDXAyfhNRfa29jSuc8Yor7YREAXN8LPqKEqh6+WTGCgqi2tWtnh5BHAxhoHN6afmbGXUqpvpBEz1o3OT9ph33s0wbOH08mQg4+arK1T6NvZFlv75xi1KIUNbxneoqM0XlnWonSs/K5f7fPUWVuZ0rcztrb2PDdqESkb3jKt4Ftlomx3Q2LV2EflAl9x3KltuyHujWWZ9XcdRccS8fdwpo3NkzzVx5fQ/Tm103OkYhX7iBSoWWyd0pfOtrbYPzeKRSkbeKuuFXyrvBrX16GcC8lz8XGxx86mPd29ZpJ0rkQ//im32WKM03ephvZNpE6Gr62KQCsTu3LdjeRtFPhKsauwr9bYKjmyEdzue/6ThgqFuUAeprVslI9/9Yy9RcdZPWkATm1ssXfzIy5qHA7Pr9D/01Gl/gVFbPG1RRWYVnesy+0T24+UQLMS+I+05aIyQUAQeDgEak0yD6caUWrDCJil6DTsFHHUwyYg+kg1YV0RuyaPY53+Ha4PG7ooXxBoWQSEwG9Z/hatFQQePgEhXh4+40bUIAR+I2A9qkNFH9GT1hXtZvK4ddX/o+FRsRf1CAIthIAQ+C3E0aKZgsAjI6C5wGcxn3D87iOrUVSkQEBzcQ+xmzJN/xVV4Vix6xEREH1ED1pXnMWZy4b/2fGI2ItqBIEWQkAI/BbiaNFMQUAQEAQEAUFAEBAEBIGWQUAI/JbhZ9FKQUAQEAQEAUFAEBAEBIEWQkAI/BbiaNFMQUAQEAQEAUFAEBAEBIGWQUAI/JbhZ9FKQUAQEAQEAUFAEBAEBIEWQkAI/BbiaNFMQUAQEAQEAUFAEBAEBIGWQUAI/JbhZ9FKQUAQEAQEAUFAEBAEBIEWQkAI/BbiaNFMQUAQEAQEAUFAEBAEBIGWQaCFC3wt5XfuUK5tGc4WrRQEBIEmJKCr5G5hMfc0TVimKEoQEAQEAUFAEGgCAs1H4OuKOf3JPF5/sT9/8/BhSsy3/KFughbWVYTuDqc3zuB55ydp3dqGJzr1ZfLHZymp69iH+V3F18wZMIO9dx5mJQ+n7MrUIAYH7Hw4hTey1LJL37E3M5eHcp1WmUrQ4AB23tQ10qrHfHgzs/uh+kgBtTr/NGmZVyjVack7kcHv5QoHN3hXCWfXBzDQwQ5bOxtadXBlfEImxTUhos3NZG/a5QaX9vgPvEt64jzWZpY+elOaWZw+egCNqFE+X2hzydybxuUmiedG2GB2aBmXvttLZu5DGXnNajL/oCb/dBqZV0rRafM4kfE7jxWDuXHikyDQbAg0G4H/W4I39s++Tvy+H8j4+p8E9OmIe+hxKpoclZa8nRNwUvmSkHkTNVXcTI/lJcfuvP11EY9Uxt3bxevtRrG58JHW2iREK770x374uiYp68EK0ZKzyovOk/c/hFgB/qz/Ur5Z2f2QfWQtgLS/s3rk80x8x4/hPr78/eVITlRZO7jh35elBvKM48ssP1GIBjW3jn3ICEcVU768rR8/1CcTeWvxtw0v8HEfWXaAt3pPYs/txzAONas4fdyOqKd++XyhPkniW4v59nHOHdocVnl1ZvL+pp+llUhof1/NyOcn8o7fcHx8/87LkSdogm6tVKXYJwj8KQk0G4E/q6sL7/9wzwixMmMevXrN52hT91z1WSLcOzN2e75MzGvJXvkiHYat5eqjXIyQD9jGlv85NoTAb+Z+albC6TEJfF0peVdu6lf31MV55Jc0RedWczzYFae3D1JpDAEt2Qkv4jg+mcehkY1m3OeGruA4ew9n87BumCqa1aziVNHSx7+zuc0Xj0ng60rzuHJTWrNXU5yXT5N068fvXWGBINDkBJqJwNeRvOZLsmS5rJoLsXh2nU2qaRZtksZrLi3Ds+PrJFukxWhzv2F1wjfkaEH983bC1mZwx7CgpbnI7qgEDhvSNDS3OLNnDR+EBBEak0RajuEGoZqft4exNr2QgrN7WBUVxtL1B8kqM5muuXWK5OXhLFqyjq9+SmKc2Qq+hpsnk1kREULEss18/4dC4yuucmRzHGHBi4jZdJhsWR1VeUfZtiyMhREr2H26ABlWkyHS8Khv539xKXMH8eHhxKz/it8MjVb/zPawtWQYPqPh4u4oEg7f1F8YmQv8Cq4e2UxcWDCLYjZxWGaM5tYZ9qz5gJCgUGKS0jCiMrOk5kNVHke3LSNsYQQrdp+mwGB4jS3phQWc3bOKqLClrD+YRRkaLiSHMtXbGVvX0QTOjWLPZemkKvKObmNZ2EIiVuzmtKkgo3/y09ey4N0NnKtP1VgKEGs2Sk2wts9gf8F1jn36IeGhS0lKz0OtK+XywfVEh4SwNCmdXNnFrObmSZJXRBASsYzN3/8hE5PWWZshtbTbasyanVXzQUvBmRRWRoYQHr+dzHyTYVbtMrSxQT6qqNMPSrFScfUIm+PCCF4Uw6bD2cjCnbrjvSF9sRGxacSk4deYAbT1TiTbEJ/SvqpyKmquHwzjh/EUi4267ZUOaohvqzi/LZSE76r7YXXR5ZxKimLHL2pQ9HPdfjXYa+jqSn6waIrxY9X5bYQmfIdhiJR2lJ9KImrHL/pjrMaNIU7/+xzbQhP4zrwAkqJ2IDWrWfUtJMwNjJ2afvFflzLZER9OeMx6vvrtjmxxSWqa9fHa6nxRU65+fDb2vXzS1y7g3Q3n6rxY0xacIWVlJCHh8WzPzJetelubdxT6kOYCyaFT8Xa2xXV0IHOj9nC5onrOSC+U26Hh1pk9rPkghKDQGJLScmTpNArxXt9YWmucqQlFxfg3hqvYEARaBIFmIvAtWVdwZvFAnPxSmnxFrPJfATzlHslZBWFnEK+5BoFfeYiZKk9iL2hAd53P/J9BNWgyC2NiiZzhhbPjaD6Rrgyo4Ev/jnT39MZz6JsER4UwsV9Hnp51SC9IdPlfMLWnIwMmhbD0g/eZMORp2rU2pOhoyU3xp4dqEP7BS4iYOZSuDt4s/6kOka8rYN9kFQ6eUwiLiWbehL5081mLpG2113bxxjMqXpgaRnTYm3g4uxP8Q925tVI7O7TtTK/nJxG0OJJ3RvTAfmAkmZJ6Mky8JggcmqnCM/aC/oLBwAh0FOybjMrBkylhMUTPm0Dfbj6svaxBd/0z/J9RMWjyQmJiI5nh5Yzj6E/0F1GWHkd7jV1vPIPqhamERYfxpocz7sE/oLdcsqVjdzy9PRn6ZjBRIRPp1/FpZh0qIefwR0SO7UGbgdOJX7mJtGtqru16g2dULzA1LJqwNz1wdg+mGoHkH3temD4br4ETiNryI9frW9SVc1CyUWmfVEaHbngO88Z3ZhiLg8bi2sEVn5H9+duI6SyMCmKcawc8Yn7Rs9XmpuDfQ8Ug/2CWRMxkaFcHvJf/RKUC61o85XYrxqzlmTryv5hKL9ULTI+IZpG/B116zeKbQh3W7aqJlwb7qKyWH3KvWY8VXcE+Jqsc8JwSRkz0PCb07YbP2svVrKzGez19sTGxaYFI+8dO/FRt6OEbytb0q5QZxoma40x9w+JElPqn9X5kXoqOvPU+dB6zlQJDvRWpzO75Mh9fy1UYm6z71WCv1NUb1Wdlhuny1uPTeQxbTUaROrsnL3+cV3/c2A9n3R/XWO/TmTFbC4zityJ1Nj1f/pi8f9czNjzivtUoRvq+35bOvZ5nUtBiIt8ZQQ/7gUTqB1mleADF+ULev/XbLzB9thcDJ0Sx5cfrtZ5H0pfVS8UL0yOIXuSPR5dezPqmUIpIhXlHoQ9pczj8USRje7Rh4PR4Vm5K41rZl/jby+3I5dpn/jyjGsTkhTHERs7Ay9mR0Z/koDRv3N9cUFbP3CwLVrEpCLQQAs1Q4JdzcdskXHv6sf2/5UtkTeOR0p1jafP8CrIVhJ18wtPXKhf46CjNvsg1g+7W5bFueDte3S7dEqgeEN2DjhpX/yu/norTkOVc1qo5FdqHZ2ceND6Mx93tjDGs4KuPEezam/kZhrXJKn6LG0yXSftqP/yrPs7C3v2INC4/V1JWJl2xqMkMcsV90YmafHQdN7ePxXnMVm4ZxIAMo9TOToPiuGjArL3Kxy87M3ZHQSMEvprjC3vTL9K0alRZVla9gqSo/B5cAAAgAElEQVQrJfviNePqsy5vHcPbvYoelcwOaVOdGYSr+yJO1KRz6m5uZ6zzGLZKhksTWEd3go4aVr4q+XqqE0OWX0aLRfqHOpMgV3cWmQpi+1hnxmy9hU7vn/a0Vk1gS0NzsWQTqZKNSvv09ncawOJzNXd6dLf55JU2DI79zbiaVbzVl/Zjd1KKmmPBrvSen2Fcpa76LY7BXSaxr0SBtQVP8ws0pZi1OFF9hnD3XryTZrgoLCFz0zL2Xb6nYJdB4DfQR3X5QSFW1McX0rtfpOluS2UZ+nBXjHelvijpi4bHpgUh/Uf19XQ+fn80bvat6eA6igVbzxr7tWH8qH2eUv9suG+1V9cw1MGPlOLqGqp+XMBzXglkaxX8bNWvagz26q/l75eL9iprhjrgZzKKBc95kZD9v/XHjSTwc//N1TVDcfBLobpZVfy44Dm8ErL53/rGhkfdtxrDSBo/Og0izjTIcvXjl3Eeu4MCnXI8KM4XsnFJ39fbt0Y1YYuVFFM1Z8Ld6fVOWvWCCVCSuYll+y6D4rxTTx+yTNGRbLKwQ1eazUXTZEneuuG0e3W7fq6yNm/UO5ZanQsU4r92ZxTfCAL/8QSal8DXFXI0Zjg9Bsxm7xVTWkBTeqHi83/QYcBSfjWI2joKN5vwpP1mAl/6oozs1E1ETnsFD1cXVB1a47PhRo3At2f4ulzjKlRVWiDdPGO5WPUHa4aqmHHQcGUAyHIqtVdXM7TbbL6T7db8tJj+7qGcqnW3oYoL68fS78VpxCWnk3235mpFm0OiV1t6vz6f4OBg/W9QwBAcus7hSB04a7WT6lzinnN/aITAh6oL6xnb70WmxSWTnn3XfPWoLJvUTZFMe8UDVxcVHVr7sOGG5dWGlpxEL9r2fp35NXYHBwUwxKErcyTD5ZOZ3l9VpAV2wzP2IhoLga/NScSrbW9en1/d/uDgIAKGONB1zhGqai7AXIIyjRcddbjf/Ctj3f9WsLFCYV9d9pew49V2jNpcaIyTsuRxtPPdQpH2KquHdmO2eSCwuL87oafUyqzllhvtNrC2FrPyk6QVxX8yTDUDeZjqj6jHrsb4yHAhXMsP1mKl6gLrx/bjxWlxJKdnYwh3FONdEidW+qKh71urzxyJ8qfKfE58GszQLu3xjDmjjytDv6p1oqK99fQjeWHabBJedGLKfukiTM3ZyH54Lv21JhWvbj9b9av+2qz6gXnjzbr74lI9djhN2a8XkeqzkfTzXMqvVcrxLI8bbXYCLzpNobpZZ4ns58nSX6uaX9+SfNFQRrX6Iejb2XMuP1QojNcVyvOFnJt+u6MLQZmyycMsXq7xz2EWc0/NfuV5p54+VJfAr8OOsuxUNkVO4xUPV1xUHWjts0Ffe93zxoPMBXrHWJmb5UDEtiDQMgg0I4FfwrFoL1xe/pAThmTQh+ADaXWgV5dpfGP54L/uFhfPZlOslvSkxYQnF/i66+x72w3XkQtJOvwrBZXlpIxvV6/Av1B5iWWDXZkvf2pYJvA1F+MY5DLP7KFibVY8Q559jx/qEOfSLc6ynHQ+jZ3NK/3781p8BkX/ziJ+cHsGBEQTExNj/I1NOKBP37HEWaudaLn2z2E8E5hWh6iutJKiU12qriyH9E9jmf1Kf/q/Fk9GkQ7d9X287ebKyIVJHP61gMryFMa3q1vgZ8UPpv2AAKJldsfEJnBAyjuqNUkaBL6ULmS+gi8xG9x+AAHRpvbHxMSScEBK6ag9YVkyqfXZWPe/sW5jlcK+uuxXEPiai8QNcmGePE60WcQPeZb3agKhLtbW7dbnXSjErPmZUhwOdq3j4fb67DJyMlxQWPdRtcA3F9/1xoqujJz0T4md/Qr9+79GfEYROomL1Xiv7WvDxXZ1pl1DY9Ocj7VPxfsm00U1mzT99ZyVN0wp2ltdcoN8Kz0PEzeIrjMPUS75ZYg7i06q9SkK1sYmq361EPj1+sEaACkvXRrDus7kULlk3xDcF51E3Zi40R/blZmHyvVlDXFfxEm1ttn1rUYxqtUvai6inwkkrUIhfuuZL8zGxDrqMHOTxNVy7qk5QHneUe5D0gW22Vt0atmh4/q+t3FzHcnCpMP8WlBJecp42tUIfMmE2vGuNM7WNZbKxhnFudmMiPggCLQIAs1G4N/YF4CbdwwnDZkBDwt/yX6mdOnFvAxzhV91Ohy3TuPZVaRDn1bjnWjKFa88xIyaHHz9ikfX6XxrfOHPHbaPaVu/wNfcYdcER3w3S6kiNT8ygU/xTsY9NYrNslya0gMBOL+gnE6kL6k0jTkunsT89j98PtEB78QrZqvoGk3d+Ui1Bf49vp3RnaGrc6Dya6Y6eZOof7ZAqqWSQzPqysE3NMbwt5S0OS54xvy/XF09lK7Tv8WEajtj2tYl8KHk84k4eCdyRW6qRpLvNekf+tv4BnKyQV0S+Imy12SWfM5EB28SzQuiGkHtCctgtdW/sklLyUalfWaTsb4iBYFPMTvHPcUoeZyUHiDA+QVW1MorM7D+rbb5MruVY9bi1Lu7meDwCkmyuyzq0hLKdfXYJauvukQFH9W60NI2KlZK0+bg4hnDb5oShXiv7WuTwG9cfWaEND+zYlg/3jlkPlBJK9buHSbxRYVpgcDsPP0HJXstj1bwrSSmf4lmYM+5HLm8mmEu7/FDJSj62apfTfbm6h6Ai2S+5heiB/Zk7pHLrB7mwnuSUfXFs1ncaPgleiA95x7h8uphuLz3g/6OSPPqW41kZNa+ah/f+3YG3YeuJkerFA/1zBfycuXblmGk/3yX3RMceCXphmnuUZdSUq5Ded5R6kNS+r50B0L2mkxLO/R3/boy3TRZcmf7GNrKBL7JXFO8N87fpnGmSroLbnVuNtUktgSBlkKg2Qj8d92GsfJiBWq12vgrCVODpCs/s42oZfvN31xxX16q4GRkPzoOmM+h69W5L7rCDCIGd6J3UHXes1oS+07jSMoqoiArlbXTPbBv7aF/yFaXv5ERnYawOPMmd/PPkRLyEiqbJxi2NlcxReeCRkfR/gC69ZxE0ul8CvNOseMdD9rb1Ahe3W32Tn4a1ylbOJlbTGHWft4f0BmvlZdqbr3LGluSQfRYP6L2nSe/tIwbx+LxcfJmVbaWu4cD6akaSVzqFYqLczmxbRaeg0I5XsfdW0ngd3AcTsTec1wvvs2Fz+fQz3k0n1yTXiV0mnA3J8YlZVFUkEXq2ul42LfGo9ZDtiVkRI/FL2of5/NLKbtxjHgfJ7xXXSZ/4wg6DVlM5s275J9LIeQlFTZPDGOtMRdA1qa7hwnsqWJkXCpXiovJPbGNWZ6DCJUMt5w4MA3qGnTkf/wSbYevIUffxrscDuyJamQcqVeKKc49wbZZngwKPU5lLWEp1V/OmW1RLNufXZuztFtet5KNSvvkZeibrCTwddzeO5mnXaew5WQuxYVZ7H9/AJ29VnJJY411tgxkzaasTuWYtThVV8SBqd3o+cZ6Mq8VceuX3czu+yzT/vU/CnZZcNIXqeQjS+GgU4yVkoxoxvpFse98PqVlNzgW74OT9yr9czTW492yDjAJfOX6lGOiivOxg+jkPoevcmty57S3ODjblU6jkpD+54/hwtmCrP6jdXsb4VupJOl1v31783bgCHrMOKh/lkPRz1b9esdob67uQbjojeJsRF96vx3IiB4zOKh/5EQpnmvHjfpsBH17v03giB7MqC4AmlXfqo+RhdelftjBkeERezl3vZjbFz5nTj9nRn9yTb94YT0e6pkvZP3bbIyyqL76o46iA1Pp1vMN1mdeo+jWL+ye3Zdnp/0LFOcdpT4kLb/n8/FLbRm+Jqc65VFuk1SxLp+NIzoxZHEmN+/mcy4lhJdUNjwxbK30FICVeSO7kf42jTNqxblZGurPsC1qGfvNXn9VJzDxpSDwH0GgmQh8Nc/9P3/hL38x//0/T/6Dz2sW2ou2+GKrCtTfAn9g8hWX2DHtb3Rop8LNox/dO3akz5uf8KthqVmdxdYpfelsa4v9c6NYlLKBtwxv0aGEkwmv4dLeBtvOfRgT9QWbArrgFn6mHoEvDXhFHF89iQFObbC1d8MvLopxDs+z4vfqZWtd0TES/T1wbmPDk0/1wTd0Pzl1pudUkfPVEiYMVNG2VSvsnDwI2Hi+ZqW8nAvJc/FxscfOpj3dvWaSdK7EeKEkZycJkU79JxPk1x9HO1vse79GdGp+zeq/mqytU+jb2RZb++cYtSiFDW/VvYJflfMVSyYMRNW2Fa3snPAI2Mh5iWXJSRJec6G9jS2d+4wh6otNBHRxI/xMrYcK9GaVX0hmro8L9nY2tO/uxcykc5RIV3iWE4eZwJde97maESpb/trajYgTaii/QPJcH1zs7bBp3x2vmUmcqy6oVl42FLHF1xZVYJrstXEyShZ1W7VRmj8abL+SwK+Ok2OJ/ng4t8Hmyafo4xvK/ppAsMpaZrJ+08xupZi1PBF0xcdJnNifLnZPYOfYF78PM6rfZqUrwppdjfNRSW0/KMVKVQ5fLZnAQFVbWrWyw8kjgI36AJNstxbv9YgTpfrqiwnNVb58/3kc2znynOdg+nfvQKe+s/jsSnVcKwl86/ZCg32rd5maEyGu2Nk64b/P8D+4lf1sza8Ge/XX3Q/CRbruOBGCq50tTv6ylwM0Jm7UJwhxtcPWyR9js5pb31JkZNGfpH7YqT+Tg/zo72iHrX1vXotOJd94p9Ja/NYzX8j7t3zbonrjR10xxxMn0r+LHU/YOdLX70Myav5pg/V5p54+hJqfV49AZftXWrtFcKJEeouO9MC0YVlOmgISeM2lPTa2nekzJoovNgXQxS1cb5ZSvDd8LDUJfI3i3AwUbcHXVkWglEcnfgSBFkCgmQj8x0FaR1neLxw7epxfckvMUloehzWPo06zif1xGNAs6tRRtGsy49b90SJjoFm44E9qRNXt3znzYwbHfs6l1CjY/qSNaZDZoq80CJP8oIaIb/nxYlsQEAQEgSYi0IIFfhMR/BMXIwR+9SrZ7snjWPdHi1Bof+JoFaY/dgK6IkRfaaQXhMBvJDBxuCAgCDQVASHwm4rkn7AczYXPiPnkOHf/hLY3mcm6YrLOXDb+34ImK1cUJAj8pxEQfaXxHtVc4LOYTzjeogfZxmMTZwgCgsCDExAC/8EZihIEAUFAEBAEBAFBQBAQBASBZkNACPxm4wphiCAgCAgCgoAgIAgIAoKAIPDgBITAf3CGogRBQBAQBAQBQUAQEAQEAUGg2RAQAr/ZuEIYIggIAoKAICAICAKCgCAgCDw4ASHwH5yhKEEQEAQEAUFAEBAEBAFBQBBoNgSEwG82rhCGCAKCgCAgCAgCgoAgIAgIAg9OQAj8B2coShAEBAFBQBAQBAQBQUAQEASaDYEWLPB1VN4tpPieptk4QxgiCAgCgoAgIAgIAoKAICAIPCiBZiXw72UdIO5tX57v587AYf4s2Z9NxYO2sI7zS86uJ2CgA3a2dti06oDr+AQyi3X6I7W5mexNu1zHWS3gq7vpJM5bS2ZpM2lrZSpBgwPYeVPyjZbczL2kXS5vJsY1zIzK1CAGB+xs2MENOUqbS+beNB4UQ9PEeRmXvttLZu4j+i/A8nioh0PF13MYMGMvdxrCtM5jrMSb1EfeX0OG+MdFdVITXwoCgoAgIAg0DwLNRuDrbuzCT/UMr4Rt5dCPP3Lok3cZ/JQrC9LvNS2pslQCn3Hk5eUnKNSA+tYxPhzhiGrKl9zWgfpkIm8t/rZp6/yTlFZ24C16T9qj59AsTDb7N+9qTia+xeJvC5uFaQ01ouJLf+yHr2vo4fUfpz5J4luL+baw+oK0/hPqPqJJ4lybwyqvzkze/zAuw+uwWx4P9XC4t+t12o3azP1jqjveyg4E4Oq3i1sPhr+OxomvBAFBQBAQBASBpiPQbAQ+VHIj9xamhJkqMub1oveik03XWkB9PBhXp7c5WGkqVpudwIuO40mWFH6L/dFRcHwvh7PVzYeAXNA1H6saZUmTC/xG1f6QD36cAr+epj24wK+rAqmPfM6h35tRH6nLTPGdICAICAKCQIsn0IwEvqUvitnn78zzy5s2XUbzawwD2nqTmG26lIAqyiuq0wzUP28nbG2GpTHVn9U/sz1sLemFBZzds4qosKWsP5hFmfFoDTdPJrMiIoSIZZv5/g/ZVYTxGMNGFXlHt7EsbCERK3ZzukBmT8VVjmyOIyx4ETGbDpNtqsBwMlXntxGa8B367JWab8tPJRG14xdAw60ze1jzQQhBoTEkpeUgT2zRFpwhZWUkIeHxbM/Mp0p/vpqft4exNuMO+ssczS3O7FnDByFBhMYkkZYjL8FoRh0bNeWkF5KfvpYF727gnF4PWW+v5tYZ9qz5gJCgUGKS0jBWZSbwTfZprx/kw/ff5d13Tb/vhSXzm4TQqt0Guwq4fuxTPgwPZWlSOnlqHaWXD7I+OoSQpUmk51bT0DdMc5OTySuICIlg2ebv+UPuzgb4SCrDXOAr+8UcZgVXj2wmLiyYRTGbOGwIgpoYzLhjuBitIjdjK3GhwSyK/ie7921kwfhRLEk9rY9V03EaLu6OIuHwTb1/LeO8Ku8o25aFsTBiBbtPF9RcaBuYFVJwdg+rosJYuv4gWVI8ai6QHDoVb2dbXEcHMjdqD5cl/lV5HN22jLCFEazYfRp5WBvbV3WebaEJfGcevCRF7eAXteTCBsRDLQ4abp1KZnn4Ipas+4qfksbJVvCVudfXH6rttta3FRjpT7zHiQ0LiPosS7Z4YSQhNgQBQUAQEAQEgYdCoJkJfDXXzxziwOfbWPnuUHr1f49vmvpeuPYPdvqpaNPDl9Ct6VwtMwilar7mgsyCuSQ4O3bH09uToW8GExUykX4dn2bWIUnxaMlN8aeHahD+wUuImDmUrg7eLP9JrgoN5Wm5tusNnlG9wNSwaMLe9MDZPZgfpNx3XQH7Jqtw8JxCWEw08yb0pZvP2mrxZDhdOixvPT6dx7C1wGB/Bamze/Lyx9e4/pk/z6gGMXlhDLGRM/BydmT0Jzn6s3X5XzC1l4oXpkcQvcgfjy69mPWNlPZSwZf+9gxfl4tOd53P/J9BNWgyC2NiiZzhhbPjaD7JaUiudXU5L0yfjdfACURt+ZHrWuvt1V3/DP9nVAyavJCY2EhmeDnjOPoT9FWZCXyZfbeP8+mqBBISpN943vGyx+HVrfzxbyW7pfM70M1zGN6+MwlbHMRY1w64+oyk/99GMH1hFEHjXOngEcMvklDV5pLi3wPVIH+Cl0Qwc2hXHLyXo3dnA30kATfFk07RLzLXSt6lYN9kVA6eTAmLIXreBPp282GtpKDNmGi5luxHV6chBIRFEznrJbradScwtdTiOKn0Sg7NVOEZe0EvNE12gfbaLt54RsULU8OIDnsTD2d3gvXBKDHrSHdPbzyHvklwVAgT+3Xk6VmHKNPmcPijSMb2aMPA6fGs3JTGNfU1dr3xDKoXphIWHcabHs64B/9ArUc6dHms9+nMmK0F1ReTEqfU2fR8+WOu5TYwHsw46Mj/Yio9HQcwKWQpH7w/gSFPt6O1PkVHmXtD+oNy31ZgpHdqMZ+O70Sv97+vuZA297T4JAgIAoKAICAIPAwCzUzg3+FAsA8+w4fwnKoXvjFp5MkWtpsMgPo66R+/z2g3e1p3cGXUgq2crXnIVi58atWnF/juBB2tWeWmkq+nOjFk+WW06mMEu/ZmfoZhub2K3+IG02XSPkosC1JnEuTqzqITNbnLuptsH+vMmK230KmPs7B3PyKrl731wqysrI6UAO1V1gx1wC+luLr0qh9Z8JwXCdladKXZXLxmuLDQkbduOO1e3S4lKHEm3J1e76QZRVdJ5iaW7ZPuksgENDpKsy9iKiKPdcPb8er2hjyyKJXTntaqCWy5WnNBoNReXSnZF69htDZvHcPbvYq+KjMRZ7JPjrPqtwSGuvixU/+gp5Ld0vmdGLD4XM3dDB23P3mFNoNj+c1wc6J4K77tx7KzFNTHgnHtPR+TO38jbnAXJu0rkfK8GuYjM4GPgl/kLZK21Rxf2Jt+kecweL6yrKx6W85Ee5XEv6t461+GCKvixCI3+iw6iVp+nL54awJfTWaQK+6LTtQ80K7j5vaxOI/Zyi2dxKwj7kFHMdwwqPx6Kk5DlnNZcq1Fio46MwhX90WYwno7Y53HsLXWRbqWq2uG4uCXQnX0VvHjgufwSshG29B4kLdPfYrQPs8y82Cx8YLh7vYxxhX8B+0PKPbtehhZulZ8FgQEAUFAEBAEHgGBZibwZS2u+J0tE55lUOx52ZdNvVlJ/olPCR7ahfaeMZyplK+41lGXXFTod1eRFtgNz9iLVF1dzdBus/nOoFSlLIafFtPfPZRTBpVWU6Q2JxGvtr15fX4wwcHSbxABQxzoOucIVVRxYf1Y+r04jbjkdLLvWls115Kd8CJOU/brxbr6bCT9PJfya80FUVl2Kpsip/GKhysuqg609tkgLdXyz2EqZsgfQDA20ySgq+8JlJGduonIaa/g4eqCqkNrfDbcMB5tfaNa8LgEZRpFu3J7gbJsUjdFMu0VD1xdVHRo7cOGGzqLVWiTfca6K38i7gVX/D/PNwo7sGa36XzDPY+SHa8aRaC+zLJkxrXzZUuRlqurh9Jt9nfGNkhpTz8t7o976CnUDfZR7Xiq0y/GBpk2qi6sZ2y/F5kWl0x69l2MUSCPQd111r/clclfGC68yvlhrgt9pQsD+XH6Yq0IfG0OiV5t6f36/JpYDCYoYAgOXedwpKo2s6q0QLp5xnJRf5dD/pCtlpxEL9r2fp35+pgOJjgogCEOXZlzRJb2VNNE/XMvTlPYLy3vq88S2c+TpabgrT8eZO3T/rGGoaoZZs/VWObg18m9gf1Bq9i362FkcqnYEgQEAUFAEBAEHhmB5ivwpbXr72bx9OBlDx9G8T4md1ExO61KllJRR7UyUVG91yDwL1B5MY5BLvM4KtMy2qx4hjz7Hj/IvpPOk74f3H4AAdExxMQYfmNJOHC5Jk9XR1lOOp/GzuaV/v15LT6DIoMqlZmlkersOpND5Rouxg3BXVq5Rcf1fW/j5jqShUmH+bWgkvKU8bSTBL7mInGDXZkvN9JYnkyo6K6z7203XEcuJOnwrxRUlpMyvl0jBH5Nqk9N2UrtVV/fx9turoxcmMThXwuoLE9hfLuGCPxyTn8wmN7T/4UxS0nRbln7auyyLvAlnoNwmXdUllahJSt+CM++90PNdw3zkemOkIJfjD4w39CV5ZD+aSyzX+lP/9fiyZCCwCwGdRT/10IGqNx5dcZ7BP7DE1V3P3ZId07MjpPKtSbws4gf3J4BAdGyWIwhNuEAlzW1mRkE/oU6BH5W/GDaDwgg2hjTMcTEJnBAn5xv3jZ9LA7qysxD5UhxPMR9ESfVoGtoPMjap7m0jMGu8836nkngK3BvYH/Q9zOrfbseRhbNFh8FAUFAEBAEBIFHQaDZCPx7lw/y1dm7spVYKP3CH0evVU3IQcPPK4bR751DxhQVfeHSCqJ7ByZ9UXHfAl9TvJNxT41isywdofRAAM4vrCDbuPxa05SSz5no4E3iFfkODRr5R0OrS9OY4+JJjP4JUsOXNX81vxA9sCdzj1xm9TAX3vuhErRXWT20K9O/Nb1e9M72MbSVBD532T3BgVeSbpg4q0spKZeuHkxC5d/SimXX6ZiKuMP2MW3vW+Bjtb3VK+Vdp3+L0do72xnTtn6BX3Y8HA+3QA7Jrnz0K61W7Ta1z3CtZF3gQ/HOcTw1arPsdYilHAhw5oUV2abVdIM7FHxkFPiKfjEUZO1vKWlzXPCM+c1CuJdzLnE8Y97/iC3rVrD8o885dbPmdlHl10x18ibR+NxEJYdm1JWDX8LnEx3wTrxi1i6NPhhrM7MU+Imy12SWfD4RB+9EzMNaY1auqYUafokeSM+5R7i8ehgu7/1AJY2IB5nA584uJjj6mvU9o8D/94P3BxT7dj2MTA0WW4KAICAICAKCwCMj0EwEvpYr28ah6uJF8K5TXCsu4cbZ7bzt5sDwf1a/Raf8zDailu3H7OU394Gp6nwsgzq5M+er3Jr8Zi23Ds7GtdMoknK19y/wdbfZO/lpXKds4WRuMYVZ+3l/QGe8Vl6q4+0Zdzkc2BPVyDhSrxRTnHuCbbM8GRR6nMqSDKLH+hG17zz5pWXcOBaPj5M3q2pdJUiNV3M2oi+93w5kRI8ZHJRyyXX5bBzRiSGLM7l5N59zKSG8pLLhiWFr9Q9vFh2YSreeb7A+8xpFt35h9+y+PDvtX2YCX5O/kRGdhrA48yZ388+REvISKpsnGLY2t5p4+Rm2RS1jf53OqC14pAuLutubyf+3cQSdhiwm8+Zd8s+lEPKSCpsnhrE213K12lQuJekE9/sb76UWolar9b+SIFW223R+QwS+7vZeJj/typQtJ8ktLiRr//sM6OzFyksaaISPjAJf0S+WgVxCRvRY/KL2cT6/lLIbx4j3ccJ7Vba5wNf+wYaRDrj4ziF8aTyJH28h5Ztj/LeU1qU+TbibE+OSsigqyCJ17XQ87FvjUcdDtncPB9JTNZK41CsUF+dyYtssPAeFcryyNjMzga/L5+OX2jJ8TU51KtPdwwT2VDEyLpUrxcXkntjGLM9BhB6X5a3Jmqo+G0Hf3m8TOKIHM6qDl/yGxoNc4OuK2B/QjZ6TkjidX0jeqR2849EeG58N3NA8eH9AsW/Xw4hyzmyLYtn+7DrGARkMsSkICAKCgCAgCDQhgWYi8KUW3ePSZwsZ7d6FJ1u1oo3zAPxiUsmvWdUu2uKLrSqQNIt0l8az0HD1y/d53rEdjs95Mrh/dzp06susz67oBb9RkNVVsFxU6PebUnSkjAVd0TES/T1wbmPDk0/1wTd0PznW7C2/QPJcH1zs7bBp3x2vmUmcK5GkZxU5Xy1hwkAVbVu1ws7Jg4CN500r3BZ2qU+E4GpnixyLom0AACAASURBVJO/6WHekpMJvObSHhvbzvQZE8UXmwLo4hZefaaumOOJE+nfxY4n7Bzp6/chGfr3/8uFSgknE17Dpb0Ntp37MCbqCzYFdMEt/Ex1GUVb8LVVEVinM+TlyIy11t6SkyS85kJ7G1s69xlD1BebCOjiRvgZtbmYld1huPPpa9j+n7/wl7+Yfv+v/TS+qVSyu7ZdSiv40ptsio4l4u/hTBubJ3mqjy+h+3Nq0nMa7iN5PCn6RYZK2qzK+YolEwaiatuKVnZOeARs5Lx0m8MsBu/x2+a38P77ROZFLSYs6F2mj/NApRrNxt//l6ytU+jb2RZb++cYtSiFDW/VtYIv1VbOheS5+LjYY2fTnu5eM0k6V4JOxtxwUWQm8FHz8+oRqGz/Smu3CE6oofxCMnN9XLC3s6F9dy9mJp1DH9YW7dN/VJ8gxNUOWyd/pGeX9T8NjQczDlLfO87qSQNwamOLvZsfcVHjcHh+Bb9rQZF7A/qDZJf1vl07rswZFbHF1xZVYJos3aumreKPICAICAKCgCDwkAg0I4H/kFpordiq2/x+5kcyjv1MbmlduTHWThTfoyti1+RxrPtDcHuc0aDNWc3QXnM4Il8g1xWydXQHxmwzPHj7OC0UdQsCgoAgIAgIAoLA4yDQcgX+46D9H1Knrmg3k8etQ+j7x+zQu9/xrmtnnvOdQXDkEhaHz2e6bx+69HqLz6+Li6/H7B1RvSAgCAgCgoAg8NgICIH/2ND/eSvWFWdx5rLhfwH8edvxn2C57m4W3+1YTeziCCI/iOej3d+TXWpIqPlPaKFogyAgCAgCgoAgIAg0loAQ+I0lJo4XBAQBQUAQEAQEAUFAEBAEmjEBIfCbsXOEaYKAICAICAKCgCAgCAgCgkBjCQiB31hi4nhBQBAQBAQBQUAQEAQEAUGgGRMQAr8ZO0eYJggIAoKAICAICAKCgCAgCDSWgBD4jSUmjhcEBAFBQBAQBAQBQUAQEASaMQEh8Juxc4RpgoAgIAgIAoKAICAICAKCQGMJCIHfWGLieEFAEBAEBAFBQBAQBAQBQaAZExACvxk7R5gmCAgCgoAgIAgIAoKAICAINJaAEPiNJXafx2vL73CnXPx30fvEJ04TBAQBQUAQEAQEAUFAEGggASHwGwjq/g7Tcef0RmY878yTrVtj80Qn+k7+mLMl91ea2Vlll/hubya5zfWaoTKVoMEB7LzZyP+qer/nmcFR/qDNzWRv2uXqgx6IYwVfzxnAjL13lCus2Vvx9RwGzNhLw442FVmZGsTggJ2mLx7zVtml79ibmcujDj11/mnSMq9QqtOSdyKD38sfMwhRvSAgCAgCgoAg0EwJCIH/EB2jzdvJBCcVvgmZ3FRD1c10Yl9ypPvbX1PUSN1raaY2ZxVenSezv8JyTzP5XPEl/vbDWZfbyIbe73mNaLb6ZCJvLf5Wf8aDcbzHrtfbMWpzIQ1p5b1dr9Nu1GYKG3KwrD0VX/pjP3yd7JvHuaklZ5UXnSfv55GGnvZ3Vo98nonv+DHcx5e/vxzJiarHyUHULQgIAoKAICAINF8CQuCjo/jnfSQuCSMsMo7NP1yjskn8peZshDudx24nXybotNkrebHDMNZefbD1zwcTpk3SQOVC7leo3+95ytZY3ftgHIXAtwq2qXfoSsm7chNp0V5dnEd+yYP1n6Y2T5QnCAgCgoAgIAg0JwItXuDfO76Cd6K/4co9HagLOLVxLguSrz64jzSXWObZkdeTLRIytLl8szqBb3JqBIrmJieTVxAREsGyzd/zh+HqQv0z28PWkl5YwNk9q4gKW8r6g1mUAZoLyYRO9cbZ1pXRgXOJ2iOlm2i4dWYPaz4IISg0hqS0HL0Ykhqi/nk7YWvTKbh+jE8/DCd0aRLpeWp0pZc5uD6akJClJKXnYloQ1XDzZDIrIkKIWLaZ741GARVXObI5jrDgRcRsOky2ZFBdPxZCXXPrDHvWfEBIUCgxSWnkWEuvsDhPalfdtqj5eXsYa9MLKTi7h1VRYSxdf5AsmT1VuRlsjQsleFE0/9y9j40LxjNqyfc1PDLq5FjNKoM7hosyzUV2RyVw2JBqpLnFqeTlhC9awrqvfiJpnNIKvoZbp5JZHr6IJeu+4qekceYr+FV5HN22jLCFEazYfZoCTV0gwXIFv8EspeK0BZxJWUlkSDjx2zPJNzkZzc2TJK+IICRiGZu//8N4YWuIl8KCs+xZFUXY0vUc1IPVcCE5lKnezti6jiZwbhR7LlcY/ZCfvpYF727gnBqUbKy4eoTNcWEEL4ph0+FsfUxXt7yKvKPbWBa2kIgVuzltBFKfr63Hft1ExbeCgCAgCAgCgsB/NoEWLvAr+DYmjkyZ6EF3ix0frHlwr1f+i4Cn3Ik8q7ZeljaXFP8eqAb5E7wkgplDu+LgvZyfJJEvCd2O3fH09mTom8FEhUykX8enmXWoDG3OYT6KHEuPNgOZHr+STWlXuf6ZP8+oBjF5YQyxkTPwcnZk9Cc5+rolgdihmyfDvH2ZGbaYoLGudHD1YWT/vzFi+kKigsbh2sGDmF8khaklN8WfHqpB+AcvIWLmULo6eLNcMkpXwL7JKhw8pxAWE828CX3p5rOWy3UJU5lQ113/DP9nVAyavJCY2EhmeDnjOPoTDNc4ZoBk5ynaQgVf+neku6c3nkPfJDgqhIn9OvL0rEN6wai9loxfVyeGBIQRHTmLl7ra0T0wlVI92uqUl9ocrxnFtDGzqPIQM1WexF7QgC6fL6b2xHHAJEKWfsD7E4bwdLvWVlJ0dOR/MZWejgOYFLKUD96fwJCn29HakKKjvcauN55B9cJUwqLDeNPDGffgH/T2mfGQ2St93yiWent7oXphOhHRi/D36EKvWd/oU4S0uSn491AxyD+YJREzGdrVAe/lP+lFvhQvHbt74u05lDeDowiZ2I+OT8/iUJmWnMMfETm2B20GTid+5SbSrpXxpb89L0yfjdfACURt+ZHca9b9rSvYx2SVA55TwoiJnseEvt3wWXsZDVqu7XqDZ1QvMDUsmrA3PXB2D+YHyWGKvtYpxr4lS/FZEBAEBAFBQBBoCQRauMAv4bO4RC6ZCdQKvo1f8eC+L93J2DbPsyLbeiqB+lgwrr3nk2FYda76jbjBXZi0r6RG4LsTdPROTX53JV9PdWLI8sv6hxstU0t0pdlcvGZY/teRt2447V7drm+HJNg6DVjMuZpVc93tT3ilzWBifzMsoxez1bc9Y3eWgvoYwa69mW8yit/iBtNl0j5K1MdZ2LsfkdISrf6nkrIyw3bNV4Y/cqGuKyX7oin1SZe3juHtXmW7xc0N/any85RsqRF97kFHjavtlV9PxWnIci5rtVxN/Duqt/6F4XnmqhOLcOuziJNq8xVxS46G1fK6BL76VCh9np3JwWLD8v5dto+xsoKvPkVon2eZebDYmJ9/d/sY4wq+OjMIV/dFnKhJZNfd3M5Y5zFsvWUo2wDS3F4awVJ9Jhz3Xu+QphfJQEkmm5bt47JazbFgV3rPzzCunlf9FsfgLpOoDj1/OroHcdRwG6Pya6Y6DWH5ZSmWLXPwpQut9rRWTWCLIe1MwUb18YX07hepX+XXt7CyDH0IqTMJcnVnkQkI28c6M2brLXSKvgal2DdRFFuCgCAgCAgCgkDLIdDCBb6W39cv4MMz94we1+btISQmzfj5vjcqPucfHQaw9FezqwdZcVqurh5Kt9nfGVMjpHSUnxb3xz30FGq50NWfVUVaYDc8Yy+iX2ev4yHbsuxUNkVO4xUPV1xUHWjts0F/Zi3RWrKDV9uNYrPxac8ykse1w3dLEdqrqxnabTbfGa4VpOSfnxbT3z2UU+oqLqwfS78XpxGXnE72XesXL/o7EPKHbMuySd0UybRXPHB1UdGhtQ8bbtQWs/LzlG2RhKU9w9flGgV0VVog3TxjuajRcX39y3Sd/IXxjTXlP8zFpW+1sDTwkOA0XOBX8ceaoahmHJT5y3oOvvaPNQxVzeCgjKPpIVstOYletO39OvODgwmWfoMCGOLQlTlH5LeTqsNFbq/+mwax1HLtn8Ms7K0uD+1VVg/txmxzJ7O4vzuhp9S172JUpRHYzZPYi/rIs3jItvpOiktQpowLYM3GqgusH9uPF6fFkZyejSGEtDmJeLXtzevza3gEBxEwxIGuc45QpRf41nxd3SZrsV/TYvFHEBAEBAFBQBBoUQRauMAHqrLZG/0+C0IjiAwPYV7oRk4aV2gfIBakFcleXZj2jeW7RnTcuniW7OIKLsYNwmXeUVnuu5as+CE8+94PVFkV+BfqEPg6ru97GzfXkSxMOsyvBZWUp4yn3X0IfM3FOAa5zOOoTGdqs+IZ8ux7/KD/TkdZTjqfxs7mlf79eS0+o+43Asns113fx9turoxcmMThXwuoLE9hfLv6Bb6yLdYFvj6bpvi/WDhAhfurM3gv8B94qrrjt+Oq/u6HXDA3XOBXcmnZYFzny/1lXeBrLi1jsOt8M45ygZ8VP5j2AwKIjokhxvAbm8CBOvKd5PY2nKWGi3GW9tbEs+YicYNcmGfuZOKHPMt7P1RZF/gS2DpX8M3Fd7026srISf+U2Nmv0L//a8RnFPHvrHgGtx9AQLSMR0wsCQek9B0lXyvH/gP0YHGqICAICAKCgCDwpyUgBP5Dc10J+6d0ode8DPPXCVadJtytE+N3FVG8cxxPjdqMKSujlAMBzrywIhutTCBXm2hYwTcI/ETTazL1K7Jdmf6t6U7Ene1jaHsfAp/inYx7ahSbTUZReiAA5xdWUCvbqDSNOS6exPxWx10Ko/3/1t+p6Dr9W4zW3dnOmLb1C3xlW5REH5SfS2T8mPf5aMs6Viz/iM9P3cSQTCQXzPqVY9nrRvVpPt6JpucDKg8xoyYH/86uCTj6yv1lXeBzZxcTHH3NOJoEPpR8PhEH70SuyG+CaKRM9No/Jnur7/o0lOXd3RNweCUJ040SNaUl5dJ7o9g57ilGbZbSX2p+Sg8Q4PyCPqXMUJ8xTcmwgm8Q+Iny12Ra+qFxNpamzcHFM4bf/udzJjp4k2gOBI0eiGUdYLhbc6FKuhthPfYNzRN/BQFBQBAQBASBlkRACPyH6O2Kk5H06ziA+YeuV4tLXSEZEYPp1DtIn3evu72XyU+7MmXLSXKLC8na/z4DOnuxUnoowCiQDRLMXODr8j/mpbbDWZMjPfyaz8YRnRiyOJObd/M5lxLCSyobnhi2Vt+6WoJNIUUH3W32Tn4a1ylbOJlbTGHWft4f0BmvlZfQlGQQPdaPqH3nyS8t48axeHycvFlVS/nXPCSsT9HRkL9xBJ2GLCbz5l3yz6UQ8pIKmyeGsdaoIGVOkLdbyRbFVV0tf2wYiYOLL3PClxKf+DFbUr7h2H/frbWCb8ZReuPQ6XDcnMaRlFVEQVYqa6d7YN/aQ/+Qra5oPwHdejIp6TT5hXmc2vEOHu1t8NlwwySUDU3RFbE/oBs9JyVxOr+QvFM7eMejPTY+G6oF993DBPZUMTIulSvFxeSe2MYsz0GEHpfl9NSUZfAf6BrFUld0gKndevLG+kyuFd3il92z6fvsNP51R8ftvZN52nUKW07mUlyYxf73B9DZa6X+eRRDfUb3mAl8Hfkfv0Tb4WuQQq/6AVj5Cr6yjSUZ0Yz1i2Lf+XxKy25wLN4HJ+9VZGvvcjiwJ6qRcaReKaY49wTbZnkyKPQ4lUq+VivHvsEd4q8gIAgIAoKAINCSCAiB/1C9XcGlHdP4W4d2qNw86Ne9Ix37vMknvxrWsnUUHUvE38OZNjZP8lQfX0L351Sn7MiFrt5Gc4GP+mdWj1Bh+9fWuEWcoORkAq+5tMfGtjN9xkTxxaYAuriF68+sJdiUBL70ppaiYyT6e+DcxoYnn+qDb+h+cvTpOVXkfLWECQNVtG3VCjsnDwI2njetzMtZyu0vOUnCay60t7Glc58xRH2xiYAuboSfMaypy06Un6doi8Kqrgbu/baZt7z/zsR5USwOC+Ld6ePwUKkYvfF3YwqKvlYLjqiz2DqlL51tbbF/bhSLUjbwluEtOugoOr6aSQOcaGNrj5tfHFHjHHh+xe91rrzrio6zetIAnNrYYu/mR1zUOByeX8HvNcv05ReSmevjgr2dDe27ezEz6Rwlhus5MySyf3TVGJbSWv3xRCb274LdE3Y49vXjw4zb1RcjuiKOJfrj4dwGmyefoo9vKPurnWzkU7fAl167upoRKlv+2tqNiBMltZ6FQMnGqhy+WjKBgaq2tGplh5NHABvP1/SH8gskz/XBxd4Om/bd8ZqZxDk9EGVfK8W+DKPYFAQEAUFAEBAEWgwBIfAfgat1ZXn8cuwox3/JRfx/nkcAXJvD6qG9mHNEvhquo3DraDqM2fYIDBBVCAKCgCAgCAgCgoAg8PgICIH/+NiLmh8agbt8964rnZ/zZUZwJEsWhzN/ui99uvTirc+vP7RaRcGCgCAgCAgCgoAgIAg0BwJC4DcHLwgbmp6A7i5Z3+1gdexiIiI/IP6j3XyfXVo7V77paxYlCgKCgCAgCAgCgoAg8FgJCIH/WPGLygUBQUAQEAQEAUFAEBAEBIGmJSAEftPyFKUJAoKAICAICAKCgCAgCAgCj5WAEPiPFb+oXBAQBAQBQUAQEAQEAUFAEGhaAkLgNy1PUZogIAgIAoKAICAICAKCgCDwWAkIgf9Y8YvKBQFBQBAQBAQBQUAQEAQEgaYlIAR+0/IUpQkCgoAgIAgIAoKAICAICAKPlYAQ+I8Vv6hcEBAEBAFBQBAQBAQBQUAQaFoCQuA3Lc86S9NV3qWw+B6aOveKLwUBQUAQEAQEgQYS0FVyt7CYe2JCaSAwcZgg0DIJCIH/MP1ecpb1AQNxsLPFzqYVHVzHk5BZXP3PlrS5ZO5N43J5XQZUkho0mICdN+vaqfDd/Z6nUKTlLjO7y7j03V4yc7WWRzXoc8XXcxgwYy93GnR0yzro/tmU8GtKJP4+nri7DeDvfgvZ8dPdZvsPvsoufcfezFzuL4IeRkw8gj7UGLPLLvHd3kzus4s1pibzY9X5nE7L5EqpDm3eCTJ+r3OgMj/nIX3S5mayN+3yQyr9IRfbpP4r4ez6AAY62GFrZ0OrDq6MT8ikWCe1QUtu5l7S6p5QHnIj/5zFP/S4qkwlaHAAO2/qHdSsID30tj+M1sp5mukQy8oq+HrOAGbsbWpl8bDKtbS/6T4Lgd90LC1KKiM18BkcX17OiUINqG9x7MMROKqm8OVtHahPkvjWYr4trKvzV/Clvz3D1+ValFnfx/s9r75yZfvldmtzWOXVmcn7K2QHNHzz3q7XaTdqM3UiaHgx/5FH3h8bLX9sHoNj11F8sPsIJ46nkbxkFF27jGXbI1eIDXGLlpxVXnSevJ/7i6CG1NHYYx5BH2qESdqcVXh1nsx9drFG1CQ/VMvvq0fy/MR38Bvug+/fXybyRJX8gEe6rT6ZyFuLv32kdTZVZU3pv7LUQJ5xfJnlJwrRoObWsQ8Z4ahiype30aHmZOJbLP62sKlM/48v56HHVcWX+NsPZ11uXXP848X70Nv+MJon5ynXIbXquseu19sxanNhEy9sPaxyazWgyb4QAh8dxT/vI3FJGGGRcWz+4RqVTYFXfZxgVyfePigrTZtNwouOjE+WBmSln/sVGfd7npItCvuEwFeA82C77k/gF7NtdDtGflJgii/dDdb7tGfszpIHM+ihnC0Efn1Ym1Ig1leXab+O0rwr3JQW7dXF5OWXNKM7LCYr/wxbTec/NceDXXF6+6BsftKSnfAijuOTkdaMxE8zIyAXpM3MtD+lOQ3m+bCE+MMq9+F5o8UL/HvHV/BO9DdcuSetqhdwauNcFiRffXDiml+JGdAW78Rss9z7qvKK6slS/TPbw9aScaeukdlCqGtucWbPGj4ICSI0Jom0HGu3yy3OAzQ3T5K8IoKQiGVs/v4P4+Sg/nk7YWvTKSw4y55VUYQtXc/BrDJTu6tyydgaR2jwIqL/uZt9GxcwftQSvi+rsbvwV5JDp+LtbIvr6EDmRu3hcoVlmzRc3B1FwuGbNYJTw61TySwPX8SSdV/xU9I45RX8qjyObltG2MIIVuw+TYEs57Ti6hE2x4URvCiGTYezkVluakMN4/SC6xz79EPCQ5eSlJ6HWlfK5YPriQ4JYWlSOrnyxUlrdRrKKizg7J5VRIUtZf3BLFm9Gm6eTGZFRAgRyzbz/R+GCzs1P28PY216Ifnpa1nw7gbOqU0mmraU2VTlHWXbsjAWRqxg9+kCs5gylVFJWmB3+gT9aLKr8gwR/XoxL0PeSNMZ0pa24AwpKyMJCY9ne2Y+hiM1t86wZ80HhASFEpOUhjHsjCzySV+7gHc3nEONhltn9rDmgxCCQmNISsvBLEq1BZxJWUlkSDjx2zPJr9JwITmUqd7O2LqOJnBuFHsuSw6uIu/oNpaFLSRixW5OG51uhaM1fwENihFzFNJZ5nfPGtz39CQpOJPCysgQwuO3k5lvIKnviJxMXkFESATLNn+PKTyq+0x6HXGluZBM6FRvnG1dGR04l6g9lzH22/x01i54lw1SMCnZWHGVI5vjCAteRMymw2TLOoq1mDLWYWVssBoXtVhKX1jzZ8P9U21Phr70+myjVpyZjKp3LJQxNdYj+06pLXXVW5f/qK+fmMy12NLwa8wA2nonki0bB6kqp0Kf31bTPzKspSVY94MU81ePbCYuLJhFMZs4LA8SuRWGft/Q8dRKXGqvfUV8/Fdck+XlVf20jfCPftTXZs1PGOovlI87cgOlbWvjsOVx1PSl6riS9lblZrA1LpTgRdH8c/c+Ni4Yz6gl3xuPM07VmovsjkrgcE3qjdX+0GBBWm2b9fFKyXdV5GZsJS40mEXR/2T3vo0sGD+KJd+XVc87GXeMiz2ai7uJSjiMZHZdfarg+jE+/TCc0KVJpOep0ZVe5uD6aEJCpHkz1zgvKDNuQCxVnWdbaALfyVOXyk+RFLWDX/TDmZV5R86zJhaM+klzi1PJywlftIR1X/1E0jj5Cr71ucnYz62MddLYar1c6/qqdrQ9nm9auMCv4NuYODJl8zC6W+z4YE0TeEPLHzv9ULXpgW/oVtKvlhk7mr5webDWqk0mMnTX+cz/GVSDJrMwJpbIGV44O47mkxzZ6Gg8X3aeJNxyU/DvoWKQfzBLImYytKsD3st/0ov8ii/96djdE2/PobwZHEXIxH50fHoWhyQBoL1Gsl9XnIYEEBYdyayXumLXPZDUUkn/1Nx2vHqFwx9FMrZHGwZOj2flpjSulVnekqzk0EwVnrEX0KAj/4up9HQcwKSQpXzw/oT/n703gaqq3P//v2vdXzlcZw2Vk1oqJ5XrBE5JauaAlhbeFBOVnHMEEWQoBCS1sKvmQI7lkInZbTCT20opnFKrfzlgfF0YKCsl+aKwSBacyznr9V97H/Y5+wx7Mwhp+bCWss8+ez/P53k9n8/nee9nP3tDv0ebUF9riY45m10vPoZhwBQiYiN4yccT79AjSCZY8lKYaPDAd1IEcbELCOjenqFrLrmKXsnWZu3xHeyH//QIYkLGYGxmZOjwnvxjWDCLo0MYa2yGT9yP1nN16pTb3bwDvn6+DHoplOiw8fRo/igzrMDI2RPI44Y+BIa+SuT0QbTz8GPFd5LIt/bJgOCZDOwdQPSWb7jm0nX6bMzZu3jxMQMDpkQQG/ESPp7ehB6RSLj+mK99zHzfDvQMjOPdDzaycOg/eCriMHnuriMllrn7mdLZwIDgSGKXBOLTpjMzPr2J5dr7BD5moM/ExcTFRzFtoCetR72D7HayDwwgeOZAegdEs+WbHLLfD+QxQx8mLo4jPmoaAz1bM+qdLKuBllz2T+mMYUAwkbFLCPRpQ+cZ/+bMwXVEjXmcRr2DSXxjE6nZJrJ3vchjhgFMiYgl4iUfPL1DsTbVDUdTLfiIC0JVDFUr9qx92NkwgODIWJYE+tCm8ww+ldafmXPYE/g4hj6BhL4ayfRB7fDwW4HVPT4kUMOvzFmHWBc1hscb9SY48Q02pWYjxW3LAcHMHNibgOgtfJOTrZ0fLHmkTDTg4TuJiLhYFgR0p/3QNUjXUXo+pZcbdP3ChaVZsz+rHMNyygmk5ZC1cul6tuHWzz6VlwBWlgsdmF4zu3K+puObGvXeuOzcf1e4phcnLvwcd5h/eY9xhkY87h/O1qNXKHaIaZXfOp4mr8/XjisLeSkTMXj4MikijtgFAXRvP5Q18sW2U0HVyad6sVOSyqyOT7LyZyURlvCfOR3pk3BBd8yyjj3qvHPN6c6SWScPO7XFya/M2TsZ164t/YIiiI2awdPtGtJh1mF5vJFjbshabCttSj9nusGX+PPlVciTVVuiox0P2jEkPXeRvXMc7dr2IygilqgZT9OuYQdmWQdq20SF4ialn0/H4BvP+XJpGHeMqWbtfRns58/0iBhCxhhpZhzK8J7/YFjwYqJDxmJs5kPcj9KVpR7jKvqS5Srrh7Zi9Fb7neaSwzPp9MzbZOdUNu5U8FR0iNQpcvx1onWvCYQte435Af14tEn9iiU6Ft2YqzyfaJWrr69cve3e7HnABX4h7yckcVE9I0IJnyWurKXeMHHt6NvMH9WNlvWbYRy5iK1nKh6yVTuoS23qZG2hKPMC2cqEsOUqa4c04dnt7mZq1OeZOBZqpMvCNNtsbtm5BPq2mUBKoTXAm3uH8LUyLVH6CVPa9mPFJTPmK0k8ZZjMv5VVHWUnWNKtK0tOmuwCXwos5yU6Lm1SCXzTKcK7dmT6wYr2A7e3j9acwTelh2D0XsKJisXZluvbGeM5mq03LJiOL6ZLjyj7THhpMcXuZsUle1r0IuZsxVyy5TfeGdGIvvHnbLPLBVv9aTrmPTmR69VpFfjehHytzIiU8smUtvRbcQmz6Rihxi4sTFOmR8s4l9CXNhNSKJQFflPqGwLYckUZ0Jw6nD+UDQAAIABJREFUXJeNifQQI95LTlSsU7dwffsYPEdv5YaSudXFmX/j2FvjMHo+QY/Hm9LYeypbv9d6yNbE6aXedJ6dKrdfKqYwfRPLUy6BpYjMC/blaparaxnS5Flkt5O4Nq2PIWALSpMsRZlcsDspV9cOocmz22XLTKeX4t15NqnKNUlhOpuWp3DJ5LREx5ROiNGbJfZOZ/sYT0ZvvYHFDUe9/qqyj6jZydvqGKpG7JlOs9S7M7PtjSR903JSLpkwHQvF2GUhdvc4R0LfNkywBiKBzTX8ShpOndbgSwNS0/oGArZcqRA3OjaajrO4Sw+ibLeMSimWA0Xfp+RBTyM36PqFM0ud/iytagw7CTE927T9rPJc6MjUmh8d9um1RdO/XftPL06c8bn7bLp2lLfnj6Jby/o0M45k0dYzFQ/Zqv3W6Uwd26W1+8cXd6FHlHQXzvpTWlxs23YoqVr5VMcvsQr6fokZ1omV0i95pWNfEi6U6I5Zcg52yjsO9unmYYcj5Q+SL1kvHM1cSXoKw+R/Yx/yltCt6xKsQ571OHcCXzceXMZDVxuUPZr5Sq/vzFdIesrAZPtAzYkl3ei65CQm1Z1IZZjQE/gtesVgHybfYUSjvsSfU+7BFrDVX1rmWQS6jKvqS2auvDUIj3F7KJABlPHNoicYuCoTc2XjjvJMg4qt6VQ4XTtO56D1aXNJWbB9tH0GXy/mdPOJbrn6OUXp13v9+wEX+GZ+Xr+I10//busH89W9hMWl2j7X1kZp7gneDR1Em6a+xJ0udRTKLpU4J+tiMg9vImrqCHyMXhia1Wfohl9dzlJmi+WHc81XWD2oPTO/UK4MpLuX3xHT05vwUybbFbwtaZWlMqu9L/EXpFmJ9TzTbiL7lWuIO0eY59XdKhRUgVUdgV/2y1sMMkxD/UiC9jpzM1lJA2nc5XkWhoYSKv0LCaKfRzvmfFkGZedZP6YHT05NYOfRTG5r6GbrjI96BqWQHc/aA18CWLxzLE38t5BPJXWq2y2TLyN1Vnt84y9QdmU1g9rPxBF1DD29wzllkvqyOV4h6bblUc4dZ9Zj898skgY2psvzC60cQkMJCeqHR7s5SCgcf25zJLQXT4zbyPe3pQuwAn7YOZc+j/oSfUy5+FCdYc7mX4MNTFN3iuprijM5vCmKqSN8MHoZaFZ/KBt+tVh9t7kXIekq35JYZh5mU9RURvgY8TI0o/7QDdbZw38NxjBNvXZYqcRR4JuzkhjYuAvPL6zo89AQgvp50G7Ol5TJA5aaYyX9VVUfUUyx/a5Z7Jmz/8VgJ/+2FmnmyupBtJ/5har/y/kupife4acw6fiVPF/mRuA39wrBEb1Wfijj/Pox9HhyKgk7j5KpBIpZ36cU4eMuN8ht0vILG8OKluv1ZzX6R7FHKlXZdrWtjGwtP6tCLnRmKg/8Ks7avnmYTK163VygSW1wHydO8Cr7WJrLiXdDGdSmKb5xpylVCTrnU7Vtl+JKSqfrGdPjSaYm7ORo5m2nWXFVaS6+qpdPpfO0/BJKv3qFTn2ss8mlX82lU9/lXCzTH7OskyyueUex0Kybh5Wj7L8VXwIL19Y/Q7uJ+21vdLtzZB5e3a2TSMpxNp9TzeDLpWnFgwsve90uWxrxoNt3lmusf6YdE+0DNUfmedFdvliz57GqCHzpQsfWvsIdPNtkJJttb78oZufYJvhvyacyxlX1JXPmKp5sO4kD0qSP6QxRPXxZ9lPFTGtVeNrY/pdf3hrkNL64rpXXijmXvrXpoDL9civJKS79e492POACX8pumeyLnc+i8EiiloaxIHwjJ21XgrXdKwWkTGyDYWYqZTYHVcJPXZc9OLFcI+XlbhiHLyb50E/kld5hzwtNKhf45RdI6OPFgq9VKtCcQWK/jsw9UqY9UEr37ywF/GdxLwzezzJt7iz+6Wugw7gd1tlatd3VmMEvvbicvsaFqM3RE/gZiX1p2iuI2Lg44pR/8av4SLl1bCkm6+i7xM8cQc+ez5GYlu+4BErCqbZVxqs3IJnRrdOlLEXgn6f0QgJ9vBY4tM2ckUi/jnM5UmbvS3c9LZlVrsfmvxkk9m1Kr6BYO4e4OOJXfSQvtVB7DQXvMfaRUWxxWI9jJnNlf1oF7sd+GVtxluQjfY0sVHdKxVeWaym83M3I8MXJHPopj9I7e3ihiUrgKzMp8vEWrqW8TDfjcBYnH+KnvFLu7HmBJrLAL+dCQl+MC79WreFUrHYS+BmJ9G3ai6BYVZ/HxbPqI2n5lTPHSvpLqqIqPqKYYvttr6c6sVd+IcHFv61FSu3vg9cCdfsl2/vRce4RN3nA7ldaAt9hMK40P1gozjrKu/EzGdGzJ88lppFfiU9pDnrykgQdv7AxtG5IMaDdn1XvH8UeqVRl2yZGlAH5fKm2n1U3F7qpR7st5/lR07+dZ/D14sQJXhU/FqRMpI1hJqmqPON8qrbt9mWNluIsjr4bz8wRPen5XCJp+W6ylUsO1Mmnlfll6RHmdfJh2U/FHJnXmf7SbH4l/eSazx1bKsWgdh52PFb6pPiStG0p+A+LexnwfnYac2f9E19DB8btsN4lU46z+ZxK4FcvT7ra4LDHTb76r24MWSj4z2J6Gbx5dtpcZv3TF0OHceyQb6va85jSk3oz+A45RUfgV4VxlXxJ7ut2TP/8DlKZ/bytd0uqzNPmiyYuLnceX9QCXz/mXPpWlU90y63MVx069t59EAK/jtiX/7CSwT1m87myLEGux8SZKG+aTdhPic1BlfBTG2IPTvmKuV0wn9nU2S22j25cucCngPfGPsLIzdLyhoqfoo8I8hzAysyKNabqq3abY5fDnbMkvTCa+eu2sHblCtZ9cIrryv1btd3yTKDqNZnyMh8/kmzPB5Ty+bSKNfi3dhHQ2p/NqnUl2gIfCj8Yj4dfEpfVs/Pl5W5nl4pS5+DlG8c5h6VW1RX4ldSpbreMUyXEZGE90qFtRR8F4TlgJZlme1/a+kHpD+W3LptCPhjvgV/SZYe2l5erwVgLsvy6gWdajOFd28yLtN/CtXVP0+yFXbbbz0q10q3M3QEejEj+1e4jpiIK7/xXnnVuF/yZ/aLg1nZGN9YQ+PJsRjuC7U7Kre2jaSwLfLi9OwCPEclIk//WHxNFhXewVNw1sb0ms/ADxnv4keTY6Vib6sqxVnxEMcn2215PtWLv9m4CPEaQbG8kpqJC7lig4L2xPDJys2pJVREfBXkyYGUmZj2/kmeAkxxek+k8IFXLxqJU5nj5Enfu/3R9yrkObLmhTN8vbAwrNnT70/FgzRh2EmLatpXr+Fk1c6GqTpuo02mLtn9LAl/Vf5XEiSMRp0/lP7BycA9mOw4omM5E4d1sAvtL7H7rdKaU2HTiyvnoIlLneOEbd875i2pNmORJs+m641YpafM70ztyA3ON/Xk9Q8pn+v1UmcC3TnBo5WF3zVGW6EhDXhIvjJ7Pui1rWbliHR+cum5bplT6yRTa+iVZnz+Siin9nGnyGvxK4sEltl1t0Npji4f/0+u7O5xNeoHR89exZe1KVqz7gFO2gdq6hNQvKcs2bpR+Pk1zDX5VBX71GOv4EuX8GNubTvO+5NLqwXjNPUIp1rudVRp3VGxv7Qqgtb86v6oEfiUxp5dPdMutzFe1OvYP3i8Efl0BL/ue+D4t8J7zMTkV4th84yAzjS0YmZzjZmBXG2JP1pbcjQxr0Y+Y9Ovczj3LnrCnMdR7mMFr3L0j336eJOx+2zeRR42T2HIyh4KbGRyY34tWA9+QnznQc2zzLxsY7uGF/5ylLEtM4u0te/j02P9al8KoAkt6uOXtpxsz5K0s6/ID07cs7daWsckZ5OdlcHhNMD4t6+MjPWRryedAUHs6TUjm29ybXD21g9k+Tak3dINK+KkY3D7ErE4Ghicc5nJBATkntjHDtw/hx0spTItlzLhoUr7Ppaj4V44lDqWt35tkOmteta1y0TozTtL3OnW6Di4qgW/5jX0TH8U4aQsncwq4mXGA+b1aMfCNi25mnlVtVDYrYXP70Cw6GYaTcPgyBQU5nNg2A98+4Rx3XCEjqQk2DG9Fh+cS+fSnXyksvsmlL1Ywup2B8e8rbzJSKpV+W8j/aArtO73I+vRs8m/8yO6Z3ek49QC5G4fRol8M6ddvk3t2D2FPG6j38GDWSIrHmasll43DWtAvJp3rt3M5uyeMpw31eHjwGrkyS/5HTGnfiRfXp5Odf4Mfd8+ke8ep/PuWhdy3n6bxkLfIkttym0OzOmEYnsDhywUU5Jxg2wxf+oQfd1iCYLtO0OkvPR+5c3ob0csPOL6NxIbFHkPVij1LPh9NaU+nF9eTnp3PjR93M7N7R6b++xaW3/Yx8VEjk7acJKfgJhkH5tOr1UDekB7+cWaJyq+kHsp9m6cbD+EtKyDbrKMiPHVtLEwjdsw4olO+J7eomF+PJTK0rR9vZprR8ynt3GDS9wsbQ2VDuz/zqhrDKrEtlaptWzl6flatXOiuHrTbUqLp3079V0mccOc026KXc8DhNTkKyzK+j+9DC+85fGwfUDg400iLkcnkqCYSlDPsv7VtL6WQtNgxjItO4fvcIop/PUbi0Lb4vZlpP13ZcvFV7Xz6WxXGrbK0BXTy8KBt/9e5JOdu/THLNVYUwyp+6+Zhp2NVfSw9OPrLhuF4ePkzZ+kyEpPeZsueTzn2v9blSqZvl9Kt7ViSM/LJyzjMmmAfWtb3If58JfHgwOsOp7dFs/yA41v1FKu085VO35l/YcNwD7z857B0WSJJb29hz6fH+F95KZ6Jb5d2o+3YZDLy88g4vIZgn5bU93H/kG2VBb4u42r4krwyJ5LuXV5m1rDHmXZQWu9v0c8vap6qbUv+AYLad2JC8rfk3rzKqR2z8WlaT54EtVQSc/r5RKfcSvSVfiwrvV73v4XAr0PG5Vc+ZH7/1jRp/QS+fXvSoVkLus94n8uS4Fc5qKsJdpEBhZxc9RxeTevRoFVXRkfvZ1NQG7otPe16mmoZg/ylJZ9jSYH4eDai3t8foat/OAeyrEt29Byb38+xebIfT41fQHRMBCGvBDPWx4Bh1EZ+dnhTjokfVg/D0OBv1O8WyQmTiYytk+jeqgENWj7ByCV72DBZeYsOWPKPs3pCL9o2akDLbuNIiB6LR/+V2F6m4NSiO+d3Mm+oFy0b1qNph4FMTz5LoaTuyrL4+NUAehsa89BDDWnrE8TG7223OOyluDDWHpDyK87SrNOlLCchln+MpEAfPBvV4++PdMU//ABW1Pa+tAlTu4W2LX02dzi/cx5DvVrSsF5TOgycTvLZQvusu60U6Q1DabwxaQCPNavH/3vo73h0eYY5W75DWpLv9sdSwPGk8fRs05CHG7am+7jXSZNeql14klXPedG0XgNadR1N9P5NBLXpxtLTTg9aVxRaeHIVz3k1pV6DVnQdHc3+TUG06ba04lsLBceTGN+zDQ0fbkjr7uN4Pc36tyBMP6xmmKEBf6vfjcgTJrhznp3zhuLVsiH1mnZg4PRkzsqd7p6jZn/p+Ej+Fn8aGGaRqlq9Zmdjr6d6sSfd5j9O0vietGn4MA1bd2fc62kV7ye3kH8siUAfTxrV+zuPdPUn/ECWdclSJX4lvRpw9TADDf5Wn26RJ1wFrm5+KCPr41cJ6G2g8UMP0bCtD0Ebv6+4K6PtU7q5Qc8v7BDtW1r9qdM/9pOtW4o90idlW7nAsd9dkG7fafsZ1cmF7uqRKtdqi169Tv2nGyf5W/BvYGCWe8eE8it8OL8/rZu05gnfvvTs0IwW3WfwvnVAsb01xZmf/FnTdimdfsyrAb0xNH6Ihxq2xSdoI+7SqeuYpZdPqzBulX3Doo4N6L/qZ9sss14/udbv2lKLZh52PVbxJemb389tZrLfU4xfEE1MRAivBI/Fx2Bg1MafwZTB1kndadWgAS2fGMmSPRuYXPEWnarnyXy2+DfAMCvVzVLFSsY0zb77nXObJ+P31HgWRMcQEfIKwWN9MBhGsfFnM6aMrUzq3ooGDVryxMgl7Nkw+e5n8KUo02FcZV+SoJtOEGZsSIO2gfKLP+Qe0ssv6lyp3pYmqo6vZkKvtjRq0JJu4xKIHutB/5VWv9KLOcUHtPKJXrm6vlpZLLu6Y53sEQK/TrCqCy3jt59P803aMX7IKbInMvUh99W2mazVg+g850vVQ4FgubmVUc1Gs0158Pa+slkYIwhUnYAlfxcTx67lF+c7PlUvQhwpCNwzAmW//czpb9I49kMORX9iH7Zc28m4jiPZeK//yrY5i9WDOjPnS/UtUQs3t46i2ehttdTPFvJ3TWTs2l9qTQOYs1YzqPMcHM2+ydZRzRgtBupa6rc/dzFC4P+5+69OrL/9xSsYWz2B/7RQol6NYenCYPy7tqHz5A/cvMO9TkwQhQoCdUTAQv7u2h1o68hQUawg8JckUH4xheURs/E3tqRn5DH7cz73rLW3+eIVI62e8GdaaBSvxixlYbA/Xdt0ZvIH12rHKks+uyeOZW1tzirc/oJXjK14wn8aoVGvErN0IcH+XWnTeTIfuP6xldpphyjlT0VACPw/VXf9UcZauJ3xBTtWxxMTGcVrievY/VUmRVrLPP4os0Q9gsBdE7BQkHGaS8rff7jr8kQBgoAgUB0CpT++T3xMLG++f4ab98sdCMttMr7Ywer4GCKjXiNx3W6+yixyuwyyOm21HWspIOP0JWo77VhuZ/DFjtXEx0QS9Voi63Z/RaYYqG3YH/QNIfAfdA8Q7RcEBAFBQBAQBAQBQUAQ+EsREAL/L9WdojGCgCAgCAgCgoAgIAgIAg86ASHwH3QPEO0XBAQBQUAQEAQEAUFAEPhLERAC/y/VnaIxgoAgIAgIAoKAICAICAIPOgEh8B90DxDtFwQEAUFAEBAEBAFBQBD4SxEQAv8v1Z2iMYKAICAICAKCgCAgCAgCDzoBIfAfdA8Q7RcEBAFBQBAQBAQBQUAQ+EsREAL/L9WdojGCgCAgCAgCgoAgIAgIAg86ASHw/yAPMN+5xa0798tf9fiDGi2qeSAJWEpvc7Pgd8ofyNaLRgsCgoAgIAgIAveegBD4ddoHFm59u5Fp/T35e/361Hu4Bd0nvs2ZwlqotPgiX+xLJ+e+v2Yo5uIX+0ivkaElfDKnF9P23aoFYE5FlB4mpG8Q712/d3+e13x5HzERu8j4qyjhwjOsD+qNR8MGNKz3EM2ML7AqvaDir0GayUnfR+qlO04dUccf74N+dmmh+TL7YiLY9ZfpeJcWyjtKD4fQN+g991/ew73FF79gX3oOf3TqNOV+S2r6ZYosZq6eSOPnPzgUtJHfo9jUNqh639TBWGjO2cqELp3p3Nnxn/HpeL41Vc+8B+Ho2o4pc046+1Iv/WnR3S/2C4Ffhy5kvvoeAW0N+K9K57oJyq4fJf7p1nR4+RPy71JXmrPeZGCriRwoqcMG1EbR5izeHNiKiTUy9Hd2Pd+EkZtv1t6fDFfaVPIhgS2HsDbnLjtCKa/av81cWT2EHktOUFrtc+/HE4o5POsxWj+zghM3y8F0g2OvD6O1YRIf/iYxNnEyaTIxn938Y42/5/3s2lzzldUM6bGEE3+NjndtYMWekg8DaTlkreb39+YLM1lvDqTVxAP8oanT/DOrh/dn/OxxDBnqz1PPRHGi7N4QcK31HsWmqyE12lMXY6FU5pN/70/MV9/x/fff2/79cPEav9fIyr/ySbUfU6aTSUyO+exPC+1+sV8IfCwU/JBC0qsRREQlsPlIdi0JLhNnIr1pNWY7uSoNac58gyebDWbNlbubP6qLpFYn0SQEvgZWM5cP7+XYDZVzaBz5p9htOk6osS0vH1SpVnMmq55szQs7f6v9C7SqQrkfBf7lw+w9duPeMakqu7s8Tgh8FUBLEVcvX0eatDcVXCW38O7yv6rkB36zLsZCWeA3eoaN9/AO75+nY2tf4P952n5/W/rAC/zfj69kduynXP7dAqY8Tm2cx6KdV+6+18ovsty3Oc/vdFpeYs7h09Wr+DSrIsGXX+fkzpVEhkWyfPNX/KLoI9MPbI9Yw9GbeZzZ+ybREctYfzCDYqD8/E7Cp/jh2cDIqFnziN4r3coq58bpvbz1Whgh4XEkp2bJg4nUENMP24lYc5S8a8d49/WlhC9L5uhVE5aiSxxcH0tY2DKSj+Zgn1Aq5/rJnayMDCNy+Wa+shkFlFzhy80JRIQuIW7TITIlg7R+ys+zM3wKfp4NMI6axbzovVySlqNotVkqp/wGp3auYOmSV1n78Xckj1XP4NeSXVI9zsJPx6aSK1+yOSGC0CVxbDqUKfeBVpOl/Qrvm3ln2PtmNBHL1nMwowJURb+m3VKEfTkXdkez6tB1WfAp51a9r8q4+vU2lkcsJnLlbr7NU9b7mPhhewRrjt4k9+gaFr2ygbPSreVabKcDg/KfiOvVGL+kTIe192V3SiqWQlTYk+YUDw6F2G3OO7OXN6MjWLb+IAo6+VAd+x2KUj5U9POarFxO7lxB5OJI3jxwgSLle424MWd/TGLix2SrdFjZd9tYuu4b25kuGzoxK93BkPsj7ZZN2Jdf2E30qkPIGkI5N+8ax959naXhUkxexWQp4tLB9cSGhbEs+Sg59iCl7OrXbFseweLIlez+Ns/GXfGhm7lHWbPoFTZYO752Ytql0do7nAV++Y3T7H3rNcJCwolLTiWrKktUzHmc3vMGUWFLSdyeTq6q/eXXT7JzZSRhkcvZ/NUvtokZW/td4q+c8zvDmeLnSQPjKGbNi2bvpRK3caJnq3Y+qDwW3fu1du7WpguUXeXrbcuJWBzJyt3fYgt9OU1XJ2fZfdPmp0dv4t5W4G76xOaTv7vlrtcmd/W6HQvLb3B671u8FhZCeFwyqVVyNEfS+gK/CnnKsTj7J012ej5QwpUvN5MQEcqSuE0cUg+61c2HsiVm8k7v4Y2oMJYmbiddFVRaMYWSn1z0SC3ElK3sXI6uWcQrG87yu6xZ0uzcatRO++nSVvXjVjqrjJy0rSSEh7Ik9l/sTtnIohdG8upXxbr53JqDrPYr+ajqY3rt6ZwHXOCX8FlcAumqQQPLDXa89pajZ9TkU+m/CXrEm6gzOgv2zDnsCXwcQ59AQl+NZPqgdnj4reA7SeRLwqR5B3z9fBn0UijRYePp0fxRZnxejDnrEOuixvB4o94EJ77BptQrXHs/kMcMfZi4OI74qGkM9GzNqHeyZMulgbZZe18G+/kzPSKGkDFGmhmHMrznPxgWvJjokLEYm/kQ96MkDs3k7AnkcUMfAkNfJXL6INp5+LFCMsqSR8pEAx6+k4iIi2VBQHfaD11jFe3uGJmzOLQuijGPN6J3cCJvbEol26TTZksu+6d0onWvCYQte435Af14tEn9iiU6tWiXZKta4Ov0gyUvhYkGD3wnRRAXu4CA7u0ZuuaSTUy5a7bEu3kHX/x8B/FSaDRh43vQ/NEZfC5pfHW98smlfD7dgG/8ebnM6vZV9q4XecwwgCkRsUS85IOndyhHZPVawoeBLRkQPJOBvQOI3vIN13TY16Sdjm0388t74zA0ehz/8K0cvVJsE7LW46z2DFmb43iawyfpmOZ08PXDd9BLhEaHMb5Hcx6d8bn1okqnnxyKUX+QeDdrR6/+vfCbGEp0+Ev4tGonxxFYtOOmJJVZHZ9k5c+Kwi/hP3M60ifhgrp0x22dmAV7+5VLu9LPp2Pwjee8FHayne3xHeyH//QIYkLGYGxmZOjwnvxjWDCLo0MYa2yGT9yPsp+Ys3fx4mMGBkyJIDbiJXw8vQm1djyysB4QzMyBvQmI3sI310y1F9OOLdb9JNtRsUTHcu19Ah8z0GfiYuLio5g20JPWo95BmedwW5CcDzpjGBBMZOwSAn3a0HnGp9y0gDlnD4GPG+gTGMqrkdMZ1M4DvxXfySJfO/7MZB1aR9SYx2nUO5jENzaRml3sEic52dq2aseJGf1Y1PJrHR90C6VipzmbXS8+hmHAFCJiI3jJxxPv0CPyhau2jVoF2n3T6qdatgJ30SctHXzSlfs1k3abtOq9cdlpLPziBO8HPoahz0QWx8UTNW0gnq1H8Y6uo7lykQX+35/mX5dvU1hYSGFhEcUlyuRJJXnKtTjrHk12ej5gIS9lIgYPXyZFxBG7IIDu7YeyRpopq0k+xELu/il0NgwgODKWJYE+tOk8g09vWnRjSluPFN51TFnHxAEEzxxI74BotnxzjWL18r4atdOxE7RjQi9uzWTvHEe7tv0IioglasbTtGvYgVmHpQHWHjPu8rk690nb90R/AQ+4wC/k/YQkLipxK/tECZ8lrnT0jpp8KnqPMY36szJTEQiuhZiOhWLsspA0ZRa87BwJfdswIaWwQuB7E/K1MuNXyidT2tJvxSV5RtT5tqSlKJML2cr0v4Wra4fQ5Nnt1hZ9GEiLXjGcrZgxs/z2DiMa9SX+nDKFVsBW/6aMea8ITMcINXZhod0oziX0pc2EFApNx1ncpQdR8oygVHQpxcU6FzDSIU5LdPTabDoVTteO0zlYoITMbbaPrpjBr227VEJb16bji+nSI8o6+y03uZjKmiwLDO8QvlZm6Us/YUrbfqy4ZK6SwK96X6UTYvRmyYmK1cSW62wf48nordLyDykBNaW+IYAtFcvBarudsnM5/Gfi2tG3mT+qGy3rN8M4chFbzygP2doTosMpDh+sA6d3yNfY0U2hbb8VSOj07HcoRv1BFt3dWJR2u+KCo5TPgj3xTbggC2XtuLEK+n6JGdaLudIveaVjXxIuOCQLdU2VxKy9/Yp3uwj8Fr2IsQcp74xoRN/4c7Y7cQVb/Wk65j2KMJEeYsR7yYmKdeQWrm8fg+forUgrviT/a1rfQMCWK9a7J7UdO46t1vykHuSwFJF5wb780XJ1LUOaPMt2nRs6ptNL8e48m1TldkthOpuWp3DJZOJYqJEuC9Nsd9PKziXQt80ErKkzkOaSNWapAAAgAElEQVRa8YfzcgLXONGz1aSVD0yVxWJztPxa2wc10WJKD8HovQR76G9njOdott6woGmjZnF231QEvpatd9MnDj7pLj/ptUnTF6QhRv08moWizAvYh8KrrB3ShGf1HM0NF1ngP/T/eLhhQxrK/xrRce5/Ku5y6+cpN8XJu7TZgbYPmDi+uAs9os6ijLSlxcXydo3yoek0S707M9seVKRvWk7Kpd91Y8oq8LX0yN3FlFx20/oYAragrFxW544atdOpEzRjQi9uzVdIesrA5H8rb0Up48SSbnRdchJTNQV+1cf02tVfD7jAN/Pz+kW8ftr+2Iz56l7C4lKd3KMGH0s+4J/NerHsJy1BID1kOYj2M7+w3VqWltl8F9MT7/BTmFQC1Fp7Gamz2uMbbxUmjknNekRx5mE2RU1lhI8RL0Mz6g/dIH+hBIvtedLCHTzbZCSbpakw+aeYnWOb4L8lH+kBwEHtZ/KFcq0grer4Loae3uGcMpVxfv0Yejw5lYSdR8m8rX3xUlGwk8DXa/NxMt8ahGHaQRUP+0O2/61tu2x8/6vfD2XnWT+mB09OTWDn0Uyq0mQX3mWpzGrvS7wkDm31KuxdZ/ClBxOr1FdZSQxs3IXnF4YSGir9CyGonwft5nxJmZyAmuMVkl7BU4/9KUw1aKetj91slOae4N3QQbRp6kvcafmWlDxTWvkMfkukYxQ6ZamzaO8bz4XySux3Y4O8y4V3GUfmdqR3rHUmXDpGK25Kv3qFTn2sM+ylX82lU9/lTpMBTpW6qcses3YRpbTNReA7PPRdyI5n1cvToHjnWJr4byHfnEXSwMZ0eX5hRb+HEhLUD492c/iyzCrwm3uFkF4Rw7Ue007N1vqoxIHt++JMDm+KYuoIH4xeBprVH8qGXxUatqMqNsxk/2uwUz5QvrrC6kHtmemYpIjp6U34KZP1DoY6htTx51bgq+Okog4tWzXixFxpLGr5tbU+LR+ssMbpl5mspIE07vI8C+W4DyU0JIh+Hu2YIzmAho1Ohag+2n3T3cykOgbvpk/UPqlcSKjzk3abSrR9QZ5DUgt8qVnFZB7eRNTUEfgYvTA0q8/QDb+q2lv5pizwNdfg23kp3mtnpFW2jj9XnKLlA2Xn1zOmx5NMTdjJ0czbFUsea5YPzdn/YrBhGupHpeTqzfox5TpuqfWIO4FfjZiS8mZzL0KUhCXf0FQe0K9ZO116QSMmdOPWco31z7Rj4n5lFuIOR+Z50V2+2HL1AXU+V+c+ZbtKY3ot65wHXOBLS6wy2Rc7n0XhkUQtDWNB+EZO2maQXdyk6jukK8PObZj6qfO7GizcuHCGzIISLiT0wWvB16q172YyEvvRce4RyjTFgnUph6PAt3At5WW6GYezOPkQP+WVcmfPCzSpgcAvv5BAH68FfK1atmTOSKRfx7kckfdZKM46yrvxMxnRsyfPJabpvxHIYQa/XKfNX/L/Le+LcaGah13gm2rbLhtfk45NR6x9Yykm6+i7xM8cQc+ez5GYlm8ToO4cwiWgFYEhrcWw1asMDXch8DMS6du0F0GxccTFKf/iWfWRtITIOQHpsa9ZO9213XFfASkT22CYmVpxwWEVOY7HqD852wzKwHm+vAr2q4tStl14qwW+ftxQeoR5nXxY9lMxR+Z1pr8ym6+U7fzbTV1WgS/FrGvb1AOCq1/oCfwMEvs2pVdQrKrf44hf9ZG8XM7Z/2o9pp3brfFZsUP62nIthZe7GRm+OJlDP+VRemcPLzTRE/hSfzvng4qKyi+Q0MeLBY5JisR+HZl7pExb4MtrodyJEUfxXamtbvLBf6sVi2q/rsQH3bKVxom+NO0VRKwt7uOIi1/FR/JDThLw6uQsu2/qCXxrDNZSn7jEg16bSrV9wVngW66R8nI3jMMXk3zoJ/JK77DnhSZ/mMCXXcxtn+n4s7RUUGf8luOnOIuj78Yzc0RPej6XSFp+FcYtN3ZIuaCvcaHD+C4fVklMueYnReBLue0uY8olb1onKaxv4Kph3nfTdncxoR+3Fgr+s5heBm+enTaXWf/0xdBhHDvk2wz2mLGN5Koll+rcp2xXReDXdq4WAt+dI9TKvkIOTGpD5wVpjq9jK/uWpd1a8MKufAreG8sjIzfLt9WtVRbxUZAnA1ZmYnZxenVASRPjSfbXZMpX3+0I/sx+J+LW9tE0roHAp+A9xj4yks2qt7sUfRSE54CVuKw2Kkpljpcvcee07lJYl+gkqV6Tqdfm/F0BtPZX87ALfEtt26Xiq2eT8z2KotQ5ePnGoddkl4BWC3x5uY4fSbY1oaV8Ps1xDX5VZ/Ap/IDxHn4kXVZbWU65/NE1AdV2O9VhUv7DSgb3mM3nynIK+UsTZ6K8aTZhPyWqAV19nuO2q812gY9+vDgWZP+k6mfrTpXAryRupCVoafM70ztyA3ON/Xk9Q83ZXoVty01ddoFvXWLnl5RVMQMHpZ9Pc1yDX9UZfAr5YLwHfkmXbWVJNpRbO95V4NZ27NgarL+hxIH0XI90t7Jd8Gf2Vwze2s7oxnoCH27vDsBjRDL2SX4TRYV3pPee8d7YRxi5WfUmoqKPCPIcIC+JVOq1Dajq+JPESJL6NZnOPlc9W2354P+qF4s2vy6TZk61c7cW4cIPxuPhl4Rj6EtSy/XHZqNmmrYz0Bf4tdgnqnygCCS9Nmn7guNYKN+taheMfSi8xfbRje8Dga/DrtI8pO7TIlLneOEbd65m+fD2bgI8RpBsDypMRYXcsejHVKUC/25iyiVvqgV+DfO+GpmbbVtM6MbtHc4mvcDo+evYsnYlK9Z9wCnpfefyj34+V3KQdKiybctHOisoalt/CYFf0V118avkZBQ9mvdi4efXrOvnLDdJi+xLiy4h8rp7y2/7mPiokUlbTpJTcJOMA/Pp1Wogb0gPBbg4vaPAt+S+zdONh/BWlvTway4bh7WgX0w612/ncnZPGE8b6vHw4DVys6rlYJbf2DfxUYyTtnAyp4CbGQeY36sVA9+4SHlhGrFjxhGd8j25RcX8eiyRoW39eNNF+atoWnJ5++nGDHkrS14qotdmS/4Bgtp3YkLyt+TevMqpHbPxaVpPTs6W2rZLxVfPpsK0WMaMiybl+1yKin/lWOJQ2vq96Xqxo2qyC2+1wDBJF3htGZucQX5eBofXBOPTsj4+qodsqyzwuc2hWZ0wDE/g8OUCCnJOsG2GL33Cj1PqZgCtaTvvnN5G9PIDZGoKBOlO2PfE92mB95yPyanIgeYbB5lpbMHIZOmPCqlFhAqWw6b9GGXQtwmhctCz36EY9QdVP1t3qwR+JXEjHV+WtoBOHh607f+6/ByAumiXbTd12QW+iW+XdqPt2GQy8vPIOLyGYJ+W1PdRPWRbZYEPtw/NopNhOAmHL1NQkMOJbTPw7RPO8VI3A0pNY+fOabZFL+eAbse7ULDtUOJAepg5d+MwWvSLIf36bXLP7iHsaQP1Hh7MGtuoZzvNtmHJ/4gp7Tvx4vp0svNv8OPumXTvOJV/37Lw276JPGqcxJaTORTczODA/F60GviGvIRKqddWtDr+JFvefprGQ95CSp2uglbfVu18UL1YtPm1ST9322A4b9w+xKxOBoYnHOZyQQE5J7Yxw7cP4cdL0bbRuRDlsz3uXHmo7zZArfWJKh8osY5Om7TrlYY/+1hoyd3IsBb9iEm/zu3cs+wJexpDvYcZvKbi4f4q+rR1ic5Q1l8rw2Qy2f+Vmyueb3K862PrT50cqdmG/9PzgULSYscwLjqF73OLKP71GIlD2+L3ZmbN8qEln4+mtKfTi+tJz87nxo+7mdm9I1P//X+6MaWvR+4uplzLtucwyUP18/4dTm+LZvkBx7e3KZ6t/NaOCZ24Nf/ChuEeePnPYemyRJLe3sKeT4/xv/I6Xf18ruQgqX5l25aP9AR+TXO10lCn30LgOwGp3Y8lXNwxlX80a4Khmw89OjSnedeXeOcnZabdQv6xJAJ9PGlU7+880tWf8ANZ1mUhumJBfhcjq4cZaPC3+nSLPEHhyVU859WUeg1a0XV0NPs3BdGm21K5OdVyMCmg8o+RFOiDZ6N6/P2RrviHHyBLXp5TRtbHrxLQ20Djhx6iYVsfgjZ+b5+VcwvPxA+rh2Fo8Dfqd4vkhEmnzVjIP76aCb3a0qhBS7qNSyB6rAf9V/4sz0zVql0OfHVsKsvi41cD6G1ozEMPNaStTxAbv1f6z22DXQPaQWCYyNg6ie6tGtCg5ROMXLKHDZNrOIMvVX/nPDvnDcWrZUPqNe3AwOnJnC2Uhkz7oG0bQCW+Wv6m0878Lf40MMwiVbVsy13Ly698yPz+rWnS+gl8+/akQ7MWdJ/xPpdlwW+3x9251n32YxSbHQdOHfu1CnXoZ+kglcAH3biRiyz7hkUdG9B/ldUHtaqR97upyy7wwZSxlUndW9GgQUueGLmEPRsm13AGX6rtDud3zmOoV0sa1mtKh4HTST5bKC8dc4n3msZ0/hb8GxiYVVnHa0BR7JC/LjzJque8aFqvAa26jiZ6/yaC2nRj6WllRsxdIRYKjicxvmcbGj7ckNbdx/F6WsXfVLDkcywpEB/PRtT7+yN09Q/ngDVJVRJ/0mtsVzPM0IC/1e9G5IlC27Mhis+hZ6tOnFQnFtV+rZe73VFR9t05v5N5Q71o2bAeTTsMZHryWeTQ17NROdnhtz3u3OUNta3SxVqt9Inb/CSlM4026dVr+kE1FqZyctVzeDWtR4NWXRkdvZ9NQW3otvS0tcVV9GlZ4D/0P/zP/zj9e2gAb/yv9Q1A7p4V0l6iI1WvzU7PB8qyPubVgN4YGj/EQw3b4hO0EesQVIN8KFlRcJyk8T1p0/BhGrbuzrjX05D/FqFOTLmKcMcJx7uKKZe8aRfF1k7Ta2c+W/wbYJglLQPV+dGLCc0x9HfObZ6M31PjWRAdQ0TIKwSP9cFgGMXGn826+Vyd+5TtKgn8muZqjaYLga8BpjZ3W4qv8uOxrzn+Yw7i75vUJllR1v1HoIzffj7NN2nH+CGnyO2SgfvPZm2LLNd2Mq7jSDbmuFv8oH3eX+IbSz67Jo5l7S8PYNv/Eh0oGiEI/NUJWMjfNZGxa3+p9bHGnLWaQZ3n8KXqhSNYbrJ1VDNGb1MevL2/+QqBf3/3j7BOEBAE7gGB8ospLI+Yjb+xJT0jj1Vyl+oeGPgHVGnJ383EsWsR+v4PgC2qEAQEgeoTsOSzu64mIW5/wSvGVjzhP43QqFeJWbqQYP+utOk8mQ+u/TkmPYTAr75LiTMEAUHgL06g9Mf3iY+J5c33z3Dzz5HLa71HLAUZnL6k/B2OWi9eFCgICAKCwN0RsBSQcfqS7e+m3F1hrmdbbmfwxY7VxMdEEvVaIut2f0VmkW0xn+sJ99keIfDvsw4R5ggCgoAgIAgIAoKAICAICAJ3Q0AI/LuhJ84VBAQBQUAQEAQEAUFAEBAE7jMCQuDfZx0izBEEBAFBQBAQBAQBQUAQEATuhoAQ+HdDT5wrCAgCgoAgIAgIAoKAICAI3GcEhMC/zzpEmCMICAKCgCAgCAgCgoAgIAjcDQEh8O+GnjhXEBAEBAFBQBAQBAQBQUAQuM8ICIF/n3WIMEcQEAQEAUFAEBAEBAFBQBC4GwJC4N8NPXGuICAICAKCgCAgCAgCgoAgcJ8REAL/vuqQUg6H9CXoveuAmZz0faReuuPewpJPmNNrGvtq+y8m11W57lsh9goCgoAgIAgIAoKAICAI1DIBIfBrGejdFVfCh4EtGbI2BzBxMmkyMZ/ddF/k77t4vslINt+s5b+qVlflum+F2CsICAKCgCAgCAgCgoAgUMsEhMCvZaB3V5xa4FdSUl0J8boqt5LmiK8FAUFAEBAEBAFBQBAQBGqHgBD4tcPRqZQyvt8WzqovrmOfX7/DqeRodvxogvIbnN77Fq+FhRAel0xqlrIMRy3wTfywPYI1afY1OOU3TrFzxVKWvLqWj79LZqxqBr/8xmn2vvUaYSHhxCWnYivS9APbI9Zw9GYeZ/a+SXTEMtYfzKBYZbFeuZRf5+TOlUSGRbJ881f8Uqo6UWwKAoKAICAICAKCgCAgCNx3BITAr5MusXB1/VBajd5KnqLwSw4zs9MzvJ2dw/uBj2HoM5HFcfFETRuIZ+tRvJNlBtQCX70Nltz9TOnUml4Twlj22nwC+j1Kk/rWJTqWa+8T+JiBPhMXExcfxbSBnrQe9Q7WIj8ksHkHfP18GfRSKNFh4+nR/FFmfG6V+HrlYs5hT+DjGPoEEvpqJNMHtcPDbwXfCZFfJ14jChUEBAFBQBAQBAQBQaA2CAiBXxsU3ZRhvvIWgzzGsafA+mXZN4t4YuAqMs0WijIvkK2IZMtV1g5pwrPbpZl6tahXb5s4Fd6VjtMPUqBcMNzezmhlBt9SROaFbOxFrmVIk2exFikJfG9Cvr5VcTehlE+mtKXfikuY0S/XdCwUY5eFpCnT/WXnSOjbhgkphW5aLHYJAoKAICAICAKCgCAgCNwPBITAr6teMGey6sm2TDpQJD8weyaqB77LfqJcrq+YzMObiJo6Ah+jF4Zm9Rm64VdtgW/+hbcGGZh2UJHwgPNa+eJMDm+KYuoIH4xeBprVH8qGXy1Q8iGBLYewNke5MigjdVZ7fOMvUK5b7n+5snoQ7Wd+YbtwgHK+i+mJd/gpTHXFTZQrCAgCgoAgIAgIAoKAIHBXBITAvyt8eieXcyGhD+2mf86d8gsk9PNmyUkTWK6R8nI3jMMXk3zoJ/JK77DnhSb6Ar/8Isv7Gln4dZm9QpXAt1xL4eVuRoYvTubQT3mU3tnDC00qE/jnKdct1yTb77Xga+y1mslI7EfHuUdU++wmiS1BQBAQBAQBQUAQEAQEgXtPQAj8OuyD8h9j6d1pHl9eWs1gr7kcKQXzldUMahfMZ78rFd9i++jG+gKfW+wKaI3/5hv2h3ZtAt86094u+DPsRW5ndOMqCHzdci0UvDeWR0Zu5oYy+U8RHwV5MmBlJtITA+JHEBAEBAFBQBAQBAQBQeD+IyAEfl32iekMkd278PKsYTw+7SDSu3IsuRsZ1qIfMenXuZ17lj1hT2Oo9zCD10jvvlevu1dvW8g/EET7ThNI/jaXm1dPsWO2D03rSSK+nNyNw2jRL4b067fJPbuHsKcN1Ht4MGukZTmaS3TOU45euRYsv+1j4qNGJm05SU7BTTIOzKdXq4G8cVFaaHSH09uiWX4gs2LZUV2CFGULAoKAICAICAKCgCAgCFSVgBD4VSVVo+NMnAgz0rBBWwJtD6YWcnLVc3g1rUeDVl0ZHb2fTUFt6Lb0tI7Al64M8jm+egK92jaiQctujEuIZqxHf1b+bIbCk6x6zoum9RrQqutoovdvIqhNN5aeNlUi8CspV7oAOJZEoI8njer9nUe6+hN+IKtieU4+W/wbYJiVKpbr1Mg3xEmCgCAgCAgCgoAgIAjUDQEh8OuGqyhVEBAEBAFBQBAQBAQBQUAQuCcEhMC/J9hFpYKAICAICAKCgCAgCAgCgkDdEBACv264ilIFAUFAEBAEBAFBQBAQBASBe0JACPx7gl1UKggIAoKAICAICAKCgCAgCNQNASHw64arKFUQEAQEAUFAEBAEBAFBQBC4JwSEwL8n2EWlgoAgIAgIAoKAICAICAKCQN0QEAK/briKUgUBQUAQEAQEAUFAEBAEBIF7QkAI/HuCXVQqCAgCgoAgIAgIAoKAICAI1A0BIfDrhqsoVRAQBAQBQUAQEAQEAUFAELgnBITAvyfYRaWCgCAgCAgCgoAgIAgIAoJA3RAQAr9uuIpSBQFBQBAQBAQBQUAQEAQEgXtCQAj8PwC7pfQ2Nwt+p/wPqEtUIQgIAoKAICAICAKCgCDwYBMQAr8u+7/wDOuDeuPRsAEN6z1EM+MLrEovwCLVac4hfV8ql+7UpQH3T9mlh0PoG/ReHRhUyuGQvgS9d70Oyq7rIkv4ZE4vpu27JTkEOen7SK3MIf5KflN8kS/2pZNjrgnnKvKqSdF1dE7dxUBNDS7m4hf7SK9ZB9S0UsBE7reppF8uwmK+yom0n6nVNOjkV+acdPalXroLe2v51NLDhPQN4r3r8khQpcLNl/cRE7GLjPttluj2UZIWrCG9qCrNuFf+VhXb7vKYqublGvR9jS1zioMal/NHnPhHcqlie4ovfsG+9BxqNDxVsQ53h5lyvyU1/TJFFjNXT6Tx810kRyHw3RGulX3FHJ71GK2fWcGJm+VgusGx14fR2jCJD3+zgOkkSZNj+Oxm1ZN8rZh1jwop+TCQlkPW1kHtJXwY2JIha3PqoOy6LvJ3dj3fhJGbb2LBxMmkycR8dlO/0r+Q35iz3mRgq4kcKNFvsvtvq8jL/cn3ZG/dxUANm2PO4s2BrZhYsw6oYaVg/nk1w/uPZ/a4IQz1f4pnok5QVuPSXE909ivTySQmx3zmeuC92lPyIYEth7A2p6q538yV1UPoseQEpffKZo16iz+aTJcJe5GGtEp/7pG/VWpXbRxQ1bxc7b6vuXHOcVDzkv6AM/9ALlVrjZmsNwfSauIBajQ8Va0S16PMP7N6eH/Gzx7HkKH+PPVMFCfuIjkKgY+Fgh9SSHo1goioBDYfya6dJGo6TqixLS8fVKVkcyarnmzNCzt/s87iu3bvX3ZP3Ymbv4rA/8t2vWbD/lQDkGYrqv5F3cVA1W1wOPIeCS5L0VUuX5empUwUXM2lsJanyO57v6q2mDFz+fBejt2oiop26OE6/mAh7/g+DmWaqlbPPfK3qhn3Bx1V7b6vuV33fRyom/YHclFXq719jwS+pYirl6/LdzRNBVfJvcvk+MAL/N+Pr2R27Kdc/l2aVc/j1MZ5LNp5Rbvfq/pN+U/E9WqMX1Kmw9r7sjsl1ls+ph/YHrGGtFs6SbvkCl9uTiAidAlxmw6RWWyvvOzq12xbHsHiyJXs/jbPoQ77UfYtc95p9rwRRdjSRLan51pnzFxsKOfC7mhWHbouX4CYfthOxJqj5F07xruvLyV8WTJHr5qwFF3i4PpYwsKWkXw0p2L2zcQP2yNY85+LpO9IZOnSONZ/fA6leS7ipuwqX29bTsTiSFbu/pa8ilvPSp03886w981oIpat52CGquH2JlVsOQn88huc3vsWr4WFEB6XTGqW6v6WDk+XYqUd5jxO73mDqLClJG5PJ9d2JV3O9ZM7WRkZRuTyzXz1i3IRV8Hg6E3yzuzlzegIlq0/iIP55Tc4tXMFS5e8ytqPvyN5rH0GX+aXJi3Xsf5Utc9qbItGH0AJV77cTEJEKEviNnFI7XiKcarf5TdOs/et1wgLCScuORU7cm0e5ed3Ej7FD88GRkbNmkf0XusSCvd+bS8n9+gaFr2ygbOmin02XpX3if1cQLPtUHLlSzYnRBC6JI5NhzJx731msj9OJPHjbNUt3DK+27aUdd8UqujYNx1joJwbp/fy1mthhITHkZyaVekyFbf+IBdfedtd/LH8PDvDp+Dn2QDjqFnMi97LpRJrTjp6M5ejaxbxyoazmNCzU8dPtPhW5JyjN/M4s/dNoiOWsf5ghp2xXvzaUWpuufMra05Js53j3seg0tyj1SZbyY4bmnHhImbKyEnbSkJ4KEti/8XulI0semEkrx7+1mmMcJ+fq54r9XOalj/auOQeZc2iV9hw1gS6/WQm7/Qe3ogKY2nidtKlxOnO36Scr8XU5idqX3Tkq3zS6k/NPFZR9n8uprMjcSlL49bz8blbDpNu2mW6aZtkiNNYWvW+V1qh87tSRq6x5C4OpBrKr59k58pIwiKXs/mrX2yTmbY+1hp3NcdCqQu1tIhOfnBurlNMaPJzPk/5rGNf9dtczvmd4Uzx86SBcRSz5kWz91KJVd8cvYl6HNGzU3scKePq19tYHrGYyJW7+VYRP9jHOZd8XdFOvfoUFOrfD7jAL+GzuATSbcINsNxgx2tvqRnVcNvML++Nw9DocfzDt3L0SrFDAsHJoV0qseSRMtGAh+8kIuJiWRDQnfZD13CpHMzZu3jxMQMDpkQQG/ESPp7ehB7RXgRpyd3PlM4GBgRHErskEJ82nZnx6U1cbSjl8+kGfOPPyxcMkiBp1t6XwX7+TI+IIWSMkWbGoQzv+Q+GBS8mOmQsxmY+xP0oZWpJaDejcavO9J8QQkzUbIY93pLeUeny4O0gbszZ7HrxMQwDphARG8FLPp54hx5BaoF0XPMOvvj5DuKl0GjCxveg+aMz+Ny9yqqot2KJjuUa7wc+hqHPRBbHxRM1bSCerUfxTpYZdHi6sJd2WHLZP6UzhgHBRMYuIdCnDZ1nfMpNi5mcPYE8buhDYOirRE4fRDsPP1Z8J4l8iUFzOvj64TvoJUKjwxjfozmPzvjcKmDkMjvRutcEwpa9xvyAfjzapH7FEh3HC5Wq9dld2KLZBxbyUiZi8PBlUkQcsQsC6N5+KGskx3PzY7n2PoGPGegzcTFx8VFMG+hJ61HvICHX41GYdYh1UWN4vFFvghPfYFNqto5fW9kMCJ7JwN4BRG/5hmtmNa/KOLTE4VyTtv9Z8lKYaPDAd1IEcbELCOjenqFrLrm9gC5JnUXHJ1fyszIDXfIf5nTsQ8IF96zsMWDh2vuBPGbow8TFccRHTWOgZ2tGvZPlhrB1l6Y/SM9u1MQfzVkcWhfFmMcb0Ts4kTc2pZJdLC0dGUDwzIH0Dohmyzc5ZGvaqeMnmr4lBziBzTvg6+fLoJdCiQ4bT4/mjzJDCnC9+NUk4/iF2Y1f2bnr507d3KPXJkcT5E+6ceGQ+81k7xxHu7b9CIqIJWrG07Rr2IFZh4uqlJ+rlSs1c5q+P8r8BgQzc2BvAqK38E1OtnaexULu/il0NgwgODKWJYE+tOk8g09vXHb1N504tI5Nal+8prqQtgPXHgt1/FPi36wxrTr3Z0JIDFGzh/F4y95EpVsHGb0y3bZNWmar6tOq9729HZpben4n1V97pL8AACAASURBVKkRS+7iwJyzh8DHDfQJDOXVyOkMaueB34rvZJGv6/uafqMXTzr83TW2qvzcnatnX43abCbr0DqixjxOo97BJL6xidTsYnkpsHocycnWHvu0xxEz2bte5DHDAKZExBLxkg+e3qFY5Zu+ftD1K3dcgAdc4BfyfkISFx3G4xI+S1ypgau6u01cO/o280d1o2X9ZhhHLmLrmYqHbFUO7bZU03EWd+lBlDRbIv+UUlwsbZtIDzHiveRExdowC9e3j8Fz9Fbc38E1cXqpN51np8oCWiqqMH0Ty1MuOSQlpQ5ngd+iVwxnKybBLb+9w4hGfYk/p8yKF7DVvylj3pOlOR8GtqBPwgWbGDJfeZtnPMewI88iC3dlDb4pPQSj9xJOVCxus1zfzhjP0Wy9YT2uuXcIXytT/6WfMKVtP1ZcUlSU1VL7/2qhZ6Eo8wLZyoS65SprhzTh2e23QJOnvST1lun0Urw7zyZVuW4qTGfT8hQu/X6MUGMXFqYpVxxlnEvoS5sJKRRWCHzvkK9tdy5KP5lC234rkMw3nQqna8fpHCxQ7trcZvtoZQZf3Y4q9pnpLmzR7INSji/uQo8oafbW+lNaXGzbVjOSty1FZF6wL2uzXF3LkCbPIiFXBL4WD8dbyHp+LbFpSn1DAFuuKH6g4lUpB8dz9fzPdHwxXXpEYQ+7YuSwc2m41DxJ0PcjseLJx9IvX6Fj3wQ09L1DDFiKMrlgd1Surh1Ck2e3u6tFjnnNGK607c3R4o/zkgkpJzWtjyFgCwpmbTtNmn6ix1cWQs29CflamTEt5ZMpbem34hJmdOJXg4y73Y5+ZZ00sOYePR+zHqeVe3Tb5M4IvbhQ537zFZKeMjD538pdnzJOLOlG1yUnMamPk+twnYDRstedSZo5zQTa/Wzl0rS+gYAtVypEtk4/mU6z1Lszs+2Jk/RNy0m5ZMLZ33SZuvFF1zbp9ae2f8o+2EJ9IW7mytvP4DlmB3kWnTJLddqm7quq9r1rg1z2VMpIM5Yk3OpnnEwcCzXSZWGa7W5Z2bkE+raZQEphJb6vNRaadFhZdPi7tLLiwl95LkWPn5tztf265m2WXnrhuAbfzRikY6fmOGJKJ8TozRK7+GH7GE9Gb72BpRL9gE59brDIux5wgW/m5/WLeP307zY+5qt7CYtLtX2urY3S3BO8GzqINk19iTtdKkVUJQ9alXF+/Rh6PDmVhJ1HybxdIWzMWSQNbEyX5xcSGhoq/wsJ6odHuzl8qb4ToRhuzuZfgw1MUz8LoHznYoPrACINjLZnwQp38GyTkWy2PRhczM6xTfDfkl8h5qwz6Yp8RX7moBPzjpSpxI2ZrKSBNO7yPAsr7A8NCaKfRzvmfGk/zlZnWSqz2vsSr6Wa5KBQP2RbTObhTURNHYGP0QtDs/oM3fCrdC/YPU+FhcNvM9n/Goxh2kHbLUzla/OV1QxqP5MvlIsI6bbndzH09A7nlMkuOhUGZamzaO8bz4VyM7+8NcipTPVDtvZzqWKf3Y0ten1Qdn49Y3o8ydSEnRzNvO125kzhIf8uzuTwpiimjvDB6GWgWf2hbPhVImBvkysPpwFI16+lcprjFZKu6g972ZVzUJ+r73+UnWf9mB48OTWBnUczUcLOob22D6V89Uon+sh3vEr5am4n+i6/aLvAtR1WsaGeSZZ2FWceZlPUVEb4GPEyNKP+0A3Op1g/6/hD5W13jEm7P0rLNZwespXyQXMvQtJVzq1jp3s/qYSvS84pI3VWe3zjlYkBrfh1j8bdXkdhYxUvssDX9TH7ca65p0w3Z7mzQd6nFRdqBpZrrH+mHRP3K0vz7nBknhfdpQts9XFygZXkZ91cqZ3TFPu1/FGe3fUKwdEt3PeTOftfDDZMw91w4+hvVfATN76o2Cr/rqQ/3funk5isKNCcuYonO83jSIn2+Ho4U6dtzn1Vlb53aIy7D1VgpIhi+XTHWHKIA/MVVg9qz0zHgYuYnt6EnzLZxmd3vq81Fkr9qadFNPm7a2pV+bmcq+PXNW6zNOPrTuCrx5EKQ7T6WWMcMWclMbBxF55faNVuoaEhBPXzoN2cLymrZLyUa9Sqz4WLdccDLvAl3ZfJvtj5LAqPJGppGAvCN3LSNsOqQa3GuwtImdgGw8xUypwd2m2ZFoqzjvJu/ExG9OzJc4lp5P83g8S+TekVFEtcXJztX/yqj+TlOy7FlF8goa+RhV+7Uf8uNlQygFRb4EsXF48xK9Uu3KXAyUjsS9NeQcSq7I+LX8VHl8q1E815h9ssqmbahZ50iz/l5W4Yhy8m+dBP5JXeYc8LTSoEvnSKG56K8lSVCOVcSOiLceHXLm/3KL+QQB+vBahxmjMS6ddxLkfK7LYoxSqC6nx5OReXO5epIfCr2Gc1t0W/D2RSxVkcfTeemSN60vO5RNLylRY5gMJyLYWXuxkZvjiZQz/lUXpnDy80qVzgS93pOADp+bUrV/XFQ/U4VN52LMVkHX2X+Jkj6NnzORLT8h2X16kQlB6ZRyefZfxUfIR5nfvbZvNVh9g27QLfwrWUl+lmHM7i5EP8lFfKnT0v0ERL4Ov4Q/XaDnZ/1BD4DoKhcjstLn7yX934dp3YUETJecorjV8bSt0NB7+S9VzFG7zMej6mI/DPl+m3yY01unHhkHctFPxnMb0M3jw7bS6z/umLocM4dki3UByOkyqpJD8rAt9trtTOaVJe1PNHxW9t4k+nnyR/7Gtc6JAfbXgcLigriUOXtttKsW9U0p/Sga7+6bicRilMvjB5bBapJdo+cv5Hnbap7K163yu1a/2uLiNVLMnhrZrBl3JIHy8WOA5cJPbryFzVBJytj22+VKo5FlJT/u6aW1V+Lufq+HWN26wl8B0nS3T7WbLTzTjy34xE+jbtRVCsXbvFxcWz6iNpGajrOKfO15XW58LmgV+i44ZILe0q/2Elg3vM5nNliYdcrokzUd40m7CfEpVDV6nKolTmePkSd+7/+GC8B35Jlx1mVsvLlaULzqXdZneAByOSf7WLFFMRhXcsIC9/8SPJumDaOoBMc1yDf1cz+L9/xrQOg1idZbYJd8m6wg/G4+GXxGW1yeXlcntcBhNboqlc4Muzme2C+cx2Q+YW20c3Vgl8FRsbT/fl3t4dgMeIZOSJaPk0E0WFd7AUvMfYR0ayWbUequijIDwHrCRTtS5ckcPqAL21K4DW/ptVS6k0BD46fab2m7uwRa8PVJSAIlLneOEbd85xt/xJen3fINoFf4Yd+XZGN66qwE9SvSazUMevXROfWuBTTQ5VbzsUpc7ByzeOc+7dBErTmN+5N5Eb5mLs/zoZap92Iqb4NvLMUjuC7Y7Kre2jaawl8PX8oZptV/ujdQZO9ZpMtW9JtlfLTruf6PJ1rgO7KCmT7o5VNX6d2Ko/yrNkqtev2rij52N6Ar9cN2ep67ZuVxIXDgzucDbpBUbPX8eWtStZse4DTl2vWBxX3fxcSa7UzGmV9LPCTxF/unn29m4CPEaQbE+cmIoKkYYbZ3+rnp+4UqaS/nQ8w+6frhdO8Ptn0+gwaDX/P3vnHhVVuT7+P84qxeMFxVCZ1FIhL0dRUDM4ah4vaGnpSTHJON6y7AIid0NAzAt2tLzgvch7WVZmcloJhpcyq29HDQ7fFgbCSlG+JCzUH8yZmfX5rT0ze2bPZW9AITFf13LNnpn9vu/zfJ7L++x3v3soNGr4iJZuNpv+Vzsn2s6TZwhHKZ3fNYyRPZbMJaq0WmyLgwrenfQA4zZLW0Gs/6o+JMxnGMsL7POzbGMUvqTqN7fKXx5f+WrjUgc/ZRvrsbp8t66zeQU/Xfkzmc5zUB0x7iSnbR75v71M9Q4m3bH4wVK+OY+hXJBp2Hjy8GIFXybR2K+135MyuAP95h+k2JqvjZcPMdevA+MyijHaHNoWbo4SVOaQNHEKCfu/p7Sqml+PpzGqSzCrCoxcOzyPnroxpB75mYqKYk5um0Pg4GhOON5Zt/ZnovzDmXTr+Qzrcosov/wjO+f2p8fzH4H+G2L7dmFSRh7lZXkcWRNOgFdLAhQP2TaswPek08g49p0poeLKOfbOH4DP+E0UmRejFL+Df+0w83rqGJN6hJ8rKig+uY05gYOJPlFjuxBwl2gcAcnvFEFRuoHRHYaSmHuJa6Vn2BX1OLoW9zNiTTFo8JR7Ur6ayj9kZreePLMul6Lyy/y4cy79ezzPR/93hX3TH8RvxhZOFVdwNe8ALw/sSNBKaWuGQhZrZ8qCylR+gLBuPZmW8Q2lVy/y9Y4XCGjXwnwBYtl/J2810rCZ0m9Mty4LqjYoIydpIlMS9vN9aRXVvx4nbVQXglcVKPFYj02UbhhNh6GJ5F66RumZXUQ9rqPF/SNYYzZgHTxK3+bxNiN5s9DiuOp+7dqPQ4HfQA7qutdQmZPExCkJ7P++lKrqXzmeNoouwasoUC3ca8l5pSfe3l14dJm0j1z9n1woSQ9wbxjdgaGJuVy6VsqZXVE8rmvB/SPWqDTW8IcG6q70R0mOtx9vw8g3Cy1bn5S+JUmiKWelup+o+pa7rYn2okSvFb8qZNx9bHLyKxt30Myd8nluc4+WTi5C1BEXSs7GX1g/xhvfkPnELkkj/e0t7PrkOP8r7Q1raH5WFGUuIknmVM1p2v7ozMWkZSdTOR/O7EbPZ9aRW1TO5R93Mrd/D57/6DezPzn4mxZTJSN3ylg/U88ZGv4p9e3ZiZFx+zhTUsGVc3uZP8CH8Zssv4il2udNDd1s8hq0c6LtPGnev8HpbQksPeD4S3sO6jaIkT2WpALfMQ5MXNk3nQf9ZrDlVDEVV/M48PJAOgatND+D6GxjZYGv6je/acWTBn8HBa1vbFzq4Oemrbp8t66zdFer9O3HaTPyTSzTk/McpB3j6vPINQ7P64luTCpHfq6govgk2+YEMjj6BDWa9YP2eG6wmD8SBb4amUb43HDhA15+tBNtOz1C4BB/unt2oP+c3fwsFfw2h1Yp8Kml8OBiJg/S0ea++2jVJYCwDd9bV0pvcC5zAaN8vWjVoh3dg2aTcabSfmXuLLupghPpU/Hv3Ir7W3Wi/5Rl5Jj/MomevK0z6N/RAw+vRxi3aBfrn7udFfwO+E+PYIp/J1p5eNH7ySSOlFpKHjmByKLdOJfJglG+eLVqQbvuQczOOEOl+e6p5ULA7SQrN3Z4tQeetKJzasWT+LZrgUfHPkxIeJ+NYZ3pG3vavAdfnadDh9Y3JipOpDPVvzOt7m9Fp/5TWJZj+fsFpvLjpIcG4NO6BX9+oA8h0QcoNO+AsssiW9WhoMJE+YnVTBvYhdYeXvSdkkrCJG8eXf4fjIrgNgugZjMnv7l1WUDNBrWFB1k8eRC6NvdxX6suBIRt4HvbEr0Tq8pTrHjSl3YtPOjYZwIJ728krHNfYk+bndz2R8jc8tD/wOrROjz+1JK+cSfNE557v3bl6lDgm4uX+ttE0kBNd2oLObh4MoN0bbjvvlZ0CQhjg6ryFha1X71GD49HWWH7OR0nRta3yhioPLWCJ33b0cKjI30mJPD+xjA6941131D6VM0fGqi7oz/q+WH1aHQef6Jl3zhOVro+F6Qlp5afqPJ18l/p2RjLHnzpl7u04lcdjcs3Tn6l5C4VVe59THsFXxpDVScXAaTblBpx4cDgOmc3P0fwX6fySkIiMREvEj4pAJ1uPBv+8/8alp/rKPClokUtp2nZWeZny8l12MlUcYL0qf50bnU/rTr1Z8qyHOsfwnLyN70GUwdG7gDLn6nbU9U/pb47+DM9Ygr+nVrh4dWbJ5OOYJ2qNPKQFIYquinlrbfty9kS4oFuXpbLVlBZO+lV1e+UY5obKGPJ8tOdDvnVVM7x9FACfFrT4s8P0CckmgOWiauOhTV1v9GKJ1X+SuXkY6UuWvzk8x1eNeS7ZZ2lXz5dzWidB39q2Ze4k5Uuc5lmjGvNIzfOkblgFL5erWjRrjtBszM4IxU/ihrA7XzZYC5ii46DmzTNm1qu/Oc0X+Uc54fiKs0VvqYZ//fq1V0R9nuNLcYRBO4UARMlmVPoMW4DxVrL93dKPDFusyZgLFzN8F7z+UJ599V0la3jPZmwTX7wtlmrcPcJpywm76j0Jsrfm86ktb/8geuCOwr4nh9crODf8y7QWABEgd9YJEU/dwMBAz/tX0rMCyH4efkTd1ztFsfdoIuQ8Y4RuPY5L/p15JGQWUTGLyYx9lXCQ/rQuddz7C0RV4xNYpfmUuCbytk5fRJrfxF2bhI7i07v9d/BFx7QeAQMnNudzKYT1xqvS9GTINBsCdTw4+4UEpNWsfvbq2IFrtnaqfkLZrqWx+c7VpOSGEf862m8tfNLCqrkm/TNX/67TkLDOXYnb+KOT1WmCvJO59v+Zspdx1EI3OwJiBX8Zm8iIaAgIAgIAoKAICAICAKCgCBQfwKiwK8/K3GmICAICAKCgCAgCAgCgoAg0OwJiAK/2ZtICCgICAKCgCAgCAgCgoAgIAjUn4Ao8OvPSpwpCAgCgoAgIAgIAoKAICAINHsCosBv9iYSAgoCgoAgIAgIAoKAICAICAL1JyAK/PqzEmcKAoKAICAICAKCgCAgCAgCzZ6AKPCbvYmEgIKAICAICAKCgCAgCAgCgkD9CYgCv/6sxJmCgCAgCAgCgoAgIAgIAoJAsycgCvxmb6LmJ2D1T5+zL7e4mfxxnxqORAwh7N1LzQ9UnRJV89Pn+8gtFn/JsE5UDicYKTq2l6z8Gw6f1v3GSHHuvltoB9z8mPkDZ7HvN2mU2+jHJqST7Y3F5O7LosEq2fprwEHNESKGhPHupeb6x5Qag28DeDidWnMkgiFh7zp9eu++/T3zvbE4l31Z+fcubKG5INCIBESB34gw742ujBSuCqLj9APcbBYK3+SDUC9Gri1uFtI0SAhjIauCOjL9QPMg2SDZ7+jJtRxfOYPET682UAo9p9Kfu4V2wPX3eKrtODZflYri2+hHltjZ9vpTpD+XyKfm/uWTmuj15geEeo1kbXFzLfAbge9toLv5QSheI9feRg9/pKa/b77Xn0rnucRP/0gAhS6CwB0jIAr8O4b+bh349034dVMSBX7djMQZt03AocC/7d7AucBvhC7r3UWzL/DrrUmTnCgKfCXW5pbvlbKJY0FAENAiIAp8LTq3/V0tF49tY2nMQuKW7+SbMoO9x5sX+GJzKjGRi0jeeJiCavtXzkfGstPsWhlPVGwa23NLqbWdYODSqUyWx0URt3QzX/5SY/1Gzw/bY1iTfZXS7DW89uJ6zlz/ge0xa8i+Wkr2mtd4cf0Z9EDtxWNsWxrDwrjl7PymDIWEuI5r4FxmNDODffDwG8+8BQnsyTdguHyaPW++TlRENMkZWRQ2YOfEzQtfsDk1hshFyWw8XIAdgwY7m/7SgXOBX992MqMySo6/w7LYaJZkZHNRb6Iq/xDrkqKIWpJBdrGVtt7CL+c3edXTwPmdCaw4fAn5E1WW7mxtOEdm9EyCfTzwGz+PBQl7yL/pzkYGLp/ew5uvRxERnUxGViFqePU/bCdmTQ52Ec+zM2EFh81bMWR9r1L27R5WJcSwZN0h8uzAHaha+sqmrOQ47yyLJVpicVGPqSqfQ+uSiIpaQkZ2scIX1bjXNe5NLnyxmdSYSBYlb+SwIhDU/UrPd1sXsSbHvF9G8mL1OHPUyhIX5nZ1yQWGy1+T+UYsixav5eB3GUxSrOCb48s2vpGy07tYGR9FbNp2cksVEeouNjRsn3P5DNuiV/C5cvvMja/JSNjBj1LAGi5xKnM5cVFxLN38Jb/IIe+gp+WNKj/NAt/KJec3m18bzu8kYcVhLCKp2KvO+FD3Y9nXrpZms+a1F1l/5rrCTlZdLp0ic3kcUXFL2fzlL7iqbaToYBppB4sUWwdr+W5bLG99VemGjnru0yrwLbL+i59yd5AWG0vyuoOclQPOysA5xxq0ZK8tJmdrKtGRi0j65072b3iNp8ct5svqhuUCmWG949VwmdN73uT1qAiikzPIcpu03ed79Xizx5TLvFNWwvF3lhEbLeWNi+hNVeQfWkdSVJQ579rTrCWHSQaTdbpa9i17ViUQs2Qdh5QJq146uDW9+FAQuCcIiAK/ycxspOi9Z3hIN4yZMUnEPBuAT79IjlYBpjL2T9fhHTiDmOQkXpncn26j1pCvrK6tcplK32dmLx3DwuNIWhRKQOdezPlE2ppgpHhXKA/rBhMauZi42cPp6h3MG99JU5+l6B0WPpegQZNJ2PIVJdXSbflhhM8NYtDkBLZ8VYK+6D2eeUjHsJkxJMU8S4BPPyLNAoL7cS9TePgt4ic+TOtB4aSt3MjnJ3cS+pCOwdMXkpwSz6wgHzqN30RhPbaVm8r2M13nTeCMGJKTXmFy/26MWpOPAQ12LvZSFvgNbedJt8ARBIfMJiYxgol+nviNGoP/X0YTvjCBiEl+eAYk86NkF5eiqIbPZusITDlnvigyqrFUs3VtIYffimfiw60ZFJ7Gyo1ZFLnYqJii3aE8pBvM9IXJpMTPIsinE+M3FbpQkD6QCxPbzouaz5itCyTlnFkBPghtT/fAYAKHP0tkQhRTB7TnwTmfKS6q7N1KfXl2C2REcAizYxKJmOiHp98oxvj/hdHhC0mImISfZwDJZjha3CX7qI1romz/dHTegcyISSbplcn07zaKNfkGTCW7NfzqJnv/7skI87YsrbHt+liOlL6iJZfV/3t2YuC0KJa8/jKThz5I25byFh1lPyZK359JL90wwuOSWBQaQOdec/jkqkldB72a7Uey9pci1o3qyIStZbYC++aRufT829tc/G8xu0IfRjc4lMjFccwe3hXv4Dcwh7yTqpr8XHxZ2dium3zhWvPZbHSBKZwzqNtLOz5MlGj4sdlvh4UzN2gQkxO28FVJtcO2O2PxLkIf1jE4NJLFcbMZ3tWb4De+cynyb2bNo8djy/mPnHtu/ov5PQaTet41sarGqyKOlFTkY3NctOlIr0enEZEYzwujH8ZrUDy50oWymatTjtWS3VhE5pSudBkaRkxSPHMe70qr7vM4Is0RLn1p54IGxauphN2hD6EbPJ2FySnEzwrCp9N4NrkkbaNLvs8q0qvPa2rzjmc3AkcEEzI7hsSIifh5+jFqjD9/GR3OwoQIJvl5EpD8ozmPmn3Buj1KOm7fPZDgwOE8G5lA1NQBtH9wDp9JrOutg2w58SoI3HsERIHfVDbX5xLh149FJ637q02X2D7RhwlbL2PSn2Bh7wHEn5GW5KR/NVRXy8fWj8wvek7H9qPXC1lIOV/6V5m7kaX780F/nEi/3ryaIy/B1nI2dQidp+2n0pxo29FSN5ktF6yznTRhtGuJbvIWLB/pyY3wo9+ik9a99CYubZ+Iz4StXDZpjIvTLVtTFQXni2yTreniWka2fYLt8uKqVW53L/oTC+k9IB47hmrMGLTYuXRkL0hocLsODEw8Y10RN3Fl01haD0nhrLxEXrGVkHYTedc24Sr3LSsLfA2WNRq2dt6m4WIjMFUVcL5IXq80cXHtSNo+sd2FgvSBPDlqFfj9Io7ZVvhrPp5Jl6FvkC8XRIpepb46DEzkjJWF6comxrYeQoodDltD2jFRgqPJXbJPe9yPq+fEwt4MiLfcTZKGr6muNt9ZQtOvFAW+5tgKhcyHCl8xx4i6XF9H96HH7ENUyFXute1MsK3gK/rRnya2Xy9eyLJFKLkbl7I/Xy8ZTz023NnevC/+v1x4czjeU3ZRYZa5lq9ee4SgFQX8v+OR+PV+FXvInyV1SGem7XezQq01trl4VPqykpNdN1l1e4GvYS+XPpXxoe3Hkq+1a6lj8pYL1tV3uwzS8w7HI/3o/WqO7UK09mwqQzpPw0Vtc0E/lLQ8S0Ff88WL9BiSimt9rxGvJnscKanIx+a4GKzo03iBt//mw8QdZZai3CnHasluvJDOX3XP8ZFsvtqTLOrbh0Wn9G76qpthveMVE1UF57GnlYusHdmWJ9wmbad8rxlvkt3czDsdBpJoTyRsGtuaISlnbXciK7aG0G7iu+Y5Ts5hEm/puH2/CI7Jd0hqPmZml6G8YU5YDdFBtp54FQTuLQKiwG8iexsL0wlq05unXo0kMlL6H0HYUG+6zv+CWmo5t24iAx57ntTMbAquuamwJLmMRfxzhI5Zh+QCzy6s8cJqhneby+eKrwzfJeLfL5qv9VKibY9vRK6t8DavCLX3JSLX2sBYSHpQG3o/9apVvkgiwobi3XU+X9xUH1e6c+DykG11AUc2xvP82AD8fHV4thzF+l/l8sAus8tR7TnWTRzAY8+nkpldgIxBm51zL/Zi4FbbyZJW7niCtuM2Y3vOsTqTSW1D2FIur6gpiyJFAaPFslbD1u6KPKWNrKpWFxxhY/zzjA3ww1fnSctR650hmN/Lk6N6gW95GFnWtzZrHt0CU9wUQPYix9ZX5Q6esBW40nDVZE5qS8iWcrS52+3jbtzac+uYOOAxnk/NJLvgmmJ7hTSEml/ZC3ztsZ0x2WWR73JJD2e7yFX7C28Od4o7hz349n6MRf9khG4WbkLUMriaDu5sb33w1Viwgse6zOCAdM2g/5b4AYEs+XctF1YPp9vcz+0xjYHvEv3pF/215aLIWV21sV2KcWVDu24yF3uBD6r2culTER/W7tX82FzI+UYgpyalbTBeYPXwbsx1THQk+vcj+mvnRZEavnyxJ4PNd9Vq+PKlngxZ+pPDtkOzKJrxavd9JRX52CXGMFKw4jF6LjhqKcqV8VuH7KaSdfyt63TelxdDbhxlgW9/y8KPxFPZVz0YSg8G1ydeLV1VU3BkI/HPjyXAzxedZ0tGrf9VVlPx6pjvteNN8h03847DA92V7HiiLeM2X7XFXXXmJNqGbMGSZu0POLuwrs1iXrdAUmxXbPXVQaGOOBQE7iECosBvImMb89IY0m4gYUnJJCfL/1NY8aG0BUX6Z6K6MJt3UuYykyySlwAAIABJREFU1t+fJ9NyKJdnVFkmw3lSh/jx6jH7nl77V6kM9n0F5VfSmEN7vMTRWtdJ2uUWujGPtCHtGBiWpJAvmZQVH5Jfoz6uc4FvKtnPP/r6MWZhBof/XUbNjV083baeBb4ZQzWF2e+QMncs/v5PkpZTzn/rZCdTkF7tutbN3H07GfutF/gaLM3GVrG1RpFnkdREyf5/0NdvDAszDvPvshpu7Hqato1c4Jt38CjRuLsboFXga9rLbh+Zs3xhIY9rqi4k+50U5o71x//JNHLKpe0tWn6lKPA1x3ZSSuErSr9xkavmJ5Y6x51KgW84n8oQv1cd4lAeVVMHLdtLcT+4K7M/u4HU/9B+izilN3A+dTC+rxxTPPdgJC9tKD1eOqr4zOo5WvxcinFZYunV1V7KAl86w529XPILygJf249dCjmFDJhZ+PKKY6IjbWgPXjrqmhdrji6gZ8AS/l19lAW9HrWt5is1RCv3GRpe4Bf9cwQPzcuyFPjKYrYu2U0V/GvhQHT9nmDWS/P4e6CO7lN2WO6wutiogQw14lXa3rL/H33xG7OQjMP/pqzmBrueblu/Al8z3lx9x9UvGqHAlxJHg3RwsL54IwjcMwREgd9Upq7cy1TvYNJ/Vq7OGzAo38pjV2Ux3zeQ5LPOe0WvsXOyN2MzfrWtdqCvovKGCSreZdID49h8WS5PoOrDMHyGLafAWL9Eu3eqN8HpPzusmhrMAmqMK63gp8s/k2k0ryp2Df+U67Iuv21nQpsGFPhyO6Aqaz6+gcmc/b8GsFMWAw1hrmgnE9Qs8M23h4NJt+1TreGzWfIe/ErUWSoUlA6VtjavJCp+JtN5UjevAHYl/FMbXX7bPoE2KgW+ectNcLr9+Yeaz5jlsAff/Qq+XGgrJXUpurQKBk3urr7oXODbx60ia74vgcn/U4df2Qt8NMe292w5ssvirpC1y/Ub703uRMjmy/a4UynwubaTyd5jyVDcsdJXVXLDVEdsaNrewI9Jg+i54AvyV4/A96Wj5lX7incn8cC4zdhDvooPw3wYtrzAIYali3BptV81Lp39zAFTDR/P7EJweqGtz5rPZln34DucKDmz1V5nQSs+6vBjF19TxCZU8O6kBxintEXVh4T5DGN5gZtkWpPDy70GEbf+JfweXUaem1NAO15leZy1ld7L39lWyrnOp7O6M3x1oWuBX5fsN86Q/vQEXn5rC2uXv8Fbe7/mknxTwtlGDWWoEa/mu79dw7Gnld/YPqGNeoFvy/fSHlGt3GyPLzmnNlWB3zAd3FlSfCYI/PEJiAK/yWx8jcPzeqIbk8qRnyuoKD7JtjmBDI4+QU1lDkkTp5Cw/3tKq6r59Xgao7oEs8plwjJR/uFMuvV8hnW5RZRf/pGdc/vT4/mPwHSFfdMfxG/GFk4VV3A17wAvD+xI0ErplnR9Ei1cOzyPnroxpB75mYqKYk5um0Pg4GhO1GiMi4nStx+nzcg3KawxUbphNB2GJpJ76RqlZ3YR9biOFvePYI11BrxxehsJSw9Q4HztIs0VOUlMnJLA/u9Lqar+leNpo+gSvIoCowY7F3vZdYVbaydPRpoFvv4bYvt2YVJGHuVleRxZE06AV0sCrA/ZqrIs07C1qZS3H2/DyDcLLdsunCd1UykbRndgaGIul66VcmZXFI/rWnD/iDUuFKQP9N/E0rfLJDLyyinLO8Ka8AC8WgYoHrJtogJfk7vdPjJneyFdSU7SRKYk7Of70iqqfz1O2qguBK/Kr8OvFAW+5tjOmOyyaBf4JsoPhNGt5zQyvinl6sWv2fFCAO1ayBeuin5M5Xw4sxs9n1lHblE5l3/cydz+PXj+o//T1qEO2+u/jaN/738wb/TDzDpkeRDCdGUf0x/0Y8aWUxRXXCXvwMsM7BjEyp+cg6uOuHT2MwdMer6J7UuXSRnklZeRd2QN4QFetAyQHrJVs1eB5Hzq8VGHH7sWzQq+mLiybzoP+s1gy6liKq7mceDlgXQMWomL2mY9asl5pSfe3l14dFm+7SLFQUW0cp+9iHduI72XZPXsNJK4fWcoqbjCub3zGeAznk1FRjcFvrbsxl/WM8bbl5D5sSxJS+ftLbv45Pj/WrYqOtuooQw1CnxT6QZGdxhKYu4lrpWeYVfU4+ha3M+INe7+logy30sEtHKs3W5yrDdVgV+XDlrzjju7is8EgT8iAVHgN6VVb5wjc8EofL1a0aJdd4JmZ3CmUkp9tRQeXMzkQTra3HcfrboEELbhe/squFImUwUn0qfi37kV97fqRP8py8i5YkmfpvLjpIcG4NO6BX9+oA8h0QcoNN+1rk+ilQa5wbnMBYzy9aJVi3Z0D5pNxplKy6qlxrj6H1YzWufBn1r2JS7rK1Y86Uu7Fh507DOBhPc3Eta5L7GnLUtR5VtC8NDNI8v1bjrUFnJw8WQG6dpw332t6BIQxobvravVquyUcKRju67mb26hnTwZaRb46MnbOoP+HT3w8HqEcYt2sf45eQVfi6WWrfX8sHo0Oo8/0bJvHCcrXf8AUeWpFTzp244WHh3pMyGB9zeG0blvrDMEy3t9Hltn9Kejhwdej4xj0a71PPd7rOCb1Vfzdbt9ZM72Al9ygYMsnjwIXZv7uK9VFwLCNmB2gcpTGn6lLPAlN1Yb2xmTXRal37iTC1M5J1ZPY2CX1nh49WVKagKTvB9lufknWpT9gKniBOlT/enc6n5aderPlGU5mENUU4c6bK8/SZRfKzy6hCoeJjVRfjyd0AAfWrf4Mw/0CSH6QKHL9hyz1lpjOxePTpj0eVuZ0b8jHh5ePDJuEbvWP2dbwVe1Vx3xoeXH2gW+tCeonOPpoQT4tKbFnx+gT0g0ByyJzklyy9var16jh8ejrLD9nI6709RznyyPu1bSdx38pxMxxZ9OrTzw6v0kSUdKLRcS7rhqyX79LJufC+avU18hITGGiBfDmRSgQzd+A/8x/6KW8pkfaBBDjQJfuoNxasWT+LZrgUfHPkxIeJ+NYZ3pG3vanco45PuTeo14s8eFHFNNVeDXpYPmvONWS/GhIPDHIyAK/D+eTZuVRqby95g+aS2/uL1V3qxEFcLcNQRusHuKJ4+/XXrXSCwE/b0ImCjJnEKPcRsoboKcIxf/9i06t6qXkcLVw+k1/wvFQ9NgurqV8Z4T2CY/eHur3Yt2goAgcM8TEAX+Pe8CTQnARPnO6Uxa+4vqrfKmHF30/UckcIMfMl9meJfOhH8i/57pH1FPoVPDCBj4af9SYl4Iwc/Ln7jj9udWGtaP9tmNV+DDtc9fxK/jI4TMiiR+cSKxr4YT0qczvZ7bS0kTXJxoaya+FQQEgT8aAVHg/9Es2qz0MVGRd5p8+XeMm5VsQpi7k0AVp7YmsWzHKcps+wDuTk2E1I1JoIYfd6eQmLSK3d9ebbIFBcO53SRvOsG1RhHdxLW8z9mxOoXEuHheT3uLnV8WUCX8ulHoik4EgXudgCjw73UPEPoLAoKAICAICAKCgCAgCPyhCIgC/w9lTqGMICAICAKCgCAgCAgCgsC9TkAU+Pe6Bwj9BQFBQBAQBAQBQUAQEAT+UAREgf+HMqdQRhAQBAQBQUAQEAQEAUHgXicgCvx73QOE/oKAICAICAKCgCAgCAgCfygCosD/Q5lTKCMICAKCgCAgCAgCgoAgcK8TEAX+ve4BQn9BQBAQBAQBQUAQEAQEgT8UAVHg/w7mNNVc42rFdQy/w1hiCEFAEBAEBAFBQBAQBASBe5uAKPCb0v6V37IubBDerTxo1eI+PP2eZkVuBea/Y2IsJndfFvnij3E2yAI1RyIYEvZug9rU5+Sm6rc+Y9/WOTc/Zv7AWeyT/rR9PX3KWJzLvqz82xq2WTSu/onP9+VSfEt/9dNIce4+sppTANYcIWJIGO9eaiZ/6ei2+N6Gh+hL+SYrl5+rTBgvniTnP3cySTZDP2kI2jtlQw0Z79pcK+nUDHlqoG5eXxmLOLa3sWueGo5EDCHs3UvNS1elNPWcl5VNGutYFPiNRdKln2qOzHuITn97g5NXDaC/zPFlo+mkm8EHV0ygP0X6c4l8erWZTOYu8jfPD+Q/Fd/Y0jVVv40tp0t/19/jqbbj2Cz5UT19Sn8qnecSP3Xp6m77wFi4iqCO0zlw81Yk13Mq/TkSP716K42bps3NDwj1Gsna4uaRE26P760iMvKf1WN4dOoLTBk5ipC//o34k7W32lkjtGuGftIAre6MDbUFvGtzrbSGcls5R5vLH/7b2uOsnNHYNc9NPgj1YuTa4uaLr57zclMoIAp8TFT8sJ/0xTHExKey+WgRNY1BWn+CSL8u/OOQojdjASse68TTmVcsq/iNMc491kdTTQ5N1W+Tm0dZ4Df5YM1rgD/cZCsKfMBE1cWfuSQt2usruFhayS3doGlernrHpGmOMXLX5lpR4N8xP1Yf+C4o8NWFb/Jv7vkC//qJ5byQ9Ak/X5dWQMv4esMCXsu8cPvgDf8meWAbgtMLHPbe1964aZmw9D+wPWYNOb+5X63T/7CdmDXZXC37lj2rEohZso5DedUKuQxcOpXJ8rgo4pZu5stfFBcSirMshze58MVmUmMiWZS8kcMFin5qL3Js21JiFsaxfOc3lGk+KGCk7PQuVsZHEZu2ndxS68qaiy4Gzu9MYMXhS+YLGVmXspLjvLMsluglGWRf1GOqyufQuiSiopaQkV2MpTc9P2yPYc2/fiJ3RxqxscmsO3gWGZPz5FB78RjblsawMG45O78ps7GWx1Tn5wjJsV8Dl0/v4c3Xo4iITiYjqxD7JgENlo5dmt8Zy06za2U8UbFpbM8tteoofaVmP6v+2Vcp+3YPqxJiWLLuEErTGy5/TeYbsSxavJaD32UwybaC7+xT7u1lYZNjl9ZwiVOZy4mLimPp5i+xuZLVrtlXy/h2zyoSYpaw7lAeCu9BjT83L/DF5lRiIheRvPEwSpezD2w9Mlzm9J43eT0qgujkDLIKZdrqLAznMomeGYyPhx/j5y0gYY9ly5GaPDZ/KM1mzWsvsv7MdYuf5Uh7myz/DJdOkbk8jqi4pWz+8hfbhb5rWz1Qy8Vj21gas5C45Tv5Rhk4DdFdHlx6dSrwDZdPs+fN14mKiCY5IwsbFmUbxbGqr6nZl4bxdctB1XaSPuo+UKedVPJeQ5mojQP1jWMrI6uf2BioyIexjNO7VhIfFUva9lzkFCmZqf7+ZfXN7KuUZq/htRfXc8bschq52s247mNEK7cpnEnl8OaFL9icGkPkomQ2Hi5Q5AKNeHDqyzHXop5DnNph89cySo6/w7LYaJZkZHNRb6Iq/xDrkqKIkuaWYutMYp5Dc2xzB4bz7ExYwWHbFjgNmd34rjueNn+w5RU9aMWEk06W9moyqsenUzfWt/L59eNjbqQ2/9eV+93wsQih4V/679i6SFHzqI3tTjlVptoFvjZf9RxVZztVeWQbKGL3utO8rJqP3Skuf2ak6GAaaQeLFAsetXy3LZa3vqqUT3J5vccL/Jt8mpxKrvIOsOkyO15/0wVUwz8w8su7U9C1fpiQ6K1kX6h2XLV3msyd+5eSYPvugQQHDufZyASipg6g/YNz+MxcXRkp3hXKw7rBhEYuJm72cLp6B/PGd+6KfBNl+6ej8w5kRkwySa9Mpn+3UazJN4CxiPeeeQjdsJnEJMXwbIAP/SKPUuUsjPm9idL3Z9JLN4zwuCQWhQbQudccPpG2hrjoUsNns3UEppwzF9ySLp7dAhkRHMLsmEQiJvrh6TeKMf5/YXT4QhIiJuHnGUDyj9LVhRSwnrTp2ItHp0WQGP8Cox/2YlB8rnkyUU4OxqL3eOYhHcNmxpAU8ywBPv2IPGqRXpufq4L2fk2U7A7lId1gpi9MJiV+FkE+nRi/qdC8uqjK0rVLTKXvM7OXjmHhcSQtCiWgcy/mfCJtCdGyn6R/e7oHBhM4/FkiE6KYOqA9D875zKy/uc+enRg4LYolr7/M5KEP0raldYuOgx3U7WXX1bJvf1fow+gGhxK5OI7Zw7viHfwGZleS+mvfncDgQIY/G0lC1FQGtH+QORYnRJW/qYz903V4B84gJjmJVyb3p9uoNUgu5/LPVMLu0IfQDZ7OwuQU4mcF4dNpPJsKpXVbdRaVhYd5K34iD7ceRHjaSjZmFanLI/X0QShew8KZGzSIyQlb+Kqk2uHWrrF4F6EP6xgcGsniuNkM7+pN8BvfmYt817Z6it57hod0w5gZk0TMswH49IvE7HoN0d0ZhsJ+ppLdhD6kY/D0hSSnxDMryIdO4zdhxuLcTvJMNV8zFqNq3wbydeFQXKRuOw0Oqn5jtZNa3msoE/VxNHKiC1vHAkJioCYfplLen9kL3bBw4pIWERrQmV5zPkFKkQ3zL4tvDgufS9CgySRs+YoSvUauVhn38s/OMXJBI7e5KO7ygalsP9N13gTOiCE56RUm9+/GqDX5GDCqx4NLL9ZYHLnW/I26jdw0tM4N3QJHEBwym5jECCb6eeI3agz+fxlN+MIEIib54RmQjDSVmP115FpsO95qPmO2LpCUc1Ii0pBZxXfPFzjzLHLNK1ox4UYlbRnV859ykcXerXS+J/Xlozn/a+V+FT75Bq25Uwruvfzdc4RlC2JDao865wj1LTqafFX1qMN36iGPQ+xWK7ZeauZjuyXdHd3MmkePx5bzH/mW5s1/Mb/HYFLPu5tYLT3c4wV+JbtT0/nJgc9NPk1b7o7vLXympyT7bV4e3xevlp74jXuNrd9aH7JVTObuOjZPJP0iOCYvXdd8zMwuQ3kj3wj640T69ebVHDnMazmbOoTO0/bjei2n58TC3gyIP4O0CCT9q6muNh/rcyPw67eIk9Y9zKZL25noM4Gtl93cVdCfJrZfL17Iksv/SnI3LmV/vl6KBqe9w64FfoeBiZyxLsyarmxibOshpJyVV2or2BrSjonvSn1LSaoDg1PP21bjjRfe5m8+E9lRZrIlbWk1JzfCj36LTmIR38Sl7RPxmbAVSXxNflYOyhc5EUifmaoKOF8kXyyZuLh2JG2f2C7tGVBlqezLcqzndGw/er2QZbtgqszdyNL9+XXYz5LU+0Ucs6081Xw8ky5D3yDfqOfr6D70mH2ICtlE17YzQV7BV9pBw15KXfXHI/Hr/Sp2VzpL6pDOTNtfabFr+35EHPvNenFaw8czuzD0jXyMWvxrTrCw9wDizcuOEo0aqqtl73MmZaKq4Dx23BdZO7ItT2yXVta1WDjvh63bH9q11DF5ywXrCojUtzwx6Dke6UfvV3NsK5K1Z1MZ0nkaFgyhOLTV5xLh149F9sBh+0QfJmy9jEnfEN2dWCjtZ6qi4Lx9u6Dp4lpGtn0CMxanZpJfqvmapn0bxNcSUw4cpO00arZT5VC3ndqr5b0GMlHPDw2JY6WfaOcV/elY+vV6AXuKzGXj0v3k6xvoX2a7tKOlbjJbLlhmc61crT6uc4xo5TYXp3L5QH9iIb0HxFvuJkjf1lRjDmuteHDpxcLQy1zga/uCa1PJFh0YmHjGekfVxJVNY2k9JAX7VLKVkHYTkaYSOc+5LfC1ZFb1XVee0hj1jglXhbRlrCM+XbtrGB8tnzLP6Wq5X4OP+tzpWOBrju2imEaeMTOS87hLQ22+Gnpo+o5W3nMTu8r6SDsfu8rv8Im5oB9KWp6lYK354kV6DElFo77nHi/wjfxn3WssO33dxtF4cQ9RyVm29411UFN6kncih9O5XSDJp2uk7ONUFDuO5OJgtVnM6xZIynkDxgurGd5tLp/LNah0+/e7RPz7RfO1mzqq9tw6Jg54jOdTM8kuuGYtcIwUpgfRpvdTvBoZSaT0PyKMod5dmf+F8paGRS5j0T8ZoZuF8pECm8QuurgW+FJCtyXayh08IRel5k6qyZzUlpAt5daizhKwcg2L+dmFniw4WmsLWIyFpAe1ofdTr1pkj4wkImwo3l3nI4mvxc8mt+JAPl/+qLrgCBvjn2dsgB++Ok9ajlpv/so9S7mV4tVYxD9H6JjlBpi2/ewFhax/bdY8ugWmcL72F94c7tSncg++wg5a9rLrauTC6uF0m/u5bTuKtHXou0R/+kV/jV7Rn0WzWrLmdSMw5TwGTf61nFs3kQGPPU9qZjYF1+QlBwUfh8NqCo5sJP75sQT4+aLzbMmo9b+69QUbC+kGlPKBN015LP7Q3jeCXFvM2DljvMDq4d2Y6xhQJPr3I/prvdmXlG2NhekEtenNU69a4yYygrCh3nSd/wW1NFR3BQhn3tUFHNkYz/NjA/Dz1eHZchTrf5W9QtFO1dfqsK9icpR7VeUrWUNavXZgKMmgZjsVDvWwk0OuUOQ9s8b1ZqKdH+odxwpG0vhy7NhymU2+Wor+OQLdrEOKWLLaqIH+JV/Y+kbkWvvSytU31cdV2TOultus0qq/1J5j3cQBPPZ8KpnZBchhrR0Prt3JDOvK4W5a2i7KZX+t3PEEbcdtNt8lMZ9fncmktiFIU4k8js1WihV8bZlVfNcNz4bFhBuNpDuLyrlRIaPFDxznQmV8uumtAXy0fMo8gTrVJ4rcX0eOU/Uv2wr+fxtUe1j0VMszijzuCkTTB6RtlmrzlJbv1C1Pe+yxa04aVpb/1Z5v3cjv+FENX77Yk8HmnRE1fPlST4Ys/cm2EOp4ruXdPV7gS1tpC9iX9DKvRccRHxvFK9EbOGVbHnWH7HY+q2D/9M7o5mZR6zyZO3Xr4mDyRHLOgOF8KoN9X+GYog435qUxtMdLHFV8puzSVF1I9jspzB3rj/+TaeSU/5e8tCG0GxhGUnIyyfL/lBV86GYvhTTmEL9XHca09e+iS2MX+FKx/BDzspQFfh5pQ9oxMCzJLntyMikrPjRvBdHiZ5NbcSCfLz3kV7L/H/T1G8PCjMP8u6yGG7uepq21wJeauLKUpxtFh4bzpA7x41Wlkaxfa9vPnrDkXuWkfq7mJ5Y696lS4GvZy66rgfOpg/F95Zji2QAjeWlD6fHSUTc+Kif5cxiM2vwljtWF2byTMpex/v48mZZDuayQAhOmEvb/oy9+YxaScfjflNXcYNfTbess8KW77I4FvrY8ss62yV5ZuEm2GuzLK0pbSfoN7cFLiotKua0Ua0PaDSQsSRE3ySms+FDariD9q6fuSg7SsSKOTCX7+UdfP8YszODwv8uoubGLp9uqFPiqvlaHfRUMZNPYfM2Zr7viVtN2Khz+20A7KfJeg5jU6Z/1jGMFI4uJnAoym3w1nE8dgt+ryliyGriB/uVa2EkxqZarNcZ1KUjrzm1WidVfTNUUZr9Dytyx+Ps/SVpOOf+tMx4cu5NjkXrYyKllAwrYOgr8OmV2H8MOOeeWYsJJo1ss8M27jBy7kqRpAB8tnzLvb1Ip8C3bbt3nuDr8S1Hgq/uzw3YKi4aaecauswsOd/ZxuICSWri3s+yjcs5H2a6e8sg51Z7X9drzrTsFnD6rObqAngFL+Hf1URb0etS2mu90mu2tKPBtKBr3wPDDckYMeIHP5B0t5u71fBvfD89p73NTMZm7G9nFwWwTiQEq3mXSA+PYrNhKU/VhGD7DllNQ12IpVWTN9yUw+SyVe6fiHZzOz8o2BmlHpZt/13Yy2XssGYoVRH1VJTckLzZvHwom3bZBuIbPZjnuwXdYpWjoCv71T5nVfTirC422K3KoZO9Ub4LTf3aQ12CwSK/Jz4168vmW1dyuhH9qv6vz2/YJtFEU+Pbmdpb2z+Sja+yc7M3YjF/tz17oq6iUgGnaz56w5ARhL7p+473JnQjZfNnep0qBj4a9bLoiiTKJB8ZtNm9rskhexYdhPgxbXoDRxUcVBX4d/GUK5teqLOb7BpJ81jV5m+9mdA3Hjvs3tk9oU88CP13xM5kN9AfFZAgVvDvpAcYpuVZ9SJjPMJYX2H3Oluwr9zLVO5h0x8DB6noOqqOhu+OJ5tnIYaWna/in2Lzwt+1MaKNS4KPua5r2VTBw9TXpAkrJ17Vg0radk3Y2Dv93i3Fba179qj8TbX9wlE4rju3xKLWRY8fmC4q8fG3nZLzHZmBPkXqqKm9Iv9PWMP9yYxetXK0+rpMNzXcS6pvbHAm5e1eVNR/fwGTO/l8D4kHBsK4c7jqm3Rayv2qt4Ju3Ngan259bqfmMWfIe/FuM4UaNCfPUOZMuajK68QP7XOBKp2EFPtrzv2budxpbju3/+V9WD9fwL1uBb9Ie26l77Txj9wmnZua3mj7g3EDW46wBrXb1lUf2UXuBb9Keb53lcfe+JoeXew0ibv1L+D26jDy3xZq9oSjw7Swa96j2e1IGd6Df/IMUW7fNGC8fYq5fB8ZlFLspnhyH15pIMF1h3/QH8ZuxhVPFFVzNO8DLAzsStNLd7ZpKcpImMiVhP9+XVlH963HSRnUheFUBXDvMvJ46xqQe4eeKCopPbmNO4GCiT9j2MdiFMpXz4cxu9HxmHblF5Vz+cSdz+/fg+Y9+A/03xPbtwqSMPMrL8jiyJpwAr5YEKB6ybViB70mnkXHsO1NCxZVz7J0/AJ/xmygy2idYSbBrh+fRUzeG1CM/U1FRzMltcwgcHI0kviY/u1a2I/l86UG5DaM7MDQxl0vXSjmzK4rHdS24f8QapAlJlaWtJ/nARPmHM+nW8xnW5RZRfvlHds7tT4/nP0LbfvaEJScIe1I3UX4gjG49p5HxTSlXL37NjhcCaNfCWvgpk7KGvWy6SusXV/Yx/UE/Zmw5RXHFVfIOvMzAjkGslB5MUfZnVktZ4GvwL8shaeIUEvZ/T2lVNb8eT2NUl2BWubn6NJVuYHSHoSTmXuJa6Rl2RT2OrsX9jFgj/a6xFgvpwdK3ebzNSN4stPhrg/xB0be0inNl33Qe9JvBllPFVFzN48DLA+kYtNL8fI7My1bUcY3D83qiG5PKkZ8rqCg+ybY5gQyOPkFNpYbuN06zLWEpBwpcL3TMeG28DZRuGE2HoYnkXrpG6ZldRD26VACdAAAgAElEQVSuo8X9I1hjF0J2NPMqlJqvadpXwcDV11z5OnPQtJ0GhwbZyVZA6xvIRMM/axoSx3YflIA7M8AmnwFT+YfM7NaTZ9blUlR+mR93zqV/j+f56LeG+pd9TNkuWrlafVwnG2rmNqAO/6zMSWLilAT2f19KVfWvHE8bRZfgVRQYNeJB4aXyocxQeq/lC/L59ldXLloFvv6bWPp2mURGXjlleUdYEx6AV8sA60O2GjJr+K5zzpF1kcNSMybsitiOtGV01dc+F9i6UBy4nq/FR8unNHO/Gp/8Yo25UwoexUO2Dag9tJnadVaAsB1q8lXTo8CIVrv6ymOLXVteN2nPt9zg9LYElh5w/OVFmzLmg1pyXumJt3cXHl0mPQun/U8U+Np8butbw4UPePnRTrTt9AiBQ/zp7tmB/nN287NU8CuM7m4Q58ShnEik803lx0kPDcCndQv+/EAfQqIPUKiyPae28CCLJw9C1+Y+7mvVhYCwDXxvXRq8cS6TBaN88WrVgnbdg5idcYZKm2c6SmaqOEH6VH86t7qfVp36M2VZDtLf7JIe8svbOoP+HT3w8HqEcYt2sf6521nB74D/9Aim+HeilYcXvZ9M4kip48q8RbIbnMtcwChfL1q1aEf3oNlknKk0r27Xxc9RM/vELX1eeWoFT/q2o4VHR/pMSOD9jWF07htrbqLF0rlPTBWcSJ+Kf+dW3N+qE/2nLCPHAkzDfvaEJZvBIambyjmxehoDu7TGw6svU1ITmOT9KMulR+udfErNXjIbi7wmyo+nExrgQ+sWf+aBPiFEHyi0bNlx6k/as2jZgy/fplXjX0vhwcVMHqSjzX330apLAGEbvrevRjuAquTUiifxbdcCj459mJDwPhvDOtM39nSdBT76H1g9WofHn1rSN+6kVKHU3x8Uxa1ZHFM5x9NDCfBpTYs/P0CfkGgOWANK5iVP4ubzb5wjc8EofL1a0aJdd4JmZ3DGHDgaupdvIcRDZ95q5oBAfqPkXXmKFU/60q6FBx37TCDh/Y2Ede5L7Gk3D9lI7VV9TcO+CgZufc2JrysHLdtpcGiInRQFNA1lojFO/ePYHo8SZhcGSvmktfoT6Uz170yr+1vRqf8UluVY/+ZJg/zLPqZsF2ls9VytMa6TDbVyG3X5Z20hBxdPZpCuDffd14ouAWFssE8kKvEgO7f9VWZo+UQ9Zu0t5CNXLpoFrD6PrTP609HDA69HxrFo13qek1fwpS5vJYadeMq62HODVkzIeiheNWV01ddhLlB0Yzl0PV+Tj5ZPKXORuXNl7lePbU3/Uhb4WmO76KXF1K6zSzPpA02+6npot6ufPLbYdWCplY/L2RLigW5elmLLrKtWtV+9Rg+PR1lh+zkd13PkT0SBL5NostdarvznNF/lHOeH4qo6r7iaTIy7pmN7wNoC5K6RXQgqCGgQMJXz3vRJrP2lrnUXjT7EV4JAUxEQ/tlUZEW/EoEbu5ni+Thvl4qZ3b1DmCh/bzqT1v6iUSeaKMmcQo9xGyiuxzQiCnz3pMWnd4yAKPDvGHoxcJMSMJXvZPqktYj6vkkxi85vkYDwz1sEJ5rVTeDGD2S+PJwuncP5RP517Lpb3VtnmMrZqboAZOCn/UuJeSEEPy9/4o7bns7SZCQKfE084svfn4CBc7uT2XTi2u8/tBhREGhCAqaKPE7ny39ToAkHEl0LArdAQPjnLUATTepHoOoUW5OWseNUmf0HIurX8t45y1RB3ul829+/cVS8hh93p5CYtIrd317VWOF3bCUKfEce4p0gIAgIAoKAICAICAKCgCBwVxMQBf5dbT4hvCAgCAgCgoAgIAgIAoKAIOBIQBT4jjzEO0FAEBAEBAFBQBAQBAQBQeCuJiAK/LvafEJ4QUAQEAQEAUFAEBAEBAFBwJGAKPAdeYh3goAgIAgIAoKAICAICAKCwF1NQBT4d7X5hPCCgCAgCAgCgoAgIAgIAoKAIwFR4DvyEO8EAUFAEBAEBAFBQBAQBASBu5qAKPDvavMJ4QUBQUAQEAQEAUFAEBAEBAFHAqLAd+Qh3gkCgoAgIAgIAoKAICAICAJ3NQFR4N8R89VwJGIIYe9euiOjN79Bq/np833kFht/B9GMFOfuIytf/L3s3wG2GEIQEAQEAUFAEBAE7gABUeDfAehwkw9CvRi5tviOjN7sBjUWsiqoI9MP3PwdRNNzKv05Ej+9+juMJYYQBAQBQUAQEAQEAUHg9ycgCvzfnzmiwHeC/rsW+E5ji7eCgCAgCAgCgoAgIAj8wQiIAr9JDVrLxWPbWBqzkLjlO/mmzGAdTWsFX88P22NY86+fyN2RRmxsMusOnuU3k7Wp/ge2x6wh+2op2Wte48X1Z9ADhkunyFweR1TcUjZ/+Qs1Cr1qi3PYmhpN5KIk/rlzPxtee5pxi49Yxsm+Smn2Gl57cT1n9GC4fJo9b75OVEQ0yRlZFNp2sljlyi6j5Pg7LIuNZklGNhf1JqryD7EuKYqoJRlkF9faRlbvy3YKGM6RGT2TYB8P/MbPY0HCHvIlTLUXObZtKTEL41i+8xts6Nzof/2H7cSsyaas5DjvLIslWpLjoh5TVT6H1iURFbWEjOxiLJJZ9cj5DZB1ukrZt3tYlRDDknWHyKu2y1cvHeyniyNBQBAQBAQBQUAQEATuOAFR4DeZCYwUvfcMD+mGMTMmiZhnA/DpF8nRKmlArQJf+s6TNh178ei0CBLjX2D0w14Mis/FXHfe/IBQr2GEzw1i0OQEtnxVgr54F6EP6xgcGsniuNkM7+pN8BvfmYt8Y1EmU7p2YWhYDEnxc3i8ayu6zztClVWGYeFzCRo0mYQtX1FctJvQh3QMnr6Q5JR4ZgX50Gn8JgrNW+MtcnULHEFwyGxiEiOY6OeJ36gx+P9lNOELE4iY5IdnQDI/GsBUotWXArqxkMNvxTPx4dYMCk9j5cYsivRFvPfMQ+iGzSQmKYZnA3zoF3kUCzpX/as/CMWzWyAjgkOYHZNIxEQ/PP1GMcb/L4wOX0hCxCT8PANIlgRzYC/p1J7ugcEEDn+WyIQopg5oz4NzPjOzrrcOCnXEoSAgCAgCgoAgIAgIAneagCjwm8oC+lwi/Pqx6KR1X7npEtsn+jBh62VMDkWmswBS0dmBwannkdf7jRfe5m8+E9lRZgKpwG/XEt3kLVwwF956jkf60fvVHMsFgLT4fTaVIZ2nsb/SyIX0v6J77iMqrcPUnlxE3z6LOKWXxmlHS91ktlg6AlMVBeeLbKv/potrGdn2CbZLi91mmTswMPEMlkV9E1c2jaX1kBTOyqv8FVsJaTeRd6VKXLMvJ52dtujocyPw67cIO7rtTPSZwNbL7vSXkITSYWAiZ6xymK5sYmzrIaTYBWNrSDsmmgWT9Jaff7AU+P0ijtnukNR8PJMuQ98gX2LbEB2cVBJvBQFBQBAQBAQBQUAQuFMERIHfROSNhekEtenNU69GEhkp/Y8gbKg3Xed/QW2dBb6lAJV35WAsYMVjPVlwtNZS4Lf3JSLXugnHeIHVw7sx93PFphzDdyT69yP66xpK1v2NrtPfx1yjAzeOLsC3fzxnzAV+e3wjcm0FvRlFdQFHNsbz/NgA/Hx1eLYcxfpfJUnshbEsV+WOJ2g7bjNX5Q+qM5nUNoQt5Vaoqn05QXco8I0UpgfRpvdTvGrmFklkRBhDvbsy/ws3+kuSfRCK18i1FMtyVO7gibbj2GwXjMxJbQkxC2bXw51OtVnz6BaYwnn56qq+OjipJN4KAoKAICAICAKCgCBwpwiIAr+JyBvz0hjSbiBhSckkJ8v/U1jxYT4GRbHsOry9AJXrVYxF/HPEQ8zLsha4XiNZK1ezhvOkDvbllWP2ve8Y80gb2oOXjtZiqvgXCwfq6PfELF6a93cCdd2ZsuMCRoUM8jimkv38o68fYxZmcPjfZdTc2MXTbW+twNfuy0lrpwI/L20I7QaGkWTjlkxyygo+lDbnm7coKfRvogL/nHmbkRYPJx3EW0FAEBAEBAFBQBAQBJoJAVHgN5UhKvcy1TuY9J+Vv+1uwGDbzy5vE3EWwE2Bf/1TZnUfzmppM7xLgVvBu5MeYNxmaeuP9V/Vh4T5DGN5gZEbZ9J5esLLvLVlLcvfeIu9X18yP5Trunpt5MLq4XQN/5Trcj+/bWdCm1sp8OvqSx7A+mosJF3xM5mVe6fiHZyOIzoDFnTSHvzfo8BvoA5OKom3goAgIAgIAoKAICAI3CkCosBvMvLXODyvJ7oxqRz5uYKK4pNsmxPI4OgT1ChWz12Hlwp8TzqNjGPfmRIqrpxj7/wB+IzfRJFU4boU+Cau7JvOg34z2HKqmIqreRx4eSAdg1byk8HIL+vH4O0bwvzYJaSlv82WXZ9w/H+vuVnBN1G6YTQdhiaSe+kapWd2EfW4jhb3j2CN+W6B64WH+haduvpy0tpUytuPt2Hkm4WW7ULXDjOvp44xqUf4uaKC4pPbmBM4mOgTNW70lz5q/C065wx16XCD09sSWHqgwPashJNW4q0gIAgIAoKAICAICAJ3hIAo8JsS+41zZC4Yha9XK1q0607Q7AzOVErr7PZi2XV46bsO+E+PYIp/J1p5eNH7ySSOlFrvBLgU+NLDoOUcTw8lwKc1Lf78AH1CojlQaNmyc/3sZp4L/itTX0kgMSaCF8MnEaDTMX7D/9geNrWt/FeeYsWTvrRr4UHHPhNIeH8jYZ37Enta+iFOu8zy+eoFPqDZl7PWen5YPRqdx59o2TeOk3q4cS6TBaN88WrVgnbdg5idcQYLut9rBb8uHcrZEuKBbl6W9ec3nXUS7wUBQUAQEAQEAUFAELgzBESBf2e4a4zqWkhrnKz9lbGQ1cN7Mf8LxQO4mLi6dTyeE7ZptxXfCgKCgCAgCAgCgoAgIAjclQREgd/szNaIBT7X+PxFPzo+EsKsyHgWJ8byangIfTr34rm9Jc1OcyGQICAICAKCgCAgCAgCgsDtExAF/u0zbOQeDJzbncymE9cap1/TNfI+38HqlETi4l8n7a2dfFlQZX8gt3FGEb0IAoKAICAICAKCgCAgCDQTAqLAbyaGEGIIAoKAICAICAKCgCAgCAgCjUFAFPiNQVH0IQgIAoKAICAICAKCgCAgCDQTAqLAbyaGEGIIAoKAICAICAKCgCAgCAgCjUFAFPiNQVH0IQgIAoKAICAICAKCgCAgCDQTAqLAbyaGEGIIAoKAICAICAKCgCAgCAgCjUFAFPiNQVH0IQgIAoKAICAICAKCgCAgCDQTAqLAbyaGEGIIAoKAICAICAKCgCAgCAgCjUFAFPiNQVH0cW8SMOjRm+421Q3o7z6h7zbIQl5BQBAQBAQBQeCOEtAu8I3FGIu3Mq13L3x9/Xikrz+Pjv47L634iLwqWW4jxbn7yMq/AdRwJGIIYe9eavgfUjIWcWxvFuZu5K6b5etNPp4/kFn7fgOUujdLYW9TKKWut9lVvZpX89Pn+8gtNlrONhaTu68On9A85zbkv/kx8wfOwmxmt7Ib+U/6cHrN+Yzrbr6/+fF8Bs7ah+QlDftnpOSTOCYOfgTf59+zxVOdfdQrfkxcyZxMj8mZXLrrLkzqJHBnT6j+ic/35SK7bmMJU3MkgiFh76p0p/SVfSrn3ObHmvF1m33fUvNGyrmNaq/byDO3xODWG1X/9Dn7couxZthb70i0FAQEgWZPoI4CvxBj4Soe+/OjJH75HWe++YrP96xlYUhPOg1O4Jj5j63qOZX+HImfXgVu8kGoFyPXFje8wK89zsoZiXx6tblXHtd576m2jNt8FRNK3Zu9rW9BQKWut9C8oU2MhawK6sj0AzctLfWnSH+uDp/QPOc25L/+Hk+1HcdmNX80fM/iAT6EfVjpVsvr7z1F23GbUWvutpH0of40sf26M2XdV+SX/WaLJ9Xz5S/qGT+mS5sJ6fg4a38RU7yMrjFepTwZ1HE6sus2Rp9SHzc/CMVr5Fr33Tn4So37c273U834ut3Ob6V94+TcxrXXbeSZW0Fwy22MFK4KouP0A1gz7C33JBoKAoJA8ydQvwK/9d/YoFzyMxSycZw3/WK/odZBx9so8B36ac5v7pZk3hgMf2ddnQv821bhNuSvo8A3nE0mwHsa+9zX99xygX/zA0I7/o31v0oXuvZ4um0UcgemEtb/rT2jN5Q2/CJc7kO8uhBo3ILR3r1mge/gK/Y24qhuAo1rr9vIM3WL2ohniAK/EWGKrgSBZk/g1gp84Pon4fj4RpCr1/PD9hjW5EibESwFyYhVX5O7czVJca+z5qPzyLt59D9sJ2ZNDr/Ji/SG8+xMWMFh6eJB/x1bF60hR/7ScJnTe97k9agIopMzyCqUtgBJ/6zjZV+lNHsNr724njN661fyi/4Htsco+sLA+Z0JrDgsbR2yty/7dg+rEmJYsu4QedVyYzevhst8nfkGsYsWs/bgd2RMsq/g23WX2hm4fHoPb74eRUR0MhlZhchSS9/WFuewNTWayEVJ/HPnfja89jTjFh+x8HPWp079yyg5/g7LYqNZkpHNRb2JqvxDrEuKImpJBtnF9ksvw+XT7HnzdaIioknOyMKG0o2qqOpq1oCLx7axNGYhcct38k2ZwV0Pls9U5Ze+NlJ2ehcr46OITdtObmktGM6RGT2TYB8P/MbPY0HCHvJvWu14+QzbolfwufIi88bXZCTs4MfrTrbWlF/bPobLX5P5RiyLFq/l4HcZTFJdwTdR8vbjtB2TwWXZlyXbf53JG7GLWLz2IN9lTHJYwa+9eIxtS2NYGLecnd+U4Y6cseggKfPH0bNFV0b+40VezTimWMG3x5k8pOH8ThJWHLZst3GJn0ucylxOXFQcSzd/yS+2BV4DPyb50+Hve21x6WrEWoqzN5McHUtqxhEKLn7BmrVHqZDCVCuGpY5qL3Js21JiFsaxfOc3qLqINUazr5aSveY1Xlx/BimMVTlZz//XT7nsSIslNnkdB8/+Zr1Isce0Q07QkOXmhS/YnBpD5KJkNh4uwB7+tSo+bh/DOW8YzmUSPTMYHw8/xs9bQMKefDNSVV1cgavqrVbgu/rKcVseducfFrtlc7XsW/asSiBmyToOOSQ9NzEpyemcSw0qfmWzZxnf7llFQswS1h3KU3BVjz1ZtrKS47yzLJZoKX9d1GOqyufQuiSiopaQkV1sXUyyx4EFY+PZy3DpFJnL44iKW8rmL3/BFjJu7NU4eVLdpyzoNeZLs0xquoOrfxs4lxnNzGAfPPzGM29BAnvyb6rMPSo2duFglf9fP5G7I43Y2GTWHTxrm99lu14tzWbNay+y3jxRG7h0KpPlcVHELd3Ml784Um7IHKk6r8m+WFbC8XeWERst+c9F9KYq8g+tIykqyjxnKqZIVPty0Vl8IAjcPQRuucA3Fa9lROvRbLx8XVGESAW+J2069mbE8zEsSXyB0Q97MTDuK3OilyerYnkGqvmM2bpAUs4Z4OZe/u45grXSl6YSdoc+hG7wdBYmpxA/KwifTuPZVChtK7BcRAwLn0vQoMkkbPmKEufdBtLKltdIS19mW9Tw2WwdgSnnMJjbt6d7YDCBw58lMiGKqQPa8+CczxSTkcKAplLen9mTTgOnEbXkdV6ePJQH27a0btFRrrCaKNkdykO6wUxfmExK/CyCfDoxflOhuTNjUSZTunZhaFgMSfFzeLxrK7rPO0KVO33+W5f+nnQLHEFwyGxiEiOY6OeJ36gx+P9lNOELE4iY5IdnQDI/GiSUuwl9SMfg6QtJTolnVpAPncZvwoxSoab5UFNXI0XvPcNDumHMjEki5tkAfPpFclS+elP2pWk/E6Xvz6SXbhjhcUksCg2gc685fHL5Zw6/Fc/Eh1szKDyNlRuzKKq22vGXItaN6siErWW2VeebR+bS829vc/G6wtaa8mvbx1T6PjN7dmLgtCiWvP4yk4c+SNuWalt0avg0vBM9X/vKWnRYdOrZaSDTopbw+suTGfpgW1pat+gYi97jmYd0DJsZQ1LMswT49CPSDTjTpWNseyOM/h5+TElaweoDZ5xiy3H7W81ns9EFpiCFj0P8GIvZFfowusGhRC6OY/bwrngHv8F31rn0+r5n8PRbxCnnC2OLE1C691m6PzCAKa8kEP/SZB7r9QBt/vom0q4ezRg2FvHeMw+hGzaTmKQYng3woV/kUfcXEuYYHUb43CAGTU5gy1cl6LU4Sed7tqFjr0eZFpFI/AujedhrEPG5UmnuJifo1WUxle1nus6bwBkxJCe9wuT+3Ri1Jh8DWj4ujeE+b1QWHuat+Ik83HoQ4Wkr2ZhVRH1tLiHXOlfmrQwv6VjLV+zp1e4fUj/tuwcSHDicZyMTiJo6gPYPzuEz85WNSkxK+8uUuVTLr6Tz2ncnMDiQ4c9GkhA1lQHtH2SOeQDt2JNk8+wWyIjgEGbHJBIx0Q9Pv1GM8f8Lo8MXkhAxCT/PAJKlhGa1tbQNVFooUM9JDbRX8S5CH9YxODSSxXGzGd7Vm+A3vnNf5GvmGS2ZnK2oLqPZq63bs9zOlxq6u/fv8xQcfov4iQ/TelA4aSs3klVUbc4vDnOpXjt3OGogyS/N9714dFoEifGW+X5QfK59vh8WztygQUxO2MJX/7+9s4Gqqkr7eLNaBSiKAaJwE0vjysdrMihUOqjkB6FQ8k7qK6ZimqPmgEkq9DpAljZgll+YBKNFqQ1OpZnWek3zu5h6Jz9oqIX5wcpUXgQWMQuu3Lt+7zrn3nPuudx79wXTGV1zWEvvvdx99n6e//Ps5/nvvZ9zuGDiXNkk7jcMYVLmCyyZGU+foGG8bAtMncmR584K8pocK0IZPHwYiTOfJycjGWMPIwmjB/Efo6azMDuDFGMPYnL/Jm+0dCpHOgKgf9IRuKURuG6CT8OfGO/7MCu/swYJa8CVJnwAcS9JydL6Y/7uVUb0Sqb0skVMDrQEHwuNVac4qyzuLed5bUR3xpUopwR+eBsmsOlMe2ZvG1SblORfORP8qIwD6k5DywdPERz3Mt+66M50LIuIfjPZJW1fyj/1lCQpO/hWfa26g6WxilN2oTn/2gi6jyuRE9GZgt9gmPoXlIqO1iOLiIyQSJbUR3t9POnvT3ROhe10wMLljWPwjc3jhHJcUFdMol8ymyXybWmk6tRZNVFZzr/GiO7jkKG0aaS8CHU1HSTDGMWiI7bqTctFSpJDSCr+SSXdSj+I7CfXDT/AM3uVlUEDBze8yPZvTdC+REe14zXOrIonKLWMOnmQVj7//QCGrqzCrLaxIJRfhsKdfUwcy4qg38xd8i61PER9CUnudvAt53l9RFceXvmd9WY10zGyIvoxc1edikV9SZJtB9/EwQwjUYuO2OpeLVwsSSYkqViz+29Hjn+8S2oPpSRO61/294onuiP4pkOZGMMXsF/Zlm49QX5sbyZut3pf6+e/p1/3VN51dXew6TiLo+4nfaddl6ZtvyUw3jPBNx3MwBi1CLuLlJAckkSx/ZjDrqhkNz9vDBM2YZ3GHnCS2vsPIf+UGlk4s+ZRQpJLuWRxnkMiWUyHFxL+4FL7yV9LE03SYkfo49IY9+AubjiWfHjQxY6CfCIp8g93BF/uwo2vuPIPmeBHZXBAOSFt+YCnguN4WQp6ojmpnV8iv5La3RNFxgHlVKWFD54KJu7lb+U54j42WheN/tE5VNjil+XyRsb4xpJnD2gUJ/qRLAc0+zy4kfY6lGkkfMF+dZOn9UQ+sb0nYpsyjhYT5QShDzl0Y1usuPcpxfYuCb5gnBZ3/k37Eh0X80Zk4/biy4stf4bkn7Ln+zNreDQkmdJL1nzv521gwqYztjh5iExjOAvsgYkT+bH0nridBsx0KkeK8pocK6LJsTsUG8f4Ept3Qj1RrytOxC95s3XzQdSXk876L3QEbh8ErpvgWy6u51HfBNb+2H4H33GXkbYT5A42suDz1k4QfAnAJqr2bGDptDHEGMMw9PAmYd2PalAMyzioklYnuDVJyfpde4LvKGPr3tmEDs5D5Q5qh2Z+WBWPIX2XZixtvaUm2diuaaraw4al0xgTYyTM0APvhHUSteTC2kfpM/k99akqzfvmETZQIhlW4uCsj0h/R/kbSsc5lIPQtIWU7olsqlWFYs+GpUwbE4MxzEAP7wRbjbeqqLwIEel6rbqAod3CeXxBJpmZ0r8M0uKC6DPn03b3YSh9upbffPZVhhvS2aUs3pTm0qtbgm/BXLWSR4KnUC6tC0xfsvTBwfzhG+nkR9nBv+bBVtaBXNrH/AOr4g2ka4US1eC3nSI/pisJa6117OYfVhHfTie1Bv9aNQVDuxH++AIbbplkpMUR1GcOn9qrqOwouCFt2p1LVwTOvoN/jTOF8YTO+ljjs238NWcQUVnH5DKYtopsorqMpuiS0pN9eKt9ZjjY5x87phDkkeC3Ul0wlG7hj7NA9o9MMjPSiAvqwxxXisqEMIyMgzZHMHvASbWzXWbZJ/rPY19r+zlkFsvSepK1yQ/yyLR8tnxWRb1tYW8W+rh9risSaOOGA8H3pIsdbtnnRf6hkDztJep7N76iyKddACr9qGSxdS+zQweTd6oN4ZxUcffgV2o7ZfRW9s4OZXCenfy5nHtSRG+/U91QyjiHxXUTW1K6kygHNLsdbpy9zlAYH8qsjzVBqe2v5AyKIutY+2MucU7oXJy066KipslFTrhoTryFurvxb+nEw/EmW+d54yl2qL4nv3GWH3MVKx/pz7x91nx/j1TGq0zxM4XEh87CEeYcBkVlccx0HTmyqcp1XnPyxQZKxymbclYNmrak0D1xE0qKxF1fjgrrn3QEbisErpvgt+6by319nuETOblaCacrEkLbaV6M7cdc24SXngihJhlNwLITFGuJzvYZkRhHL6Ro9zdcammm7InuGoLvSHCdEHea4B0j+HKpg0NnbZx+MRbjggMaEuuO4Fu4sH0GkcbRLCzazTeXWmgue8cIhp4AAAwnSURBVILuMsEHS90nLIw2EDUunbmz/5PBhr6klko7Gy6CpOUCndFfRPAtF7YzI9LI6IVF7P7mEi3NZTzR3RXBF+t6rXI5sX7RpC3LJTdX+ZfHyh320xoVOoH8bafyiTUu4IArcisg+EikekgfZn7UjNRHXJStxES1tcmDrQT2kX3UyAKtUCKCLyWxh7oyfLX1aVFtp1900slO8CtZHutHdNoyDW655K3cwbfKZrQKnMR2fukOvolT+UMIe1brs2Yql8fRb+4+2Y9Nx58nvOs4SuWnYGkHR8Z2SDv7dJTgVy6PxS86jWWqf+SSm7eSHa4UVe1mozZmDzi1by+tB6XF4n2z2auJQdbeJH09yGJpovqzP5E3awyDBo1n+f5axD7uPE8Vgi/FDUeC70EXLeQe9FZInvYS9b0bX1HIYocI/sk22eZu56SKuwe/UtspoysEXyqLFMy9X0LwhTGpE/aSY0sYz2rnv2SXOGveUvGW39zAOOki9mt9SrG9q3xpFuou7Sk5+7fFJcHX5tI2j7HDEQtnjDGf5dXh9zF7r/OGnhS3h4Q96xD7JT3i+s1lX2vncqQwrzn5opjgC/tyVFj/pCNwWyFwfQTfcpk/p91L6KzdNGmClEuCX7+NicEjef2cBbkUZliBvf675SPSXdTgm6WVfp/p7FRLCK5SktSt4wRfPn4eRoFaaN7CR+naGnxtUANtUG1vvatvTaBX4huacgo3BN8s7QL1YbpdaK6WJNHNRvCbKwp4Imk+r296jRUvv87WYxfl3VRXmHVWf/cE3yzv5vaZvtP+rParJSR1c0XwQahrw1aeDBpGwffaOqY22rQfbeAJ5a9/mwlBYyiSnxJjvcDU2ECzxAvknU/NYzIdArV0c+iv6T/vU74tHE7Y3H3WHWpNG6H8Qvtc5a0JvUh8Q1NuJCL4NLDl8e4MfOEr69H01beY0CuRNzSlKCrBtzSw9ckghhV87/Ds6TZXwElwuCFt0t+YkEoehhVUq/20fJTusga/bnMKPcdqfbaRHWkhPLyiSr62ZfdMgkOedthJU/2+XtJlPCWa53tqCb5oDjdsfZKgYQU4uohU2e7iR2M367cecHJqDz/vTKdvfCHVZmei0RlZGvfOIWxwLif+T+TjzmNo44a8o6o+JtODLg5wiNsqJM/hEuWDg6+I/UPpRyWLyg6+tDoRzUkN7kK/0rSziqch+MK5d/07+AhjUmfsVcfmlJ6M1c7/xh2khTzMiipn7xXGGaFMiuGUV7GMorkm1l3p3/qq+neb9WTL/phM5/GFNnbsVgpW6j1CyrKOn3eS3jeewmqz88lM3WZSeo51iJONO9IIeXgFEswdz5Ee8pqTL4oIvoe+nHTWf6EjcPsg0EGCn8DaC62YTM3UVh2geP5DBN2bymb5Wdr2SW6d8D3o/egy3j95iYafvmbz9HCCU0q4ID2B4/hiIoNTKKqs5VLlHlZPjyHAO8bpJltLzXpG+ceRc/Ai9TUVlD03EoPX3fKOqcug0h5vqY44MpiUokpqL1WyZ/V0YgK8iVFvsu04wbfUlpMW2p+JRcepuXKeY6XPEOPnJS82LJoAh6WG9aP8ics5yMX6GirKnmOkwYu7h6+2lr+sG01QWCJzFv+B5QVr2FT2IYe+q3e5g99Z/d0TfAs160fhH5fDwYv11FSU8dxIA153D2e1munt4Il1rWf37P4YRuez5/s66s4d4c2nBzMk67CmFMTal1B+Sy07ngql/2/XcvBsLT/97W1mDezHtL9cRcJwzchujFhV7UTepZ5NXy5hYPgMZo+6n/RdtoJdTTAXyi+0j4Xa8jRC+0+k6HgNV84fo/SZGPy8XC+EpCc5fbk0ioBJ71kXTpZaytNC6T+xiOM1Vzh/rJRnYvzwSliHtI6p3z2b/obR5O/5nrq6cxx582kGD8nisKYiQLWCA2nTzi0TxxdHEpxSRGXtJSr3rGZ6TADeMc432Voub2PyvUambDrKuborVJbPJzpwKK+clo4MrE8A8h2+2n6Spg4uff0Tb6WGEPn0O5y43MiV0x+Sl2jAx3aTrXAO1+9mdn8Do/P38H1dHeeOvMnTg4eQ5UpRjd2U4YU4Se179GLEkm1UXKjj8smtzHkwhMc2nnU5hxDI0rB/Gcmp2Wz/qobGph85tDyB4GF/pMos8nG7LRQyoyX4lpo1jOw2glXVVqMKdVEUtr2K2irEvN0l1o8OviL2D6UfddprCb5oTmrsJPQrTTurcBqCL5x7v4Dgc6PsZeHytsnca5zCpqPnqLtSSfn8aAKHvoI8ZdqBL4wzQpnadaTJH658SjjXBONccuvfFmrWjKTbiFVY3dTZp4U2bi++LH8Peo1YwraKC9RdPsnWOQ8S8thGzrq6Id9ymW2T78U4ZRNHz9VxpbKc+dGBDH3ltHyD+w8dzpEe8pqTL4oIvoe+aOaLN7N5sbxKvc/ACQb9FzoCtygCHSP4d93BHXf8il/d6YVfSDjDp+Ty/nfKn8qwBwmZfP9XBBOyFpI4IAAfb3+Midl8VGPbBTFVUjxlIIE+PgQMGMuisnVMdbGDDw0cXTmeMD8vfAIjSMp+jw1pvYlc/IXrXQMncE1UFk9hYKAPPgEDGLuojHVTr28HXyJEtYcLmRgdjK9PAJGp+WSnBPHQir87EAtJhIajKxkf5oeXTyARSdm8tyGN3pGLZel+PvEGU4f9hiefzSbn+Qx+Nz2FGIOBx9b/r/MuSCf1d0/wZaFYOT4MPy8fAiOSyH5vA2m9I1n8RfvaUklMka5A80m2zEsgLKALXn59GTqziIoGJTVpjSCyn3QUe5iCJwfRu8vddOk1kNSX9nNZ7sbE14WjMPjciXfkEo40KPX1tjFMR3jO2AWf4En2m98cgrlYfpF9sNRyuHAi0cG++AREkpqfTUrQQ6z4u/MOnqRp884ZhIRLtaNWvS21hymcGE2wrw8BkankZ6cQ9NAKrJc3c3LLPBLCAuji5UffoTMpqmhQb8jVIud+Bx9MlcVMGRiIj08AA8YuomzdVJc7+LIdDxUwKSYEX6+u9IxIJKu82lZm1swHT/UmaumXthMkh9HlD+Yf95KbHElg1y4EhD9G5qwR+Ntq8BHNYdlFtjAvIYyALl749R3KzKIKXLqIg90UGQQ4Se39BzE5I5VBvbrgExDO+GV7sIYWewzSemPzSTeytFbz/gsT+LWhG3fd1YXgmDTWf2U7LnTr485jaAm+9DjJwlEGfO70JnLJEQmJjttc0FYh5gpCDq8OBF/sH0o/Lgm+NPPdzUkHO1modedXDu0kKTUE30NsdJKtgzX4MhY3yl6WWg4VTCImxBevrj2JSMyivNpVHaE0qjjOdDxOevIpQb6UxHCnu8C/TV8XMsrgw53ekSw50uAi9whsLAOu/U+S359BkzNIHdSLLj4BhI9fxh5bvneyq4Rc7SEKJsUQ4utF154RJGaVo8DcqRzZcNR9XnPyRRHB95Qja9mU6INh9l5Nma4WA/29jsCti4CY4P8z5W5+h9QeI1lTo03R/0wBbuJY5moK4x9gzqfaLVsLV4ofo0fSmzdxYL3rm4ZA4wdMkxanzndm37QhhR13dP607GNuvwgXNw+6711bouO+1U3+xilp3+Tx9O51BHQEPCDgvEDxcIH7r/Uc6R4b/RsdgetE4NYg+M1fs2V+PMG9p/Oh8qjH61To1rysno9/ZyRwQCLpmUt5IWcxC6YnEtH7AaZuvXBriqxL5QGBZvY/O4CYZdZnKXtofHO/7sT8af5kDmGx+ZxwdYOvGyl1gu8GGP3XOgL/1gjcQIKPniP/rV1JV/6mIHBrEPzGoxQve4nSo/Y/ZHRTtP1Xdmqpp/LjUgrzcliy9L9Z/vrb/E9Vo+syjX+lnPrYHUbAfOEztu5VSl86fNmNb9iJ+dN06n3+fEx5VnnHRGk79S55Gw6qfzeiY1fd4FZtJ3kndyOHXTz55waPpHenI6Aj0CEE2jj5Ti4bb9Sk1HNkh1DXG+kIdBSBW4Pgd1RavZ2OgI6AjoCOgI6AjoCOgI6AjoCOgBABneAL4dG/1BHQEdAR0BHQEdAR0BHQEdARuL0Q0An+7WUvXVodAR0BHQEdAR0BHQEdAR0BHQEhAjrBF8Kjf6kjoCOgI6AjoCOgI6AjoCOgI3B7IfD/gUxfFq+SF2IAAAAASUVORK5CYII=;clipPath=inset(10.71% 0.33% 5.71% 0%);" vertex="1" parent="1">
          <mxGeometry x="150" width="738.59" height="289.0134782608696" as="geometry" />
        </mxCell>
      </root>
    </mxGraphModel>
  </diagram>
</mxfile>
